# Blender 4.0.2
# www.blender.org
o Assembly1_cablebox_7
v 1.607160 0.656221 -0.103160
v 1.606571 0.646239 -0.103160
v 1.605956 0.656292 -0.110000
v 1.605367 0.646309 -0.110000
v 1.607160 0.656221 -0.116840
v 1.606571 0.646239 -0.116840
v 1.610627 0.656017 -0.122856
v 1.610038 0.646034 -0.122856
v 1.615938 0.655703 -0.127320
v 1.615349 0.645721 -0.127320
v 1.622454 0.655319 -0.129696
v 1.621865 0.645336 -0.129696
v 1.629388 0.654910 -0.129696
v 1.628799 0.644927 -0.129696
v 1.635903 0.654526 -0.127320
v 1.635315 0.644543 -0.127320
v 1.641215 0.654212 -0.122856
v 1.640626 0.644230 -0.122856
v 1.644682 0.654008 -0.116840
v 1.644093 0.644025 -0.116840
v 1.645886 0.653937 -0.110000
v 1.645297 0.643954 -0.110000
v 1.644682 0.654008 -0.103160
v 1.644093 0.644025 -0.103160
v 1.641215 0.654212 -0.097144
v 1.640626 0.644230 -0.097144
v 1.635903 0.654526 -0.092680
v 1.635315 0.644543 -0.092680
v 1.629388 0.654910 -0.090304
v 1.628799 0.644927 -0.090304
v 1.622454 0.655319 -0.090304
v 1.621865 0.645336 -0.090304
v 1.615938 0.655703 -0.092680
v 1.615349 0.645721 -0.092680
v 1.610627 0.656017 -0.097144
v 1.610038 0.646034 -0.097144
v 1.706986 0.650333 -0.103160
v 1.706397 0.640350 -0.103160
v 1.705782 0.650404 -0.110000
v 1.705193 0.640421 -0.110000
v 1.706986 0.650333 -0.116840
v 1.706397 0.640350 -0.116840
v 1.710453 0.650128 -0.122856
v 1.709864 0.640146 -0.122856
v 1.715765 0.649815 -0.127320
v 1.715176 0.639832 -0.127320
v 1.722280 0.649431 -0.129696
v 1.721692 0.639448 -0.129696
v 1.729214 0.649022 -0.129696
v 1.728625 0.639039 -0.129696
v 1.735730 0.648637 -0.127320
v 1.735141 0.638654 -0.127320
v 1.741042 0.648324 -0.122856
v 1.740453 0.638341 -0.122856
v 1.744509 0.648119 -0.116840
v 1.743920 0.638137 -0.116840
v 1.745713 0.648048 -0.110000
v 1.745124 0.638066 -0.110000
v 1.744509 0.648119 -0.103160
v 1.743920 0.638137 -0.103160
v 1.741042 0.648324 -0.097144
v 1.740453 0.638341 -0.097144
v 1.735730 0.648637 -0.092680
v 1.735141 0.638654 -0.092680
v 1.729214 0.649022 -0.090304
v 1.728625 0.639039 -0.090304
v 1.722280 0.649431 -0.090304
v 1.721692 0.639448 -0.090304
v 1.715765 0.649815 -0.092680
v 1.715176 0.639832 -0.092680
v 1.710453 0.650128 -0.097144
v 1.709864 0.640146 -0.097144
v 1.806813 0.644444 -0.103160
v 1.806224 0.634462 -0.103160
v 1.805609 0.644515 -0.110000
v 1.805020 0.634533 -0.110000
v 1.806813 0.644444 -0.116840
v 1.806224 0.634462 -0.116840
v 1.810279 0.644240 -0.122856
v 1.809691 0.634257 -0.122856
v 1.815591 0.643926 -0.127320
v 1.815002 0.633944 -0.127320
v 1.822107 0.643542 -0.129696
v 1.821518 0.633559 -0.129696
v 1.829041 0.643133 -0.129696
v 1.828452 0.633150 -0.129696
v 1.835557 0.642749 -0.127320
v 1.834968 0.632766 -0.127320
v 1.840868 0.642435 -0.122856
v 1.840279 0.632453 -0.122856
v 1.844335 0.642231 -0.116840
v 1.843746 0.632248 -0.116840
v 1.845539 0.642160 -0.110000
v 1.844950 0.632177 -0.110000
v 1.844335 0.642231 -0.103160
v 1.843746 0.632248 -0.103160
v 1.840868 0.642435 -0.097144
v 1.840279 0.632453 -0.097144
v 1.835557 0.642749 -0.092680
v 1.834968 0.632766 -0.092680
v 1.829041 0.643133 -0.090304
v 1.828452 0.633150 -0.090304
v 1.822107 0.643542 -0.090304
v 1.821518 0.633559 -0.090304
v 1.815591 0.643926 -0.092680
v 1.815002 0.633944 -0.092680
v 1.810279 0.644240 -0.097144
v 1.809691 0.634257 -0.097144
v 1.607160 0.656221 -0.003160
v 1.606571 0.646239 -0.003160
v 1.605956 0.656292 -0.010000
v 1.605367 0.646309 -0.010000
v 1.607160 0.656221 -0.016840
v 1.606571 0.646239 -0.016840
v 1.610627 0.656017 -0.022856
v 1.610038 0.646034 -0.022856
v 1.615938 0.655703 -0.027321
v 1.615349 0.645721 -0.027321
v 1.622454 0.655319 -0.029696
v 1.621865 0.645336 -0.029696
v 1.629388 0.654910 -0.029696
v 1.628799 0.644927 -0.029696
v 1.635903 0.654526 -0.027321
v 1.635315 0.644543 -0.027321
v 1.641215 0.654212 -0.022856
v 1.640626 0.644230 -0.022856
v 1.644682 0.654008 -0.016840
v 1.644093 0.644025 -0.016840
v 1.645886 0.653937 -0.010000
v 1.645297 0.643954 -0.010000
v 1.644682 0.654008 -0.003160
v 1.644093 0.644025 -0.003160
v 1.641215 0.654212 0.002856
v 1.640626 0.644230 0.002856
v 1.635903 0.654526 0.007321
v 1.635315 0.644543 0.007321
v 1.629388 0.654910 0.009696
v 1.628799 0.644927 0.009696
v 1.622454 0.655319 0.009696
v 1.621865 0.645336 0.009696
v 1.615938 0.655703 0.007321
v 1.615349 0.645721 0.007321
v 1.610627 0.656017 0.002856
v 1.610038 0.646034 0.002856
v 1.706986 0.650333 -0.003160
v 1.706397 0.640350 -0.003160
v 1.705782 0.650404 -0.010000
v 1.705193 0.640421 -0.010000
v 1.706986 0.650333 -0.016840
v 1.706397 0.640350 -0.016840
v 1.710453 0.650128 -0.022856
v 1.709864 0.640146 -0.022856
v 1.715765 0.649815 -0.027321
v 1.715176 0.639832 -0.027321
v 1.722280 0.649431 -0.029696
v 1.721692 0.639448 -0.029696
v 1.729214 0.649022 -0.029696
v 1.728625 0.639039 -0.029696
v 1.735730 0.648637 -0.027321
v 1.735141 0.638654 -0.027321
v 1.741042 0.648324 -0.022856
v 1.740453 0.638341 -0.022856
v 1.744509 0.648119 -0.016840
v 1.743920 0.638137 -0.016840
v 1.745713 0.648048 -0.010000
v 1.745124 0.638066 -0.010000
v 1.744509 0.648119 -0.003160
v 1.743920 0.638137 -0.003160
v 1.741042 0.648324 0.002856
v 1.740453 0.638341 0.002856
v 1.735730 0.648637 0.007321
v 1.735141 0.638654 0.007321
v 1.729214 0.649022 0.009696
v 1.728625 0.639039 0.009696
v 1.722280 0.649431 0.009696
v 1.721692 0.639448 0.009696
v 1.715765 0.649815 0.007321
v 1.715176 0.639832 0.007321
v 1.710453 0.650128 0.002856
v 1.709864 0.640146 0.002856
v 1.806813 0.644444 -0.003160
v 1.806224 0.634462 -0.003160
v 1.805609 0.644515 -0.010000
v 1.805020 0.634533 -0.010000
v 1.806813 0.644444 -0.016840
v 1.806224 0.634462 -0.016840
v 1.810279 0.644240 -0.022856
v 1.809691 0.634257 -0.022856
v 1.815591 0.643926 -0.027321
v 1.815002 0.633944 -0.027321
v 1.822107 0.643542 -0.029696
v 1.821518 0.633559 -0.029696
v 1.829041 0.643133 -0.029696
v 1.828452 0.633150 -0.029696
v 1.835557 0.642749 -0.027321
v 1.834968 0.632766 -0.027321
v 1.840868 0.642435 -0.022856
v 1.840279 0.632453 -0.022856
v 1.844335 0.642231 -0.016840
v 1.843746 0.632248 -0.016840
v 1.845539 0.642160 -0.010000
v 1.844950 0.632177 -0.010000
v 1.844335 0.642231 -0.003160
v 1.843746 0.632248 -0.003160
v 1.840868 0.642435 0.002856
v 1.840279 0.632453 0.002856
v 1.835557 0.642749 0.007321
v 1.834968 0.632766 0.007321
v 1.829041 0.643133 0.009696
v 1.828452 0.633150 0.009696
v 1.822107 0.643542 0.009696
v 1.821518 0.633559 0.009696
v 1.815591 0.643926 0.007321
v 1.815002 0.633944 0.007321
v 1.810279 0.644240 0.002856
v 1.809691 0.634257 0.002856
v 1.874898 0.630411 0.020000
v 1.874898 0.630411 -0.180000
v 1.898452 1.029716 0.020000
v 1.898452 1.029716 -0.180000
v 1.375766 0.659853 0.020000
v 1.399320 1.059159 0.020000
v 1.375766 0.659853 -0.180000
v 1.399320 1.059159 -0.180000
vn 0.9831 -0.0580 -0.1737
vn 0.9831 -0.0580 -0.1736
vn 0.9831 -0.0580 0.1737
vn 0.9831 -0.0580 0.1736
vn 0.8645 -0.0510 0.5000
vn 0.6417 -0.0379 0.7661
vn 0.6417 -0.0378 0.7661
vn 0.3415 -0.0201 0.9397
vn -0.0000 -0.0000 1.0000
vn -0.3415 0.0202 0.9397
vn -0.3415 0.0201 0.9397
vn -0.6416 0.0378 0.7661
vn -0.6417 0.0378 0.7661
vn -0.8645 0.0510 0.5000
vn -0.9831 0.0580 0.1736
vn -0.9831 0.0580 0.1737
vn -0.9831 0.0580 -0.1736
vn -0.9831 0.0580 -0.1737
vn -0.8645 0.0510 -0.5000
vn -0.6416 0.0379 -0.7661
vn -0.6417 0.0378 -0.7661
vn -0.3412 0.0201 -0.9398
vn -0.3415 0.0201 -0.9397
vn -0.0000 -0.0000 -1.0000
vn 0.3415 -0.0201 -0.9397
vn 0.6417 -0.0378 -0.7661
vn 0.6417 -0.0379 -0.7661
vn 0.8645 -0.0510 -0.5000
vn -0.0589 -0.9983 -0.0000
vn -0.0589 -0.9983 0.0001
vn -0.0589 -0.9983 -0.0001
vn -0.0589 -0.9983 0.0002
vn -0.0589 -0.9983 -0.0002
vn 0.6416 -0.0379 0.7661
vn -0.3414 0.0202 0.9397
vn -0.6416 0.0379 0.7661
vn -0.6418 0.0380 0.7659
vn -0.6416 0.0378 -0.7661
vn -0.3415 0.0202 -0.9397
vn 0.3415 -0.0202 -0.9397
vn 0.6416 -0.0378 -0.7661
vn 0.6416 -0.0379 -0.7661
vn 0.8646 -0.0510 0.4999
vn 0.8645 -0.0509 0.5000
vn 0.6416 -0.0378 0.7661
vn 0.3415 -0.0202 0.9397
vn -0.6417 0.0379 0.7661
vn -0.6417 0.0379 -0.7661
vn 0.8646 -0.0509 -0.4999
vn -0.0588 -0.9983 0.0002
vn -0.0588 -0.9983 0.0001
vn -0.0588 -0.9983 -0.0000
vn 0.6417 -0.0379 0.7660
vn 0.3413 -0.0201 0.9397
vn -0.3414 0.0201 0.9397
vn -0.3413 0.0201 0.9397
vn -0.6416 0.0381 0.7661
vn -0.6417 0.0379 0.7660
vn -0.6417 0.0379 -0.7660
vn -0.6417 0.0378 -0.7660
vn -0.3414 0.0201 -0.9397
vn -0.3413 0.0201 -0.9397
vn 0.3413 -0.0201 -0.9397
vn 0.6417 -0.0379 -0.7660
vn 0.3414 -0.0201 0.9397
vn -0.6417 0.0378 0.7660
vn 0.3414 -0.0201 -0.9397
vn 0.3413 -0.0202 0.9397
vn -0.3413 0.0202 0.9397
vn 0.6417 -0.0378 -0.7660
vn 0.9983 -0.0589 -0.0000
vn -0.9983 0.0589 -0.0000
vn -0.0588 -0.9983 -0.0001
vn -0.0590 -0.9983 -0.0000
vn -0.0589 -0.9983 -0.0003
vn -0.0589 -0.9983 0.0003
vn 0.0589 0.9983 -0.0000
s 0
f 1//1 2//1 3//1
f 3//2 2//2 4//2
f 3//3 4//3 5//3
f 5//4 4//4 6//4
f 5//5 6//5 7//5
f 7//5 6//5 8//5
f 7//6 8//6 9//6
f 9//7 8//7 10//7
f 9//8 10//8 11//8
f 11//8 10//8 12//8
f 11//9 12//9 13//9
f 13//9 12//9 14//9
f 13//10 14//10 15//10
f 15//11 14//11 16//11
f 15//12 16//12 17//12
f 17//13 16//13 18//13
f 17//14 18//14 19//14
f 19//14 18//14 20//14
f 19//15 20//15 21//15
f 21//16 20//16 22//16
f 21//17 22//17 23//17
f 23//18 22//18 24//18
f 23//19 24//19 25//19
f 25//19 24//19 26//19
f 25//20 26//20 27//20
f 27//21 26//21 28//21
f 27//22 28//22 29//22
f 29//23 28//23 30//23
f 29//24 30//24 31//24
f 31//24 30//24 32//24
f 31//25 32//25 33//25
f 33//25 32//25 34//25
f 33//26 34//26 35//26
f 35//27 34//27 36//27
f 35//28 36//28 1//28
f 1//28 36//28 2//28
f 5//29 19//29 3//29
f 3//29 19//29 21//29
f 3//29 21//29 1//29
f 1//29 21//29 23//29
f 1//30 23//30 35//30
f 35//31 23//31 25//31
f 35//31 25//31 33//31
f 33//32 25//32 27//32
f 33//29 27//29 31//29
f 31//31 27//31 29//31
f 19//30 5//30 17//30
f 17//31 5//31 7//31
f 17//31 7//31 15//31
f 15//32 7//32 9//32
f 15//30 9//30 13//30
f 13//33 9//33 11//33
f 37//2 38//2 39//2
f 39//1 38//1 40//1
f 39//4 40//4 41//4
f 41//3 40//3 42//3
f 41//5 42//5 43//5
f 43//5 42//5 44//5
f 43//34 44//34 45//34
f 45//34 44//34 46//34
f 45//8 46//8 47//8
f 47//8 46//8 48//8
f 47//9 48//9 49//9
f 49//9 48//9 50//9
f 49//35 50//35 51//35
f 51//11 50//11 52//11
f 51//36 52//36 53//36
f 53//37 52//37 54//37
f 53//14 54//14 55//14
f 55//14 54//14 56//14
f 55//15 56//15 57//15
f 57//16 56//16 58//16
f 57//18 58//18 59//18
f 59//18 58//18 60//18
f 59//19 60//19 61//19
f 61//19 60//19 62//19
f 61//20 62//20 63//20
f 63//38 62//38 64//38
f 63//39 64//39 65//39
f 65//23 64//23 66//23
f 65//24 66//24 67//24
f 67//24 66//24 68//24
f 67//25 68//25 69//25
f 69//40 68//40 70//40
f 69//41 70//41 71//41
f 71//42 70//42 72//42
f 71//28 72//28 37//28
f 37//28 72//28 38//28
f 41//29 55//29 39//29
f 39//29 55//29 57//29
f 39//29 57//29 37//29
f 37//29 57//29 59//29
f 37//29 59//29 71//29
f 71//30 59//30 61//30
f 71//30 61//30 69//30
f 69//31 61//31 63//31
f 69//32 63//32 67//32
f 67//32 63//32 65//32
f 55//31 41//31 53//31
f 53//30 41//30 43//30
f 53//30 43//30 51//30
f 51//31 43//31 45//31
f 51//33 45//33 49//33
f 49//33 45//33 47//33
f 73//1 74//1 75//1
f 75//1 74//1 76//1
f 75//3 76//3 77//3
f 77//3 76//3 78//3
f 77//43 78//43 79//43
f 79//44 78//44 80//44
f 79//45 80//45 81//45
f 81//7 80//7 82//7
f 81//46 82//46 83//46
f 83//8 82//8 84//8
f 83//9 84//9 85//9
f 85//9 84//9 86//9
f 85//11 86//11 87//11
f 87//10 86//10 88//10
f 87//13 88//13 89//13
f 89//47 88//47 90//47
f 89//14 90//14 91//14
f 91//14 90//14 92//14
f 91//16 92//16 93//16
f 93//16 92//16 94//16
f 93//18 94//18 95//18
f 95//17 94//17 96//17
f 95//19 96//19 97//19
f 97//19 96//19 98//19
f 97//48 98//48 99//48
f 99//48 98//48 100//48
f 99//39 100//39 101//39
f 101//39 100//39 102//39
f 101//24 102//24 103//24
f 103//24 102//24 104//24
f 103//40 104//40 105//40
f 105//25 104//25 106//25
f 105//42 106//42 107//42
f 107//26 106//26 108//26
f 107//49 108//49 73//49
f 73//28 108//28 74//28
f 77//29 91//29 75//29
f 75//29 91//29 93//29
f 75//29 93//29 73//29
f 73//29 93//29 95//29
f 73//30 95//30 107//30
f 107//31 95//31 97//31
f 107//31 97//31 105//31
f 105//50 97//50 99//50
f 105//51 99//51 103//51
f 103//33 99//33 101//33
f 91//30 77//30 89//30
f 89//31 77//31 79//31
f 89//33 79//33 87//33
f 87//50 79//50 81//50
f 87//52 81//52 85//52
f 85//31 81//31 83//31
f 109//1 110//1 111//1
f 111//2 110//2 112//2
f 111//3 112//3 113//3
f 113//4 112//4 114//4
f 113//5 114//5 115//5
f 115//5 114//5 116//5
f 115//53 116//53 117//53
f 117//53 116//53 118//53
f 117//54 118//54 119//54
f 119//54 118//54 120//54
f 119//9 120//9 121//9
f 121//9 120//9 122//9
f 121//55 122//55 123//55
f 123//56 122//56 124//56
f 123//57 124//57 125//57
f 125//58 124//58 126//58
f 125//14 126//14 127//14
f 127//14 126//14 128//14
f 127//15 128//15 129//15
f 129//16 128//16 130//16
f 129//17 130//17 131//17
f 131//18 130//18 132//18
f 131//19 132//19 133//19
f 133//19 132//19 134//19
f 133//59 134//59 135//59
f 135//60 134//60 136//60
f 135//61 136//61 137//61
f 137//62 136//62 138//62
f 137//24 138//24 139//24
f 139//24 138//24 140//24
f 139//63 140//63 141//63
f 141//63 140//63 142//63
f 141//64 142//64 143//64
f 143//64 142//64 144//64
f 143//28 144//28 109//28
f 109//28 144//28 110//28
f 113//29 127//29 111//29
f 111//29 127//29 129//29
f 111//29 129//29 109//29
f 109//29 129//29 131//29
f 109//30 131//30 143//30
f 143//31 131//31 133//31
f 143//31 133//31 141//31
f 141//33 133//33 135//33
f 141//29 135//29 139//29
f 139//31 135//31 137//31
f 127//30 113//30 125//30
f 125//31 113//31 115//31
f 125//31 115//31 123//31
f 123//31 115//31 117//31
f 123//30 117//30 121//30
f 121//33 117//33 119//33
f 145//2 146//2 147//2
f 147//1 146//1 148//1
f 147//4 148//4 149//4
f 149//3 148//3 150//3
f 149//5 150//5 151//5
f 151//5 150//5 152//5
f 151//53 152//53 153//53
f 153//6 152//6 154//6
f 153//65 154//65 155//65
f 155//54 154//54 156//54
f 155//9 156//9 157//9
f 157//9 156//9 158//9
f 157//56 158//56 159//56
f 159//56 158//56 160//56
f 159//58 160//58 161//58
f 161//66 160//66 162//66
f 161//14 162//14 163//14
f 163//14 162//14 164//14
f 163//15 164//15 165//15
f 165//16 164//16 166//16
f 165//18 166//18 167//18
f 167//18 166//18 168//18
f 167//19 168//19 169//19
f 169//19 168//19 170//19
f 169//59 170//59 171//59
f 171//60 170//60 172//60
f 171//62 172//62 173//62
f 173//62 172//62 174//62
f 173//24 174//24 175//24
f 175//24 174//24 176//24
f 175//67 176//67 177//67
f 177//63 176//63 178//63
f 177//64 178//64 179//64
f 179//64 178//64 180//64
f 179//28 180//28 145//28
f 145//28 180//28 146//28
f 149//29 163//29 147//29
f 147//29 163//29 165//29
f 147//29 165//29 145//29
f 145//29 165//29 167//29
f 145//29 167//29 179//29
f 179//30 167//30 169//30
f 179//30 169//30 177//30
f 177//31 169//31 171//31
f 177//32 171//32 175//32
f 175//32 171//32 173//32
f 163//31 149//31 161//31
f 161//30 149//30 151//30
f 161//30 151//30 159//30
f 159//31 151//31 153//31
f 159//33 153//33 157//33
f 157//33 153//33 155//33
f 181//1 182//1 183//1
f 183//1 182//1 184//1
f 183//3 184//3 185//3
f 185//3 184//3 186//3
f 185//43 186//43 187//43
f 187//44 186//44 188//44
f 187//7 188//7 189//7
f 189//53 188//53 190//53
f 189//68 190//68 191//68
f 191//54 190//54 192//54
f 191//9 192//9 193//9
f 193//9 192//9 194//9
f 193//56 194//56 195//56
f 195//69 194//69 196//69
f 195//66 196//66 197//66
f 197//58 196//58 198//58
f 197//14 198//14 199//14
f 199//14 198//14 200//14
f 199//15 200//15 201//15
f 201//15 200//15 202//15
f 201//18 202//18 203//18
f 203//17 202//17 204//17
f 203//19 204//19 205//19
f 205//19 204//19 206//19
f 205//59 206//59 207//59
f 207//59 206//59 208//59
f 207//62 208//62 209//62
f 209//62 208//62 210//62
f 209//24 210//24 211//24
f 211//24 210//24 212//24
f 211//63 212//63 213//63
f 213//63 212//63 214//63
f 213//64 214//64 215//64
f 215//70 214//70 216//70
f 215//49 216//49 181//49
f 181//28 216//28 182//28
f 185//29 199//29 183//29
f 183//29 199//29 201//29
f 183//29 201//29 181//29
f 181//29 201//29 203//29
f 181//30 203//30 215//30
f 215//31 203//31 205//31
f 215//31 205//31 213//31
f 213//50 205//50 207//50
f 213//51 207//51 211//51
f 211//33 207//33 209//33
f 199//30 185//30 197//30
f 197//31 185//31 187//31
f 197//33 187//33 195//33
f 195//50 187//50 189//50
f 195//52 189//52 193//52
f 193//31 189//31 191//31
f 217//71 218//71 219//71
f 219//71 218//71 220//71
f 221//9 217//9 222//9
f 222//9 217//9 219//9
f 223//72 221//72 224//72
f 224//72 221//72 222//72
f 218//24 223//24 220//24
f 220//24 223//24 224//24
f 6//73 4//73 223//73
f 223//32 4//32 2//32
f 223//29 2//29 221//29
f 221//31 2//31 36//31
f 221//29 36//29 116//29
f 116//52 36//52 118//52
f 118//52 36//52 34//52
f 118//74 34//74 120//74
f 120//74 34//74 32//74
f 120//29 32//29 30//29
f 28//31 70//31 30//31
f 30//30 70//30 68//30
f 30//29 68//29 122//29
f 122//29 68//29 156//29
f 122//32 156//32 124//32
f 124//33 156//33 154//33
f 124//30 154//30 126//30
f 126//32 154//32 152//32
f 126//31 152//31 128//31
f 128//31 152//31 150//31
f 128//29 150//29 130//29
f 130//29 150//29 148//29
f 130//29 148//29 132//29
f 132//29 148//29 146//29
f 132//30 146//30 134//30
f 134//30 146//30 180//30
f 134//31 180//31 136//31
f 136//31 180//31 178//31
f 136//31 178//31 138//31
f 138//30 178//30 176//30
f 138//31 176//31 217//31
f 217//29 176//29 174//29
f 217//30 174//30 212//30
f 212//33 174//33 214//33
f 214//31 174//31 172//31
f 214//30 172//30 216//30
f 216//31 172//31 170//31
f 216//31 170//31 182//31
f 182//31 170//31 168//31
f 182//29 168//29 184//29
f 184//29 168//29 166//29
f 184//29 166//29 186//29
f 186//29 166//29 164//29
f 186//30 164//30 188//30
f 188//30 164//30 162//30
f 188//29 162//29 190//29
f 190//29 162//29 160//29
f 190//29 160//29 192//29
f 192//75 160//75 158//75
f 192//29 158//29 104//29
f 104//29 158//29 66//29
f 104//33 66//33 106//33
f 106//76 66//76 64//76
f 106//30 64//30 108//30
f 108//31 64//31 62//31
f 108//31 62//31 74//31
f 74//31 62//31 60//31
f 74//29 60//29 76//29
f 76//29 60//29 58//29
f 76//29 58//29 78//29
f 78//29 58//29 56//29
f 78//30 56//30 80//30
f 80//30 56//30 54//30
f 80//29 54//29 82//29
f 82//29 54//29 52//29
f 82//76 52//76 84//76
f 84//75 52//75 50//75
f 84//29 50//29 218//29
f 218//31 50//31 48//31
f 218//29 48//29 14//29
f 14//32 48//32 16//32
f 16//33 48//33 46//33
f 16//30 46//30 18//30
f 18//32 46//32 44//32
f 18//31 44//31 20//31
f 20//31 44//31 42//31
f 20//29 42//29 22//29
f 22//29 42//29 40//29
f 22//29 40//29 24//29
f 24//29 40//29 38//29
f 24//30 38//30 26//30
f 26//30 38//30 72//30
f 26//31 72//31 28//31
f 28//31 72//31 70//31
f 14//29 12//29 218//29
f 218//29 12//29 223//29
f 223//32 12//32 10//32
f 223//29 10//29 8//29
f 8//30 6//30 223//30
f 68//29 66//29 156//29
f 156//29 66//29 158//29
f 104//29 102//29 192//29
f 192//29 102//29 194//29
f 194//52 102//52 196//52
f 196//52 102//52 100//52
f 196//52 100//52 198//52
f 198//52 100//52 98//52
f 198//74 98//74 96//74
f 94//29 217//29 96//29
f 96//29 217//29 200//29
f 96//74 200//74 198//74
f 217//29 94//29 218//29
f 218//29 94//29 92//29
f 218//74 92//74 90//74
f 90//52 88//52 218//52
f 218//52 88//52 86//52
f 218//29 86//29 84//29
f 114//33 112//33 221//33
f 221//30 112//30 110//30
f 221//31 110//31 144//31
f 144//30 142//30 221//30
f 221//75 142//75 140//75
f 221//32 140//32 138//32
f 122//29 120//29 30//29
f 116//30 114//30 221//30
f 212//30 210//30 217//30
f 217//31 210//31 208//31
f 217//29 208//29 206//29
f 206//30 204//30 217//30
f 217//29 204//29 202//29
f 217//29 202//29 200//29
f 217//30 221//30 138//30
f 220//77 224//77 219//77
f 219//77 224//77 222//77
o Cube.001
v -1.000000 0.914938 0.007396
v -1.000000 0.914938 -1.009233
v -1.000000 -0.914938 0.007396
v -1.000000 -0.914938 -1.009233
v 1.000000 0.914938 0.007396
v 1.000000 0.914938 -1.009233
v 1.000000 -0.914938 0.007396
v 1.000000 -0.914938 -1.009233
vn -1.0000 -0.0000 -0.0000
vn -0.0000 -1.0000 -0.0000
vn 1.0000 -0.0000 -0.0000
vn -0.0000 1.0000 -0.0000
vn -0.0000 -0.0000 1.0000
vn -0.0000 -0.0000 -1.0000
s 0
f 226//78 227//78 225//78
f 228//79 231//79 227//79
f 232//80 229//80 231//80
f 230//81 225//81 229//81
f 231//82 225//82 227//82
f 228//83 230//83 232//83
f 226//78 228//78 227//78
f 228//79 232//79 231//79
f 232//80 230//80 229//80
f 230//81 226//81 225//81
f 231//82 229//82 225//82
f 228//83 226//83 230//83
o Cube.002
v 1.759205 0.637450 0.008299
v 1.759205 0.637450 -0.076345
v 1.759205 -0.427121 0.008299
v 1.759205 -0.427121 -0.076345
v 1.821705 0.637450 0.008299
v 1.821705 0.637450 -0.076345
v 1.821705 -0.427121 0.008299
v 1.821705 -0.427121 -0.076345
vn -1.0000 -0.0000 -0.0000
vn -0.0000 -1.0000 -0.0000
vn 1.0000 -0.0000 -0.0000
vn -0.0000 1.0000 -0.0000
vn -0.0000 -0.0000 1.0000
vn -0.0000 -0.0000 -1.0000
s 0
f 234//84 235//84 233//84
f 236//85 239//85 235//85
f 240//86 237//86 239//86
f 238//87 233//87 237//87
f 239//88 233//88 235//88
f 236//89 238//89 240//89
f 234//84 236//84 235//84
f 236//85 240//85 239//85
f 240//86 238//86 237//86
f 238//87 234//87 233//87
f 239//88 237//88 233//88
f 236//89 234//89 238//89
o Cube.003
v 1.817105 -0.805679 -0.261724
v 1.858153 -0.805679 -0.317572
v 1.281363 -0.805679 -0.655493
v 1.322412 -0.805679 -0.711341
v 1.817105 -0.868179 -0.261724
v 1.858153 -0.868179 -0.317572
v 1.281363 -0.868179 -0.655493
v 1.322412 -0.868179 -0.711341
vn -0.0000 1.0000 -0.0000
vn -0.8058 -0.0000 -0.5922
vn -0.0000 -1.0000 -0.0000
vn 0.8058 -0.0000 0.5922
vn -0.5922 -0.0000 0.8058
vn 0.5922 -0.0000 -0.8058
s 0
f 241//90 244//90 243//90
f 244//91 247//91 243//91
f 248//92 245//92 247//92
f 246//93 241//93 245//93
f 247//94 241//94 243//94
f 244//95 246//95 248//95
f 241//90 242//90 244//90
f 244//91 248//91 247//91
f 248//92 246//92 245//92
f 246//93 242//93 241//93
f 247//94 245//94 241//94
f 244//95 242//95 246//95
o Cube.004
v 0.339458 -0.587379 -1.115500
v 0.357760 -0.619078 -1.078897
v 0.364458 -0.630681 -1.028898
v 0.357760 -0.619078 -0.978898
v 0.339458 -0.587379 -0.942295
v 0.357760 -0.569078 -1.115500
v 0.389458 -0.587379 -1.078897
v 0.401061 -0.594078 -1.028898
v 0.389458 -0.587379 -0.978898
v 0.357760 -0.569078 -0.942295
v 0.364458 -0.544078 -1.115500
v 0.401061 -0.544078 -1.078897
v 0.414458 -0.544078 -1.028898
v 0.401061 -0.544078 -0.978898
v 0.364458 -0.544078 -0.942295
v 0.357760 -0.519078 -1.115500
v 0.389458 -0.500777 -1.078897
v 0.401061 -0.494078 -1.028898
v 0.389458 -0.500777 -0.978898
v 0.357760 -0.519078 -0.942295
v 0.339458 -0.500777 -1.115500
v 0.357760 -0.469078 -1.078897
v 0.364458 -0.457475 -1.028898
v 0.357760 -0.469078 -0.978898
v 0.339458 -0.500777 -0.942295
v 0.314458 -0.494078 -1.115500
v 0.314458 -0.457475 -1.078897
v 0.314458 -0.444078 -1.028898
v 0.314458 -0.457475 -0.978898
v 0.314458 -0.494078 -0.942295
v 0.314458 -0.544078 -0.928898
v 0.289458 -0.500777 -1.115500
v 0.271157 -0.469078 -1.078897
v 0.264458 -0.457475 -1.028898
v 0.271157 -0.469078 -0.978898
v 0.289458 -0.500777 -0.942295
v 0.314458 -0.544078 -1.128897
v 0.271157 -0.519078 -1.115500
v 0.239458 -0.500777 -1.078897
v 0.227856 -0.494078 -1.028898
v 0.239458 -0.500777 -0.978898
v 0.271157 -0.519078 -0.942295
v 0.264458 -0.544078 -1.115500
v 0.227856 -0.544078 -1.078897
v 0.214458 -0.544078 -1.028898
v 0.227856 -0.544078 -0.978898
v 0.264458 -0.544078 -0.942295
v 0.271157 -0.569078 -1.115500
v 0.239458 -0.587379 -1.078897
v 0.227856 -0.594078 -1.028898
v 0.239458 -0.587379 -0.978898
v 0.271157 -0.569078 -0.942295
v 0.289458 -0.587379 -1.115500
v 0.271157 -0.619078 -1.078897
v 0.264458 -0.630681 -1.028898
v 0.271157 -0.619078 -0.978898
v 0.289458 -0.587379 -0.942295
v 0.314458 -0.594078 -1.115500
v 0.314458 -0.630681 -1.078897
v 0.314458 -0.644078 -1.028898
v 0.314458 -0.630681 -0.978898
v 0.314458 -0.594078 -0.942295
vn 0.1862 -0.6947 0.6947
vn 0.2506 -0.9351 -0.2506
vn 0.0692 -0.2582 -0.9636
vn 0.0692 -0.2582 0.9636
vn 0.2506 -0.9351 0.2506
vn 0.1862 -0.6947 -0.6947
vn 0.5086 -0.5086 0.6948
vn 0.6846 -0.6845 -0.2506
vn 0.1890 -0.1890 -0.9636
vn 0.1890 -0.1890 0.9636
vn 0.6846 -0.6845 0.2506
vn 0.5086 -0.5086 -0.6947
vn 0.9351 -0.2506 -0.2506
vn 0.2582 -0.0692 -0.9636
vn 0.2582 -0.0692 0.9636
vn 0.9351 -0.2506 0.2506
vn 0.6948 -0.1862 -0.6947
vn 0.6947 -0.1861 0.6948
vn 0.2582 0.0692 -0.9636
vn 0.2582 0.0692 0.9636
vn 0.9351 0.2506 0.2506
vn 0.6948 0.1862 -0.6947
vn 0.6947 0.1861 0.6948
vn 0.9351 0.2506 -0.2506
vn 0.1890 0.1890 0.9636
vn 0.6846 0.6845 0.2506
vn 0.5086 0.5086 -0.6947
vn 0.5086 0.5086 0.6948
vn 0.6845 0.6846 -0.2506
vn 0.1890 0.1890 -0.9636
vn 0.0692 0.2582 0.9636
vn 0.2506 0.9351 0.2506
vn 0.1862 0.6947 -0.6947
vn 0.1862 0.6947 0.6947
vn 0.2506 0.9351 -0.2506
vn 0.0692 0.2582 -0.9636
vn -0.0692 0.2582 0.9636
vn -0.2506 0.9351 0.2506
vn -0.1862 0.6947 -0.6947
vn -0.1862 0.6947 0.6947
vn -0.2506 0.9351 -0.2506
vn -0.0692 0.2582 -0.9636
vn -0.6846 0.6846 0.2506
vn -0.5086 0.5086 -0.6947
vn -0.5086 0.5086 0.6947
vn -0.6846 0.6845 -0.2506
vn -0.1890 0.1890 -0.9636
vn -0.1890 0.1890 0.9636
vn -0.6948 0.1862 -0.6947
vn -0.6947 0.1862 0.6947
vn -0.9351 0.2506 -0.2506
vn -0.2582 0.0692 -0.9636
vn -0.2582 0.0692 0.9636
vn -0.9351 0.2506 0.2506
vn -0.6947 -0.1862 0.6947
vn -0.9351 -0.2506 -0.2506
vn -0.2582 -0.0692 -0.9636
vn -0.2582 -0.0692 0.9636
vn -0.9351 -0.2506 0.2506
vn -0.6948 -0.1862 -0.6947
vn -0.5086 -0.5086 0.6947
vn -0.6846 -0.6845 -0.2506
vn -0.1890 -0.1890 -0.9636
vn -0.1890 -0.1890 0.9636
vn -0.6846 -0.6846 0.2506
vn -0.5086 -0.5086 -0.6947
vn -0.1862 -0.6947 0.6947
vn -0.2506 -0.9351 -0.2506
vn -0.0692 -0.2582 -0.9636
vn -0.0692 -0.2582 0.9636
vn -0.2506 -0.9351 0.2506
vn -0.1862 -0.6947 -0.6947
vn 0.5086 -0.5086 0.6947
vn 0.6846 -0.6846 0.2506
vn 0.5086 -0.5086 -0.6948
vn 0.6947 -0.1861 -0.6947
vn 0.6948 -0.1862 0.6947
vn 0.6947 0.1861 -0.6948
vn 0.6948 0.1862 0.6947
vn 0.6846 0.6846 0.2506
vn 0.5086 0.5086 -0.6948
vn 0.5086 0.5086 0.6947
vn 0.6846 0.6845 -0.2506
vn -0.6846 0.6845 0.2506
vn -0.6845 0.6846 -0.2506
vn -0.6947 0.1862 -0.6947
vn -0.6948 0.1862 0.6947
vn -0.6948 -0.1862 0.6947
vn -0.6947 -0.1862 -0.6947
vn -0.6846 -0.6845 0.2506
s 0
f 310//96 252//96 253//96
f 307//97 251//97 308//97
f 306//98 285//98 249//98
f 279//99 310//99 253//99
f 309//100 251//100 252//100
f 306//101 250//101 307//101
f 252//102 258//102 253//102
f 250//103 256//103 251//103
f 249//104 285//104 254//104
f 279//105 253//105 258//105
f 252//106 256//106 257//106
f 250//107 254//107 255//107
f 255//108 261//108 256//108
f 254//109 285//109 259//109
f 279//110 258//110 263//110
f 257//111 261//111 262//111
f 254//112 260//112 255//112
f 258//113 262//113 263//113
f 259//114 285//114 264//114
f 279//115 263//115 268//115
f 261//116 267//116 262//116
f 260//117 264//117 265//117
f 262//118 268//118 263//118
f 261//119 265//119 266//119
f 279//120 268//120 273//120
f 266//121 272//121 267//121
f 264//122 270//122 265//122
f 268//123 272//123 273//123
f 266//124 270//124 271//124
f 264//125 285//125 269//125
f 279//126 273//126 278//126
f 271//127 277//127 272//127
f 270//128 274//128 275//128
f 272//129 278//129 273//129
f 271//130 275//130 276//130
f 269//131 285//131 274//131
f 279//132 278//132 284//132
f 276//133 283//133 277//133
f 274//134 281//134 275//134
f 278//135 283//135 284//135
f 276//136 281//136 282//136
f 274//137 285//137 280//137
f 283//138 288//138 289//138
f 280//139 287//139 281//139
f 283//140 290//140 284//140
f 281//141 288//141 282//141
f 280//142 285//142 286//142
f 279//143 284//143 290//143
f 287//144 291//144 292//144
f 289//145 295//145 290//145
f 287//146 293//146 288//146
f 286//147 285//147 291//147
f 279//148 290//148 295//148
f 289//149 293//149 294//149
f 295//150 299//150 300//150
f 293//151 297//151 298//151
f 291//152 285//152 296//152
f 279//153 295//153 300//153
f 293//154 299//154 294//154
f 291//155 297//155 292//155
f 300//156 304//156 305//156
f 298//157 302//157 303//157
f 296//158 285//158 301//158
f 279//159 300//159 305//159
f 298//160 304//160 299//160
f 296//161 302//161 297//161
f 304//162 310//162 305//162
f 302//163 308//163 303//163
f 301//164 285//164 306//164
f 279//165 305//165 310//165
f 304//166 308//166 309//166
f 302//167 306//167 307//167
f 310//96 309//96 252//96
f 307//97 250//97 251//97
f 309//100 308//100 251//100
f 306//101 249//101 250//101
f 252//168 257//168 258//168
f 250//103 255//103 256//103
f 252//169 251//169 256//169
f 250//170 249//170 254//170
f 255//108 260//108 261//108
f 257//111 256//111 261//111
f 254//171 259//171 260//171
f 258//172 257//172 262//172
f 261//116 266//116 267//116
f 260//173 259//173 264//173
f 262//174 267//174 268//174
f 261//119 260//119 265//119
f 266//175 271//175 272//175
f 264//176 269//176 270//176
f 268//177 267//177 272//177
f 266//178 265//178 270//178
f 271//127 276//127 277//127
f 270//128 269//128 274//128
f 272//129 277//129 278//129
f 271//130 270//130 275//130
f 276//133 282//133 283//133
f 274//134 280//134 281//134
f 278//135 277//135 283//135
f 276//136 275//136 281//136
f 283//179 282//179 288//179
f 280//139 286//139 287//139
f 283//140 289//140 290//140
f 281//180 287//180 288//180
f 287//181 286//181 291//181
f 289//182 294//182 295//182
f 287//146 292//146 293//146
f 289//149 288//149 293//149
f 295//183 294//183 299//183
f 293//151 292//151 297//151
f 293//154 298//154 299//154
f 291//184 296//184 297//184
f 300//156 299//156 304//156
f 298//157 297//157 302//157
f 298//185 303//185 304//185
f 296//161 301//161 302//161
f 304//162 309//162 310//162
f 302//163 307//163 308//163
f 304//166 303//166 308//166
f 302//167 301//167 306//167
