# Blender 4.0.2
# www.blender.org
o bottom
v 0.500000 -0.500000 0.270000
v 0.500000 -0.500000 0.230000
v 0.392474 0.285145 0.242565
v 0.500000 0.500000 0.270000
v -0.149909 0.461379 0.242565
v 0.500000 0.500000 0.230000
v -0.485127 0.000000 0.242565
v -0.149909 -0.461379 0.242565
v -0.500000 -0.500000 0.270000
v 0.392474 -0.285145 0.242565
v -0.500000 -0.500000 0.230000
v -0.500000 0.500000 0.270000
v -0.500000 0.500000 0.230000
v -0.136191 0.419161 0.270000
v -0.440737 0.000000 0.270000
v 0.356561 -0.259054 0.270000
v 0.356561 0.259054 0.270000
v -0.136191 -0.419161 0.270000
v 0.386191 -0.289710 0.230000
v 0.394873 -0.277760 0.230000
v 0.394873 0.277760 0.230000
v -0.156191 0.456814 0.230000
v -0.142143 0.461379 0.230000
v 0.386191 0.289710 0.230000
v -0.142143 -0.461379 0.230000
v -0.156191 -0.456814 0.230000
v -0.482728 0.007385 0.230000
v -0.482728 -0.007385 0.230000
vn 1.0000 -0.0000 -0.0000
vn -0.0000 1.0000 -0.0000
vn -1.0000 -0.0000 -0.0000
vn -0.0000 -1.0000 -0.0000
vn -0.0000 -0.0000 1.0000
vn -0.0000 -0.0000 -1.0000
vn -0.1876 -0.5774 -0.7947
vn -0.6071 -0.0000 -0.7947
vn 0.4911 -0.3568 -0.7947
vn 0.4911 0.3568 -0.7947
vn -0.1876 0.5774 -0.7947
vn -0.9822 -0.0000 -0.1876
vn -0.3035 -0.9342 -0.1876
vn 0.7946 -0.5774 -0.1876
vn 0.7946 0.5774 -0.1876
vn -0.3035 0.9342 -0.1876
vn -0.7946 -0.5774 0.1876
vn 0.3035 -0.9342 0.1876
vn 0.9822 -0.0000 0.1876
vn 0.3035 0.9342 0.1876
vn -0.7946 0.5774 0.1876
vt 0.625000 0.000000
vt 0.375000 0.250000
vt 0.375000 0.000000
vt 0.625000 0.250000
vt 0.375000 0.500000
vt 0.625000 0.500000
vt 0.375000 0.750000
vt 0.625000 0.750000
vt 0.375000 1.000000
vt 0.125000 0.500000
vt 0.160860 0.689763
vt 0.125000 0.750000
vt 0.360184 0.625000
vt 0.284048 0.520210
vt 0.629318 0.626846
vt 0.875000 0.500000
vt 0.875000 0.750000
vt 0.848718 0.555560
vt 0.090910 0.157461
vt 0.264410 0.143053
vt 0.099228 0.143053
vt 0.272728 0.157461
vt 0.446228 0.143053
vt 0.281046 0.143053
vt 0.826500 0.143053
vt 1.000000 0.157461
vt 0.991682 0.143053
vt 0.636364 0.157461
vt 0.809864 0.143053
vt 0.644682 0.143053
vt 0.462864 0.143053
vt 0.454546 0.157461
vt 0.275083 0.161539
vt 0.452191 0.161539
vt 0.270373 0.161539
vt 0.093265 0.161539
vt 0.818182 0.157461
vt 0.997645 0.161539
vt 0.815827 0.161539
vt 0.456901 0.161539
vt 0.634009 0.161539
vt 0.088555 0.161539
vt 0.820537 0.161539
vt 0.638719 0.161539
vt 0.625000 1.000000
vt 0.160860 0.560237
vt 0.284048 0.729790
vt 0.714464 0.740345
vt 0.846548 0.697427
vt 0.846548 0.552572
vt 0.714464 0.509655
vt 0.710952 0.739204
vt 0.710952 0.510796
vt 0.629318 0.623154
vt 0.848718 0.694440
vt 0.628046 0.143053
s 0
f 2/1/1 4/2/1 1/3/1
f 6/4/2 12/5/2 4/2/2
f 13/6/3 9/7/3 12/5/3
f 11/8/4 1/9/4 9/7/4
f 4/10/5 16/11/5 1/12/5
f 12/5/5 15/13/5 14/14/5
f 11/8/6 13/6/6 28/15/6
f 6/16/6 2/17/6 21/18/6
f 5/19/7 17/20/7 14/21/7
f 3/22/8 16/23/8 17/24/8
f 15/25/9 5/26/9 14/27/9
f 8/28/10 15/29/10 18/30/10
f 8/28/11 16/31/11 10/32/11
f 10/32/12 21/33/12 20/34/12
f 24/35/13 5/19/13 23/36/13
f 7/37/14 22/38/14 5/26/14
f 8/28/15 28/39/15 7/37/15
f 8/28/16 19/40/16 25/41/16
f 3/22/17 24/35/17 21/33/17
f 5/19/18 22/42/18 23/36/18
f 7/37/19 28/39/19 27/43/19
f 8/28/20 25/41/20 26/44/20
f 10/32/21 20/34/21 19/40/21
f 2/1/1 6/4/1 4/2/1
f 6/4/2 13/6/2 12/5/2
f 13/6/3 11/8/3 9/7/3
f 11/8/4 2/45/4 1/9/4
f 4/10/5 17/46/5 16/11/5
f 1/12/5 16/11/5 18/47/5
f 9/7/5 1/12/5 18/47/5
f 14/14/5 17/46/5 4/10/5
f 9/7/5 18/47/5 15/13/5
f 14/14/5 4/10/5 12/5/5
f 12/5/5 9/7/5 15/13/5
f 25/48/6 19/49/6 2/17/6
f 6/16/6 24/50/6 23/51/6
f 13/6/6 6/16/6 23/51/6
f 25/48/6 2/17/6 11/8/6
f 26/52/6 25/48/6 11/8/6
f 13/6/6 23/51/6 22/53/6
f 13/6/6 22/53/6 27/54/6
f 28/15/6 26/52/6 11/8/6
f 13/6/6 27/54/6 28/15/6
f 2/17/6 19/49/6 20/55/6
f 21/18/6 24/50/6 6/16/6
f 2/17/6 20/55/6 21/18/6
f 5/19/7 3/22/7 17/20/7
f 3/22/8 10/32/8 16/23/8
f 15/25/9 7/37/9 5/26/9
f 8/28/10 7/37/10 15/29/10
f 8/28/11 18/56/11 16/31/11
f 10/32/12 3/22/12 21/33/12
f 24/35/13 3/22/13 5/19/13
f 7/37/14 27/43/14 22/38/14
f 8/28/15 26/44/15 28/39/15
f 8/28/16 10/32/16 19/40/16
