# Blender 4.0.2
# www.blender.org
o top
v 0.500000 -0.500000 -0.230000
v 0.500000 -0.500000 -0.270000
v 0.500000 0.500000 -0.230000
v 0.500000 0.500000 -0.270000
v -0.500000 -0.500000 -0.230000
v -0.500000 -0.500000 -0.270000
v -0.500000 0.500000 -0.230000
v 0.149909 0.461379 -0.242565
v -0.500000 0.500000 -0.270000
v -0.392474 0.285145 -0.242565
v -0.392474 -0.285145 -0.242565
v 0.149909 -0.461379 -0.242565
v 0.485127 0.000000 -0.242565
v 0.142143 0.461379 -0.230000
v 0.156191 0.456814 -0.230000
v -0.394873 0.277760 -0.230000
v -0.394873 -0.277760 -0.230000
v -0.386191 -0.289710 -0.230000
v -0.386191 0.289710 -0.230000
v 0.482728 -0.007385 -0.230000
v 0.482728 0.007385 -0.230000
v 0.142143 -0.461379 -0.230000
v 0.156191 -0.456814 -0.230000
v 0.440737 0.000000 -0.270000
v 0.136191 0.419161 -0.270000
v 0.136191 -0.419161 -0.270000
v -0.356561 0.259054 -0.270000
v -0.356561 -0.259054 -0.270000
vn 1.0000 -0.0000 -0.0000
vn -0.0000 1.0000 -0.0000
vn -1.0000 -0.0000 -0.0000
vn -0.0000 -1.0000 -0.0000
vn -0.0000 -0.0000 1.0000
vn -0.0000 -0.0000 -1.0000
vn -0.9822 -0.0000 -0.1876
vn -0.3035 -0.9342 -0.1876
vn 0.7946 -0.5774 -0.1876
vn 0.7946 0.5774 -0.1876
vn -0.3035 0.9342 -0.1876
vn -0.7946 -0.5774 0.1876
vn 0.3035 -0.9342 0.1876
vn 0.9822 -0.0000 0.1876
vn 0.3035 0.9342 0.1876
vn -0.7946 0.5774 0.1876
vn -0.4911 -0.3568 0.7947
vn 0.1876 -0.5774 0.7947
vn 0.6071 -0.0000 0.7947
vn 0.1876 0.5774 0.7947
vn -0.4911 0.3568 0.7947
vt 0.625000 0.000000
vt 0.375000 0.250000
vt 0.375000 0.000000
vt 0.625000 0.250000
vt 0.375000 0.500000
vt 0.625000 0.500000
vt 0.375000 0.750000
vt 0.625000 0.750000
vt 0.375000 1.000000
vt 0.348718 0.694440
vt 0.125000 0.750000
vt 0.125000 0.500000
vt 0.129318 0.626846
vt 0.660860 0.689763
vt 0.660860 0.560237
vt 0.875000 0.500000
vt 0.875000 0.750000
vt 0.860184 0.625000
vt 0.361282 0.310843
vt 0.363637 0.314921
vt 0.365992 0.310843
vt 0.179464 0.310843
vt 0.181819 0.314921
vt 0.184174 0.310843
vt 0.911446 0.310843
vt 0.906736 0.310843
vt 0.909091 0.314921
vt 0.729628 0.310843
vt 0.724918 0.310843
vt 0.727273 0.314921
vt 0.547810 0.310843
vt 0.543100 0.310843
vt 0.545455 0.314921
vt 0.002355 0.310843
vt 0.355319 0.329329
vt 0.190137 0.329329
vt 0.008319 0.329329
vt 0.173501 0.329329
vt 0.900773 0.329329
vt 0.718955 0.329329
vt 0.371955 0.329329
vt 0.537137 0.329329
vt 0.625000 1.000000
vt 0.348718 0.555560
vt 0.346548 0.552572
vt 0.346548 0.697427
vt 0.214464 0.509655
vt 0.214464 0.740345
vt 0.210952 0.510796
vt 0.129318 0.623154
vt 0.210952 0.739204
vt 0.784048 0.520210
vt 0.784048 0.729790
vt 0.000000 0.314921
vt 0.735591 0.329329
vt 0.553773 0.329329
s 0
f 2/1/1 3/2/1 1/3/1
f 4/4/2 7/5/2 3/2/2
f 9/6/3 5/7/3 7/5/3
f 6/8/4 1/9/4 5/7/4
f 7/5/5 5/7/5 17/10/5
f 1/11/5 3/12/5 20/13/5
f 28/14/6 9/6/6 27/15/6
f 4/16/6 2/17/6 24/18/6
f 21/19/7 13/20/7 20/21/7
f 14/22/8 8/23/8 15/24/8
f 19/25/9 16/26/9 10/27/9
f 17/28/10 18/29/10 11/30/10
f 22/31/11 23/32/11 12/33/11
f 15/24/12 13/20/12 21/19/12
f 19/34/13 8/23/13 14/22/13
f 10/27/14 17/28/14 11/30/14
f 12/33/15 18/29/15 22/31/15
f 13/20/16 23/32/16 20/21/16
f 24/35/17 8/23/17 25/36/17
f 8/23/18 27/37/18 25/38/18
f 11/30/19 27/39/19 10/27/19
f 12/33/20 28/40/20 11/30/20
f 12/33/21 24/41/21 26/42/21
f 2/1/1 4/4/1 3/2/1
f 4/4/2 9/6/2 7/5/2
f 9/6/3 6/8/3 5/7/3
f 6/8/4 2/43/4 1/9/4
f 16/44/5 19/45/5 7/5/5
f 5/7/5 18/46/5 17/10/5
f 17/10/5 16/44/5 7/5/5
f 7/5/5 19/45/5 14/47/5
f 3/12/5 7/5/5 14/47/5
f 22/48/5 18/46/5 5/7/5
f 22/48/5 5/7/5 1/11/5
f 3/12/5 14/47/5 15/49/5
f 3/12/5 15/49/5 21/50/5
f 23/51/5 22/48/5 1/11/5
f 3/12/5 21/50/5 20/13/5
f 20/13/5 23/51/5 1/11/5
f 28/14/6 6/8/6 9/6/6
f 25/52/6 27/15/6 9/6/6
f 6/8/6 28/14/6 26/53/6
f 2/17/6 6/8/6 26/53/6
f 25/52/6 9/6/6 4/16/6
f 2/17/6 26/53/6 24/18/6
f 24/18/6 25/52/6 4/16/6
f 15/24/12 8/23/12 13/20/12
f 19/34/13 10/54/13 8/23/13
f 10/27/14 16/26/14 17/28/14
f 12/33/15 11/30/15 18/29/15
f 13/20/16 12/33/16 23/32/16
f 24/35/17 13/20/17 8/23/17
f 8/23/18 10/54/18 27/37/18
f 11/30/19 28/55/19 27/39/19
f 12/33/20 26/56/20 28/40/20
f 12/33/21 13/20/21 24/41/21
