# Blender 4.0.2
# www.blender.org
o Icosphere
v 0.063470 0.010686 0.109589
v -0.674602 -0.525549 -0.025733
v 0.345383 -0.856967 -0.025733
v 0.975783 0.010686 -0.025733
v 0.345383 0.878338 -0.025733
v -0.674602 0.546920 -0.025733
v -0.218443 -0.856967 -0.244689
v 0.801542 -0.525549 -0.244689
v 0.801542 0.546920 -0.244689
v -0.218443 0.878338 -0.244689
v -0.848844 0.010686 -0.244689
v 0.063470 0.010686 -0.380011
vn -0.0557 -0.1715 0.9836
vn -0.1803 -0.0000 0.9836
vn 0.1459 -0.1060 0.9836
vn 0.1459 0.1060 0.9836
vn -0.0557 0.1715 0.9836
vn -0.7825 -0.0000 0.6227
vn -0.2418 -0.7442 0.6227
vn 0.6330 -0.4599 0.6227
vn 0.6330 0.4599 0.6227
vn -0.2418 0.7442 0.6227
vn -0.6330 -0.4599 -0.6227
vn 0.2418 -0.7442 -0.6227
vn 0.7825 -0.0000 -0.6227
vn 0.2418 0.7442 -0.6227
vn -0.6330 0.4599 -0.6227
vn -0.1459 -0.1060 -0.9836
vn 0.0557 -0.1715 -0.9836
vn 0.1803 -0.0000 -0.9836
vn 0.0557 0.1715 -0.9836
vn -0.1459 0.1060 -0.9836
vt 0.181819 0.000000
vt 0.272728 0.157461
vt 0.090910 0.157461
vt 0.363637 0.000000
vt 0.454546 0.157461
vt 0.909091 0.000000
vt 1.000000 0.157461
vt 0.818182 0.157461
vt 0.727273 0.000000
vt 0.636364 0.157461
vt 0.545455 0.000000
vt 0.363637 0.314921
vt 0.181819 0.314921
vt 0.909091 0.314921
vt 0.727273 0.314921
vt 0.545455 0.314921
vt 0.000000 0.314921
vt 0.272728 0.472382
vt 0.090910 0.472382
vt 0.818182 0.472382
vt 0.636364 0.472382
vt 0.454546 0.472382
s 0
f 1/1/1 2/2/1 3/3/1
f 2/2/2 1/4/2 6/5/2
f 1/6/3 3/7/3 4/8/3
f 1/9/4 4/8/4 5/10/4
f 1/11/5 5/10/5 6/5/5
f 2/2/6 6/5/6 11/12/6
f 3/3/7 2/2/7 7/13/7
f 4/8/8 3/7/8 8/14/8
f 5/10/9 4/8/9 9/15/9
f 6/5/10 5/10/10 10/16/10
f 2/2/11 11/12/11 7/13/11
f 3/3/12 7/13/12 8/17/12
f 4/8/13 8/14/13 9/15/13
f 5/10/14 9/15/14 10/16/14
f 6/5/15 10/16/15 11/12/15
f 7/13/16 11/12/16 12/18/16
f 8/17/17 7/13/17 12/19/17
f 9/15/18 8/14/18 12/20/18
f 10/16/19 9/15/19 12/21/19
f 11/12/20 10/16/20 12/22/20
