# Blender 4.0.2
# www.blender.org
o base2_phy
v -0.220293 -0.172381 -0.001076
v -0.147147 -0.276862 -0.001076
v -0.147147 -0.276862 -0.117883
v -0.208057 -0.172381 -0.106760
v 0.159606 -0.280570 -0.001076
v 0.220362 -0.149407 -0.001076
v 0.209239 -0.149407 -0.104536
v 0.159606 -0.280570 -0.117883
v 0.222120 0.152608 -0.001076
v 0.161043 0.280633 -0.001076
v 0.161043 0.280633 -0.117883
v 0.210205 0.153932 -0.105166
v -0.151172 0.281189 -0.001076
v -0.224371 0.167671 -0.001076
v -0.212136 0.167671 -0.106760
v -0.151172 0.281189 -0.117883
vn -0.0121 -0.9999 -0.0000
vn -0.0209 0.0317 -0.9993
vn -0.0000 -0.0000 1.0000
vn -0.8639 -0.5036 -0.0000
vn -0.9933 -0.0119 -0.1150
vn 0.9031 -0.4183 -0.0971
vn 0.9323 0.3617 -0.0000
vn 0.9943 -0.0058 -0.1069
vn -0.8810 0.4731 -0.0000
vn 0.0018 1.0000 -0.0000
vn -0.1757 -0.0021 -0.9844
vn -0.0002 -0.0999 -0.9950
vn 0.2667 -0.0029 -0.9638
vn 0.0013 0.1066 -0.9943
vn 0.0254 -0.0277 -0.9993
vn -0.8155 -0.5709 -0.0944
vn 0.9353 -0.3539 -0.0000
vn 0.8983 0.4285 -0.0974
vn 0.9935 -0.0034 -0.1138
vn -0.8365 0.5394 -0.0968
vt 0.625000 0.769683
vt 0.375000 0.981017
vt 0.375000 0.769683
vt 0.875000 0.540478
vt 0.856017 0.750000
vt 0.625000 0.730317
vt 0.375000 0.534316
vt 0.355317 0.750000
vt 0.125000 0.731017
vt 0.625000 0.534316
vt 0.375000 0.730317
vt 0.375000 0.000000
vt 0.625000 0.018983
vt 0.375000 0.018983
vt 0.375000 0.290478
vt 0.625000 0.209522
vt 0.625000 0.290478
vt 0.375000 0.209522
vt 0.375000 0.465684
vt 0.625000 0.465684
vt 0.625000 0.981017
vt 0.659316 0.500000
vt 0.834522 0.500000
vt 0.875000 0.731017
vt 0.644683 0.750000
vt 0.125000 0.540478
vt 0.165478 0.500000
vt 0.340684 0.500000
vt 0.143983 0.750000
vt 0.625000 0.000000
s 0
f 3/1/1 5/2/1 2/3/1
f 12/4/2 8/5/2 4/6/2
f 14/7/3 2/8/3 6/9/3
f 2/3/4 4/6/4 3/1/4
f 15/10/5 1/11/5 14/7/5
f 5/12/6 7/13/6 6/14/6
f 10/15/7 12/16/7 11/17/7
f 7/13/8 9/18/8 6/14/8
f 15/10/9 13/19/9 16/20/9
f 11/17/10 13/19/10 10/15/10
f 3/1/1 8/21/1 5/2/1
f 4/6/11 15/10/11 16/22/11
f 16/22/12 11/23/12 12/4/12
f 12/4/13 7/24/13 8/5/13
f 8/5/14 3/25/14 4/6/14
f 4/6/15 16/22/15 12/4/15
f 6/9/3 9/26/3 10/27/3
f 10/27/3 13/28/3 14/7/3
f 14/7/3 1/11/3 2/8/3
f 2/8/3 5/29/3 6/9/3
f 6/9/3 10/27/3 14/7/3
f 2/3/16 1/11/16 4/6/16
f 15/10/5 4/6/5 1/11/5
f 5/12/17 8/30/17 7/13/17
f 10/15/18 9/18/18 12/16/18
f 7/13/19 12/16/19 9/18/19
f 15/10/20 14/7/20 13/19/20
f 11/17/10 16/20/10 13/19/10
