# Blender 4.0.0
# www.blender.org
o handle.004
v 0.051290 -0.001338 -0.508777
v 0.047746 0.005824 -0.508777
v 0.043821 -0.004205 -0.508778
v 0.041211 0.000209 -0.508821
v 0.043557 0.004705 -0.508909
v 0.050414 0.001762 -0.518101
v 0.048563 -0.002364 -0.523426
v 0.045122 -0.004292 -0.524384
v 0.042170 -0.003816 -0.524079
v 0.039352 0.001630 -0.522422
v 0.047127 0.005559 -0.519212
v 0.038556 -0.002108 -0.526906
v 0.046733 0.001695 -0.530534
v 0.037669 0.003538 -0.528778
v 0.044127 0.004750 -0.531611
v 0.044725 -0.002271 -0.531874
v 0.044470 0.004230 -0.531762
v 0.037867 -0.002393 -0.528865
v 0.044039 0.004876 -0.531573
v 0.036228 0.000516 -0.528146
v 0.045685 0.001599 -0.532295
v 0.038985 0.004748 -0.529355
v 0.039481 -0.004003 -0.529573
v 0.041221 -0.004347 -0.530337
v 0.043477 -0.003242 -0.531326
v 0.037749 0.004555 -0.528813
v 0.039381 0.005461 -0.529530
v 0.039671 0.005600 -0.529657
v 0.041593 0.005321 -0.530500
v 0.045628 0.000814 -0.532270
v 0.037330 -0.001948 -0.528629
vn 0.9616 -0.2202 -0.1636
vn 0.4953 -0.8682 -0.0314
vn 0.3582 -0.9330 0.0351
vn -0.1601 -0.9871 -0.0078
vn -0.8584 -0.5068 0.0797
vn -0.8728 0.4586 0.1672
vn 0.7635 0.6429 -0.0616
vn 0.8945 0.4426 0.0631
vn -0.9893 0.0432 0.1397
vn -0.8131 0.4621 0.3539
vn -0.5340 -0.8252 0.1841
vn 0.3492 -0.9107 -0.2205
vn 0.9570 -0.0641 -0.2830
vn 0.7788 0.5821 -0.2337
vn 0.7581 0.4464 -0.4754
vn -0.2578 0.9662 -0.0093
vn -0.6905 0.5094 0.5135
vn -0.0032 0.0079 1.0000
vn -0.0013 0.0202 0.9998
vn -0.0279 -0.0139 0.9995
vn -0.3319 0.9121 0.2405
vn 0.1110 0.9910 -0.0754
vn -0.1477 -0.9834 0.1058
vn -0.1402 0.9896 0.0334
vn 0.8585 -0.0786 -0.5067
vn -0.7527 -0.4338 0.4953
vn 0.1399 0.9861 -0.0894
vn -0.5966 -0.7373 0.3171
vn -0.5264 -0.7952 0.3009
vn 0.5253 -0.8141 -0.2476
vn 0.8659 -0.3045 -0.3968
vn 0.7683 0.5992 -0.2250
vn -0.9567 0.0843 0.2785
vn -0.4018 -0.0001 -0.9157
vn -0.4017 -0.0000 -0.9158
vn -0.4017 0.0001 -0.9158
vn -0.4018 0.0002 -0.9157
vn -0.4017 0.0002 -0.9158
vn -0.4018 -0.0003 -0.9157
s 0
f 6//1 1//1 7//1
f 7//2 1//2 8//2
f 8//3 1//3 3//3
f 8//4 3//4 9//4
f 9//5 3//5 4//5
f 10//6 4//6 5//6
f 11//7 2//7 6//7
f 6//8 2//8 1//8
f 4//9 10//9 12//9
f 20//10 10//10 14//10
f 9//11 4//11 12//11
f 25//12 8//12 24//12
f 6//13 7//13 13//13
f 15//14 6//14 13//14 17//14
f 17//15 13//15 21//15
f 5//16 2//16 11//16
f 22//17 11//17 27//17
f 4//18 3//18 1//18
f 5//19 4//19 1//19
f 5//20 1//20 2//20
f 27//21 11//21 28//21
f 11//22 29//22 28//22
f 8//23 9//23 23//23 24//23
f 5//24 11//24 22//24 26//24
f 13//25 30//25 21//25
f 10//26 20//26 31//26 12//26
f 11//27 19//27 29//27
f 9//28 12//28 18//28 23//28
f 12//29 31//29 18//29
f 7//30 8//30 25//30 16//30
f 13//31 7//31 16//31 30//31
f 11//32 6//32 15//32 19//32
f 10//33 5//33 26//33 14//33
f 23//34 18//34 24//34
f 18//35 22//35 29//35
f 30//35 16//35 25//35
f 18//35 31//35 14//35
f 20//35 14//35 31//35
f 29//35 30//35 25//35
f 14//35 22//35 18//35
f 25//35 18//35 29//35
f 26//36 22//36 14//36
f 17//35 21//35 30//35
f 22//37 27//37 28//37
f 18//35 25//35 24//35
f 29//38 15//38 17//38
f 29//35 17//35 30//35
f 29//35 22//35 28//35
f 29//39 19//39 15//39
