# Blender 4.0.0
# www.blender.org
o handle.006
v 0.026579 -0.003079 -0.553117
v 0.026453 0.001695 -0.554763
v 0.016607 0.002952 -0.559730
v 0.014489 -0.002141 -0.559897
v 0.013481 -0.000268 -0.550487
v 0.016685 0.003523 -0.549754
v 0.001007 0.002311 -0.554154
v 0.001371 -0.000294 -0.553555
v 0.015811 -0.004293 -0.556083
v 0.002205 -0.002141 -0.562754
v 0.008616 -0.003517 -0.554556
v 0.023070 0.005692 -0.552913
v 0.005512 0.004912 -0.555292
v 0.000406 0.002190 -0.554111
v 0.000406 0.002331 -0.554109
v 0.000360 0.005688 -0.559776
v 0.000361 0.005656 -0.559656
v 0.000360 0.005652 -0.559840
v 0.000410 -0.000293 -0.553532
v 0.000397 -0.003524 -0.555133
v 0.000367 -0.004146 -0.558919
v 0.000401 0.004413 -0.554710
v 0.000337 -0.002141 -0.562709
v 0.000329 0.002182 -0.563695
v 0.000399 0.004887 -0.554959
v 0.000362 -0.004299 -0.559536
v 0.000347 -0.003181 -0.561421
v 0.000409 -0.000552 -0.553743
v 0.000329 0.002442 -0.563726
v 0.000329 0.002488 -0.563729
v 0.024673 0.005524 -0.550063
v 0.021803 -0.001781 -0.546479
v 0.026882 -0.003061 -0.552822
v 0.026924 -0.002960 -0.552874
v 0.027482 0.002146 -0.553570
v 0.026299 0.004091 -0.552094
v 0.021919 -0.002283 -0.546624
v 0.022870 -0.004073 -0.547811
v 0.025653 0.005526 -0.551287
v 0.024901 0.005682 -0.550348
v 0.022763 0.004593 -0.547677
v 0.022958 0.005232 -0.547921
v 0.024307 -0.004378 -0.549606
v 0.021539 0.003059 -0.546149
v 0.021258 0.001692 -0.545798
v 0.027639 0.001616 -0.553767
v 0.026816 -0.003131 -0.552739
vn 0.4015 -0.2890 -0.8691
vn 0.4722 -0.1680 -0.8653
vn -0.2732 0.0451 0.9609
vn -0.2418 0.1851 0.9525
vn 0.0754 -0.0206 0.9969
vn 0.1740 -0.9548 -0.2408
vn 0.2395 -0.8077 -0.5388
vn 0.1208 -0.8460 -0.5193
vn -0.3491 -0.6396 0.6849
vn -0.0858 -0.9913 0.0996
vn -0.4563 -0.2397 0.8569
vn -0.4575 -0.3427 0.8205
vn -0.1859 -0.6474 0.7391
vn 0.4117 -0.8316 -0.3727
vn 0.6009 -0.5468 -0.5831
vn 0.5979 0.4279 -0.6778
vn 0.3924 0.6955 -0.6019
vn 0.1110 0.9910 -0.0754
vn -0.3319 0.9121 0.2405
vn -0.0564 0.9943 0.0903
vn -0.3197 0.7845 0.5314
vn 0.0553 0.4642 0.8840
vn -0.2410 0.7080 0.6638
vn -0.0775 0.9636 0.2559
vn 0.1465 0.8620 -0.4853
vn 0.0238 0.2271 0.9736
vn -0.0106 -0.9867 0.1622
vn 0.0819 0.2769 0.9574
vn -0.0235 -0.2225 -0.9747
vn 0.0058 0.9868 0.1616
vn -0.0535 -0.9691 0.2408
vn 0.1138 -0.8540 -0.5077
vn -0.0149 -0.7782 -0.6279
vn -0.0631 -0.4227 0.9041
vn 0.0177 -0.6311 0.7755
vn 0.2250 -0.1131 -0.9678
vn 0.1319 0.7684 -0.6263
vn 0.2399 -0.0679 -0.9684
vn 0.4591 0.5836 -0.6698
vn -0.3588 0.4259 0.8306
vn -0.5470 0.3122 0.7767
vn 0.6145 -0.2425 -0.7507
vn 0.7805 -0.0000 0.6251
vn 0.7806 0.0001 0.6250
vn 0.7804 0.0012 0.6253
vn -1.0000 -0.0000 0.0080
vn 0.7806 -0.0000 0.6251
vn 0.7806 -0.0000 0.6250
vn 0.7806 0.0002 0.6250
vn 0.7806 0.0001 0.6251
vn 0.7806 -0.0001 0.6250
s 0
f 2//1 1//1 3//1
f 1//2 4//2 3//2
f 5//3 6//3 7//3
f 5//4 7//4 8//4
f 14//5 7//5 15//5
f 43//6 9//6 1//6 47//6
f 1//7 9//7 4//7
f 4//8 9//8 10//8
f 38//9 37//9 11//9
f 38//10 11//10 9//10 43//10
f 45//11 5//11 32//11
f 32//12 5//12 11//12 37//12
f 5//13 8//13 11//13
f 33//14 47//14 1//14
f 34//15 33//15 1//15
f 35//16 46//16 2//16
f 35//17 2//17 3//17 36//17
f 40//18 39//18 12//18
f 31//19 40//19 12//19
f 31//20 12//20 13//20 42//20
f 44//21 41//21 6//21
f 22//22 13//22 25//22
f 7//23 6//23 13//23
f 13//24 12//24 16//24 17//24
f 12//25 3//25 18//25 16//25
f 8//26 7//26 14//26 19//26
f 11//27 20//27 21//27
f 7//28 13//28 22//28 15//28
f 10//29 23//29 24//29
f 13//30 17//30 25//30
f 9//31 11//31 21//31 26//31
f 9//32 26//32 27//32 10//32
f 10//33 27//33 23//33
f 11//34 8//34 28//34 20//34
f 8//35 19//35 28//35
f 4//36 10//36 24//36 29//36
f 3//37 30//37 18//37
f 3//38 4//38 29//38 30//38
f 12//39 39//39 36//39 3//39
f 6//40 41//40 42//40 13//40
f 5//41 45//41 44//41 6//41
f 2//42 46//42 34//42 1//42
f 34//43 36//43 47//43
f 31//44 42//44 41//44
f 33//45 34//45 47//45
f 27//46 26//46 21//46
f 34//47 35//47 36//47
f 34//47 46//47 35//47
f 36//48 43//48 47//48
f 32//48 43//48 36//48
f 37//49 43//49 32//49
f 45//48 32//48 41//48
f 44//50 45//50 41//50
f 39//44 31//44 36//44
f 32//48 36//48 41//48
f 31//48 41//48 36//48
f 39//51 40//51 31//51
f 37//47 38//47 43//47
f 20//46 28//46 21//46
f 18//46 30//46 29//46
f 14//46 17//46 27//46
f 14//46 27//46 21//46
f 19//46 14//46 28//46
f 23//46 27//46 24//46
f 17//46 18//46 24//46
f 15//46 17//46 14//46
f 22//46 17//46 15//46
f 27//46 17//46 24//46
f 18//46 29//46 24//46
f 25//46 17//46 22//46
f 16//46 18//46 17//46
f 28//46 14//46 21//46
