# Blender 4.0.0
# www.blender.org
o handle.005
v 0.032871 -0.004463 -0.543079
v 0.031457 -0.001184 -0.536885
v 0.025270 0.002703 -0.543378
v 0.023668 -0.002120 -0.545581
v 0.041847 -0.002201 -0.538209
v 0.038172 0.000914 -0.544918
v 0.043917 0.004849 -0.532062
v 0.033969 0.004992 -0.546052
v 0.036794 0.004530 -0.532084
v 0.026790 0.005302 -0.546302
v 0.026816 -0.003131 -0.552739
v 0.027639 0.001616 -0.553767
v 0.021258 0.001692 -0.545798
v 0.021539 0.003059 -0.546149
v 0.024307 -0.004378 -0.549606
v 0.022763 0.004593 -0.547677
v 0.025653 0.005526 -0.551287
v 0.022870 -0.004073 -0.547811
v 0.022958 0.005232 -0.547921
v 0.021919 -0.002283 -0.546624
v 0.026299 0.004091 -0.552094
v 0.024901 0.005682 -0.550348
v 0.027482 0.002146 -0.553570
v 0.026882 -0.003061 -0.552822
v 0.026924 -0.002960 -0.552874
v 0.021803 -0.001781 -0.546479
v 0.024673 0.005524 -0.550063
v 0.037330 -0.001948 -0.528629
v 0.041593 0.005321 -0.530500
v 0.045628 0.000814 -0.532270
v 0.039381 0.005461 -0.529530
v 0.039671 0.005600 -0.529657
v 0.043477 -0.003242 -0.531326
v 0.041221 -0.004347 -0.530337
v 0.039481 -0.004003 -0.529573
v 0.038985 0.004748 -0.529355
v 0.037749 0.004555 -0.528813
v 0.045685 0.001599 -0.532295
v 0.036228 0.000516 -0.528146
v 0.044039 0.004876 -0.531573
v 0.037867 -0.002393 -0.528865
v 0.044470 0.004230 -0.531762
v 0.044725 -0.002271 -0.531874
v 0.044127 0.004750 -0.531611
v 0.037669 0.003538 -0.528778
vn -0.5966 -0.7373 0.3171
vn -0.7036 0.0625 0.7078
vn -0.5470 0.3123 0.7767
vn -0.5264 -0.7952 0.3009
vn -0.7527 -0.4338 0.4953
vn -0.3245 -0.8646 0.3837
vn -0.7403 -0.0598 0.6696
vn -0.1477 -0.9834 0.1058
vn 0.5252 -0.8141 -0.2476
vn 0.8659 -0.3045 -0.3968
vn 0.8585 -0.0786 -0.5067
vn 0.6145 -0.2425 -0.7507
vn 0.7684 0.5992 -0.2250
vn 0.6755 0.5643 -0.4746
vn 0.4591 0.5836 -0.6698
vn 0.1399 0.9861 -0.0894
vn -0.1402 0.9896 0.0334
vn -0.5156 0.7557 0.4039
vn -0.3588 0.4257 0.8307
vn -0.9567 0.0842 0.2785
vn 0.3924 0.6955 -0.6019
vn -0.3491 -0.6395 0.6849
vn 0.1110 0.9910 -0.0754
vn -0.0858 -0.9913 0.0996
vn 0.6008 -0.5470 -0.5830
vn -0.4575 -0.3425 0.8206
vn -0.3197 0.7845 0.5314
vn -0.4563 -0.2398 0.8569
vn 0.5979 0.4278 -0.6778
vn 0.1740 -0.9548 -0.2408
vn 0.4119 -0.8315 -0.3729
vn -0.0564 0.9943 0.0903
vn -0.3319 0.9121 0.2405
vn 0.3492 -0.9107 -0.2205
vn -0.6905 0.5094 0.5135
vn 0.7581 0.4464 -0.4754
vn 0.7788 0.5822 -0.2337
vn -0.8131 0.4621 0.3539
vn 0.4017 -0.0000 0.9158
vn 0.4017 0.0001 0.9158
vn 0.4018 -0.0000 0.9157
vn 0.4017 -0.0002 0.9158
vn 0.4018 -0.0004 0.9157
vn -0.7806 0.0001 -0.6251
vn -0.7806 -0.0000 -0.6251
vn -0.7806 -0.0001 -0.6250
vn -0.7806 -0.0000 -0.6250
vn -0.7805 -0.0000 -0.6251
vn -0.7804 -0.0012 -0.6253
vn -0.7806 -0.0001 -0.6251
vn -0.7806 0.0001 -0.6250
s 0
f 35//1 41//1 1//1
f 2//2 9//2 3//2
f 13//3 3//3 14//3
f 28//4 2//4 1//4 41//4
f 39//5 2//5 28//5
f 2//6 4//6 1//6
f 2//7 3//7 4//7
f 34//8 35//8 1//8
f 43//9 33//9 5//9
f 30//10 43//10 5//10
f 30//11 5//11 6//11 38//11
f 12//12 6//12 25//12
f 40//13 44//13 7//13
f 7//14 6//14 8//14
f 17//15 8//15 21//15
f 40//16 7//16 8//16 29//16
f 37//17 36//17 9//17
f 9//18 10//18 3//18
f 16//19 10//19 19//19
f 45//20 37//20 9//20
f 8//21 23//21 21//21
f 1//22 4//22 20//22 18//22
f 29//23 8//23 17//23 22//23 32//23
f 1//24 18//24 15//24
f 6//25 5//25 24//25 25//25
f 4//26 26//26 20//26
f 3//27 10//27 16//27 14//27
f 3//28 13//28 26//28 4//28
f 8//29 6//29 12//29 23//29
f 1//30 15//30 11//30
f 5//31 1//31 11//31 24//31
f 10//32 27//32 19//32
f 10//33 31//33 32//33 22//33 27//33
f 5//34 33//34 34//34 1//34
f 9//35 36//35 31//35 10//35
f 7//36 42//36 38//36 6//36
f 7//37 44//37 42//37
f 2//38 39//38 45//38 9//38
f 33//39 41//39 34//39
f 43//40 30//40 33//40
f 36//39 41//39 29//39
f 41//41 35//41 34//41
f 28//39 41//39 45//39
f 30//39 29//39 33//39
f 38//39 42//39 30//39
f 42//39 29//39 30//39
f 41//39 33//39 29//39
f 44//42 29//42 42//42
f 36//39 37//39 45//39
f 36//39 29//39 32//39
f 40//41 29//41 44//41
f 36//39 45//39 41//39
f 31//43 36//43 32//43
f 45//39 39//39 28//39
f 18//44 20//44 15//44
f 23//45 25//45 21//45
f 15//46 20//46 26//46
f 15//47 21//47 11//47
f 21//48 25//48 11//48
f 25//49 24//49 11//49
f 26//47 13//47 16//47
f 12//45 25//45 23//45
f 13//50 14//50 16//50
f 21//47 26//47 16//47
f 16//47 27//47 21//47
f 19//46 27//46 16//46
f 27//46 17//46 21//46
f 17//51 27//51 22//51
f 15//47 26//47 21//47
