# Blender 4.0.0
# www.blender.org
o handle.002
v 0.051226 0.003022 -0.408778
v 0.046969 -0.004843 -0.408778
v 0.041064 -0.000506 -0.408778
v 0.043466 0.005379 -0.408778
v 0.041064 0.001900 -0.508778
v 0.043466 -0.003984 -0.508778
v 0.046969 0.006237 -0.508778
v 0.051226 -0.001628 -0.508778
vn 0.8792 0.4759 -0.0221
vn 0.8792 -0.4759 0.0221
vn 0.2905 -0.9567 -0.0184
vn -0.5919 -0.8059 0.0138
vn -0.9258 -0.3779 -0.0091
vn -0.9258 0.3779 0.0091
vn -0.5919 0.8059 -0.0138
vn 0.2905 0.9567 0.0184
vn -0.0000 -0.0000 1.0000
vn -0.0000 -0.0000 -1.0000
s 0
f 1//1 8//1 7//1
f 1//2 2//2 8//2
f 8//3 2//3 6//3
f 6//4 2//4 3//4
f 6//5 3//5 5//5
f 5//6 3//6 4//6
f 5//7 4//7 7//7
f 7//8 4//8 1//8
f 1//9 3//9 2//9
f 3//9 1//9 4//9
f 8//10 6//10 5//10
f 7//10 8//10 5//10
