# Blender 4.0.0
# www.blender.org
o handle.008
v -0.030727 -0.001333 -0.545166
v -0.044478 -0.003606 -0.533699
v -0.038480 -0.000290 -0.537866
v -0.037541 0.003502 -0.540324
v -0.035501 0.005302 -0.545491
v -0.038229 0.005050 -0.548879
v -0.047138 0.005704 -0.536029
v -0.036425 -0.001341 -0.553114
v -0.046249 0.002525 -0.544017
v -0.047578 -0.002141 -0.541029
v -0.042308 -0.004371 -0.541986
v -0.051814 -0.001055 -0.534257
v -0.050478 0.004592 -0.533197
v -0.049150 0.005543 -0.532144
v -0.049182 -0.003767 -0.532169
v -0.044275 0.001398 -0.528276
v -0.046212 0.004936 -0.529813
v -0.046277 -0.003689 -0.529864
v -0.045961 -0.003382 -0.529614
v -0.044321 0.001912 -0.528312
v -0.047095 -0.004293 -0.530513
v -0.048498 0.005705 -0.531627
v -0.046433 0.004981 -0.529988
v -0.046191 0.004899 -0.529796
v -0.051663 0.003263 -0.534138
v -0.051953 0.000913 -0.534368
v -0.044534 -0.001865 -0.528481
v -0.028723 -0.001513 -0.546508
v -0.028775 -0.000316 -0.546583
v -0.032882 -0.003757 -0.552498
v -0.033053 -0.003540 -0.552744
v -0.029936 0.005131 -0.548254
v -0.028800 0.004110 -0.546619
v -0.033624 -0.002708 -0.553565
v -0.031099 -0.004336 -0.549930
v -0.030738 0.005427 -0.549410
v -0.029530 -0.002956 -0.547670
v -0.029503 -0.004031 -0.547631
v -0.030757 0.005686 -0.549437
v -0.032370 0.005266 -0.551760
v -0.034120 0.000978 -0.554281
v -0.033793 0.003430 -0.553810
v -0.033593 0.004045 -0.553521
v -0.034145 -0.001149 -0.554316
v -0.028561 -0.000733 -0.546274
v -0.050946 -0.002559 -0.533568
vn 0.5015 -0.3427 0.7944
vn 0.2920 -0.9424 0.1634
vn 0.1981 0.6463 0.7369
vn 0.6435 -0.2585 0.7204
vn 0.5839 0.0101 0.8118
vn 0.6785 0.2738 0.6816
vn 0.1147 0.9787 0.1705
vn 0.2253 0.8890 0.3987
vn -0.2443 0.8682 -0.4320
vn -0.0927 0.9891 -0.1145
vn 0.6285 0.1248 0.7677
vn -0.4677 0.0203 -0.8837
vn -0.3703 -0.5009 -0.7823
vn -0.6120 0.2272 -0.7575
vn -0.5592 0.4944 -0.6655
vn -0.4758 0.7978 -0.3704
vn -0.7083 -0.2265 -0.6686
vn 0.4021 0.0427 0.9146
vn 0.0648 -0.9941 0.0871
vn -0.1033 -0.9833 -0.1500
vn -0.4172 -0.8054 -0.4211
vn 0.3540 -0.6983 0.6221
vn -0.8616 0.1537 -0.4837
vn 0.2704 0.9592 0.0831
vn 0.6425 0.6237 0.4452
vn 0.5990 -0.7576 0.2592
vn 0.4716 -0.8582 0.2026
vn 0.5681 -0.7842 0.2495
vn 0.1188 0.9874 0.1042
vn 0.6619 0.5872 0.4659
vn 0.8591 0.1111 0.4996
vn 0.8437 -0.1000 0.5274
vn -0.1891 -0.9793 -0.0723
vn -0.4147 -0.8787 -0.2364
vn -0.1954 0.9789 -0.0607
vn -0.5549 0.7499 -0.3602
vn -0.4592 0.8651 -0.2021
vn -0.8508 -0.0893 -0.5179
vn -0.7265 -0.5849 -0.3607
vn -0.4476 -0.7646 -0.4637
vn 0.8214 -0.0000 -0.5704
vn 0.8214 -0.0003 -0.5704
vn 0.8214 -0.0000 -0.5703
vn 0.8214 0.0003 -0.5704
vn -0.6215 0.0001 0.7834
vn -0.6215 -0.0002 0.7834
vn -0.6215 -0.0000 0.7834
vn -0.6216 -0.0001 0.7833
vn -0.6216 -0.0000 0.7834
vn -0.6217 -0.0003 0.7833
vn -0.6216 -0.0000 0.7833
s 0
f 45//1 1//1 28//1
f 11//2 1//2 2//2
f 45//3 29//3 1//3
f 1//4 3//4 2//4
f 33//5 4//5 1//5 29//5
f 1//6 4//6 3//6
f 32//7 36//7 5//7
f 32//8 5//8 4//8 33//8
f 40//9 43//9 6//9
f 40//10 6//10 7//10 39//10
f 39//11 7//11 5//11 36//11
f 44//12 8//12 41//12
f 44//13 34//13 8//13
f 41//14 8//14 9//14 42//14
f 42//15 9//15 6//15 43//15
f 6//16 9//16 7//16
f 8//17 10//17 9//17
f 38//18 37//18 11//18
f 38//19 11//19 35//19
f 35//20 11//20 30//20
f 30//21 11//21 10//21 31//21
f 28//22 1//22 11//22 37//22
f 9//23 26//23 25//23
f 7//24 22//24 23//24
f 4//25 24//25 20//25
f 2//26 3//26 27//26 19//26
f 11//27 2//27 18//27 21//27
f 2//28 19//28 18//28
f 5//29 7//29 23//29 17//29
f 5//30 17//30 24//30 4//30
f 3//31 4//31 20//31 16//31
f 3//32 16//32 27//32
f 11//33 21//33 15//33
f 10//34 11//34 15//34 46//34
f 7//35 14//35 22//35
f 9//36 25//36 13//36 7//36
f 7//37 13//37 14//37
f 9//38 10//38 12//38 26//38
f 10//39 46//39 12//39
f 8//40 34//40 31//40 10//40
f 35//41 31//41 41//41
f 34//41 44//41 41//41
f 34//41 41//41 31//41
f 35//42 30//42 31//42
f 41//41 29//41 37//41
f 29//41 28//41 37//41
f 37//41 35//41 41//41
f 29//43 45//43 28//43
f 42//41 40//41 41//41
f 40//41 29//41 41//41
f 43//44 40//44 42//44
f 29//41 40//41 36//41
f 33//41 29//41 32//41
f 32//41 29//41 36//41
f 39//41 36//41 40//41
f 37//41 38//41 35//41
f 18//45 15//45 21//45
f 18//46 19//46 15//46
f 15//47 19//47 16//47
f 27//47 16//47 19//47
f 46//47 15//47 26//47
f 23//47 14//47 13//47
f 12//48 46//48 26//48
f 16//49 20//49 23//49
f 23//47 13//47 15//47
f 24//50 23//50 20//50
f 16//47 23//47 15//47
f 13//47 26//47 15//47
f 17//51 23//51 24//51
f 22//46 14//46 23//46
f 13//49 25//49 26//49
