# Blender 4.0.0
# www.blender.org
o Sphere.001
v -0.130000 0.120000 0.002472
v 0.000000 -0.027812 -0.434858
v 0.000000 -0.052901 -0.403794
v -0.130000 0.120000 -0.206893
v -0.130000 -0.120000 0.002472
v 0.000000 -0.072812 -0.355410
v -0.130000 -0.120000 -0.206893
v 0.000000 -0.085595 -0.294444
v 0.000000 -0.090000 -0.226862
v 0.130000 0.120000 0.002472
v 0.130000 0.120000 -0.206893
v 0.130000 -0.120000 0.002472
v 0.130000 -0.120000 -0.206893
v 0.021744 -0.017340 -0.434858
v 0.041359 -0.032983 -0.403794
v 0.056926 -0.045397 -0.355410
v 0.066921 -0.053368 -0.294444
v 0.070365 -0.056114 -0.226862
v 0.027114 0.006189 -0.434858
v 0.051574 0.011772 -0.403794
v 0.070986 0.016202 -0.355410
v 0.083449 0.019047 -0.294444
v 0.087744 0.020027 -0.226862
v 0.012067 0.025057 -0.434858
v 0.022953 0.047662 -0.403794
v 0.031592 0.065601 -0.355410
v 0.037138 0.077119 -0.294444
v 0.039050 0.081087 -0.226862
v -0.012067 0.025057 -0.434858
v -0.022953 0.047662 -0.403794
v -0.031592 0.065601 -0.355410
v -0.037138 0.077119 -0.294444
v -0.039050 0.081087 -0.226862
v -0.027114 0.006189 -0.434858
v -0.051574 0.011772 -0.403794
v -0.070986 0.016202 -0.355410
v -0.083449 0.019047 -0.294444
v -0.087744 0.020027 -0.226862
v -0.021744 -0.017340 -0.434858
v -0.041359 -0.032983 -0.403794
v -0.056926 -0.045397 -0.355410
v -0.066921 -0.053368 -0.294444
v -0.070365 -0.056114 -0.226862
v 0.000000 0.000000 -0.445561
v 0.000000 -0.088698 -0.206893
v 0.069347 -0.055303 -0.206893
v 0.086475 0.019737 -0.206893
v 0.038485 0.079915 -0.206893
v -0.038485 0.079915 -0.206893
v -0.086475 0.019737 -0.206893
v -0.069347 -0.055303 -0.206893
vn 0.4331 -0.8994 0.0586
vn 0.4068 -0.8448 -0.3476
vn 0.4263 -0.8853 -0.1856
vn 0.1704 -0.3539 -0.9196
vn 0.4331 -0.8994 -0.0586
vn 0.3508 -0.7285 -0.5884
vn 0.9141 -0.2086 -0.3476
vn 0.9580 -0.2187 -0.1856
vn 0.3830 -0.0874 -0.9196
vn 0.9733 -0.2221 -0.0586
vn 0.7883 -0.1799 -0.5884
vn 0.9733 -0.2221 0.0586
vn 0.7805 0.6224 0.0586
vn 0.7331 0.5846 -0.3476
vn 0.7682 0.6127 -0.1856
vn 0.3071 0.2449 -0.9196
vn 0.7805 0.6224 -0.0586
vn 0.6322 0.5041 -0.5884
vn -0.0000 0.9983 -0.0586
vn -0.0000 0.8086 -0.5884
vn -0.0000 0.9983 0.0586
vn -0.0000 0.9376 -0.3476
vn -0.0000 0.9826 -0.1856
vn -0.0000 0.3928 -0.9196
vn -0.3071 0.2449 -0.9196
vn -0.7805 0.6224 -0.0586
vn -0.6322 0.5041 -0.5884
vn -0.7805 0.6224 0.0586
vn -0.7331 0.5846 -0.3476
vn -0.7682 0.6127 -0.1856
vn -0.9580 -0.2187 -0.1856
vn -0.3830 -0.0874 -0.9196
vn -0.9733 -0.2221 -0.0586
vn -0.7883 -0.1799 -0.5884
vn -0.9733 -0.2221 0.0586
vn -0.9141 -0.2086 -0.3476
vn -0.4263 -0.8853 -0.1856
vn -0.1704 -0.3539 -0.9196
vn -0.4331 -0.8994 -0.0586
vn -0.3508 -0.7285 -0.5884
vn -0.4331 -0.8994 0.0586
vn -0.4068 -0.8448 -0.3476
vn -1.0000 -0.0000 -0.0000
vn -0.0000 -1.0000 -0.0000
vn 1.0000 -0.0000 -0.0000
vn -0.0000 1.0000 -0.0000
vn -0.0000 -0.0000 1.0000
vn -0.0000 -0.0000 -1.0000
vt 0.714286 0.470453
vt 0.714286 0.500000
vt 0.571429 0.500000
vt 0.571429 0.470453
vt 0.714286 0.700000
vt 0.714286 0.800000
vt 0.571429 0.800000
vt 0.571429 0.700000
vt 0.714286 0.600000
vt 0.571429 0.600000
vt 0.714286 0.900000
vt 0.642857 1.000000
vt 0.571429 0.900000
vt 0.428571 0.800000
vt 0.428571 0.700000
vt 0.428571 0.600000
vt 0.500000 1.000000
vt 0.428571 0.900000
vt 0.428571 0.500000
vt 0.428571 0.470453
vt 0.285714 0.500000
vt 0.285714 0.470453
vt 0.285714 0.800000
vt 0.285714 0.700000
vt 0.285714 0.600000
vt 0.357143 1.000000
vt 0.285714 0.900000
vt 0.142857 0.600000
vt 0.142857 0.500000
vt 0.142857 0.900000
vt 0.142857 0.800000
vt 0.142857 0.470453
vt 0.142857 0.700000
vt 0.214286 1.000000
vt 0.071429 1.000000
vt 0.000000 0.900000
vt 0.000000 0.600000
vt 0.000000 0.500000
vt 0.000000 0.800000
vt 0.000000 0.470453
vt 0.000000 0.700000
vt 1.000000 0.600000
vt 1.000000 0.700000
vt 0.857143 0.700000
vt 0.857143 0.600000
vt 1.000000 0.900000
vt 0.928571 1.000000
vt 0.857143 0.900000
vt 1.000000 0.500000
vt 0.857143 0.500000
vt 1.000000 0.800000
vt 0.857143 0.800000
vt 0.857143 0.470453
vt 1.000000 0.470453
vt 0.785714 1.000000
vt 0.375000 0.000000
vt 0.625000 0.000000
vt 0.625000 0.250000
vt 0.375000 0.250000
vt 0.625000 0.500000
vt 0.375000 0.500000
vt 0.625000 0.750000
vt 0.375000 0.750000
vt 0.625000 1.000000
vt 0.375000 1.000000
vt 0.125000 0.500000
vt 0.125000 0.750000
vt 0.816680 0.567393
vt 0.875000 0.500000
vt 0.875000 0.750000
vt 0.683320 0.567393
vt 0.666851 0.645560
vt 0.712995 0.708244
vt 0.787005 0.708244
vt 0.833149 0.645560
vt 0.750000 0.532606
s 0
f 45/1/1 9/2/1 18/3/1 46/4/1
f 6/5/2 3/6/2 15/7/2 16/8/2
f 8/9/3 6/5/3 16/8/3 17/10/3
f 2/11/4 44/12/4 14/13/4
f 9/2/5 8/9/5 17/10/5 18/3/5
f 3/6/6 2/11/6 14/13/6 15/7/6
f 16/8/7 15/7/7 20/14/7 21/15/7
f 17/10/8 16/8/8 21/15/8 22/16/8
f 14/13/9 44/17/9 19/18/9
f 18/3/10 17/10/10 22/16/10 23/19/10
f 15/7/11 14/13/11 19/18/11 20/14/11
f 46/4/12 18/3/12 23/19/12 47/20/12
f 47/20/13 23/19/13 28/21/13 48/22/13
f 21/15/14 20/14/14 25/23/14 26/24/14
f 22/16/15 21/15/15 26/24/15 27/25/15
f 19/18/16 44/26/16 24/27/16
f 23/19/17 22/16/17 27/25/17 28/21/17
f 20/14/18 19/18/18 24/27/18 25/23/18
f 28/21/19 27/25/19 32/28/19 33/29/19
f 25/23/20 24/27/20 29/30/20 30/31/20
f 48/22/21 28/21/21 33/29/21 49/32/21
f 26/24/22 25/23/22 30/31/22 31/33/22
f 27/25/23 26/24/23 31/33/23 32/28/23
f 24/27/24 44/34/24 29/30/24
f 29/30/25 44/35/25 34/36/25
f 33/29/26 32/28/26 37/37/26 38/38/26
f 30/31/27 29/30/27 34/36/27 35/39/27
f 33/29/28 38/38/28 50/40/28 49/32/28
f 31/33/29 30/31/29 35/39/29 36/41/29
f 32/28/30 31/33/30 36/41/30 37/37/30
f 37/42/31 36/43/31 41/44/31 42/45/31
f 34/46/32 44/47/32 39/48/32
f 38/49/33 37/42/33 42/45/33 43/50/33
f 35/51/34 34/46/34 39/48/34 40/52/34
f 38/49/35 43/50/35 51/53/35 50/54/35
f 36/43/36 35/51/36 40/52/36 41/44/36
f 42/45/37 41/44/37 6/5/37 8/9/37
f 39/48/38 44/55/38 2/11/38
f 43/50/39 42/45/39 8/9/39 9/2/39
f 40/52/40 39/48/40 2/11/40 3/6/40
f 43/50/41 9/2/41 45/1/41 51/53/41
f 41/44/42 40/52/42 3/6/42 6/5/42
f 1/56/43 4/57/43 7/58/43 5/59/43
f 5/59/44 7/58/44 13/60/44 12/61/44
f 12/61/45 13/60/45 11/62/45 10/63/45
f 10/63/46 11/62/46 4/64/46 1/65/46
f 5/66/47 12/61/47 10/63/47 1/67/47
f 51/68/48 7/69/48 4/70/48 11/62/48 13/60/48 46/71/48 47/72/48 48/73/48 49/74/48 50/75/48
f 46/71/48 13/60/48 7/69/48 51/68/48 45/76/48
