# Blender 4.0.0
# www.blender.org
o handleleft
v -0.057406 -0.002181 -0.519365
v -0.058748 0.001601 -0.513276
v -0.056105 0.004890 -0.519284
v -0.050534 0.004960 -0.517552
v -0.048960 0.003174 -0.516060
v -0.048586 -0.000509 -0.515266
v -0.050890 -0.003651 -0.515365
v -0.054625 -0.004281 -0.517193
v -0.006868 0.005672 -0.560218
v -0.006649 0.004921 -0.556081
v -0.019986 0.004929 -0.553198
v -0.019751 0.001860 -0.551012
v -0.027458 0.002579 -0.547274
v -0.033107 -0.003174 -0.545120
v -0.044478 -0.003606 -0.533699
v -0.046989 -0.004284 -0.536483
v -0.056623 0.001695 -0.524641
v -0.038480 -0.000290 -0.537866
v -0.006488 0.001507 -0.553685
v -0.014338 0.000437 -0.552424
v -0.018091 0.005505 -0.559107
v -0.033355 0.003523 -0.543884
v -0.007092 -0.000048 -0.564062
v -0.035501 0.005302 -0.545491
v -0.045959 -0.002128 -0.526953
v -0.015853 0.001453 -0.562570
v -0.040656 0.003523 -0.536139
v -0.023722 0.000993 -0.560412
v -0.031520 0.003595 -0.555597
v -0.045273 0.001689 -0.526625
v -0.016622 -0.002141 -0.561577
v -0.038229 0.005050 -0.548879
v -0.050762 0.005700 -0.530349
v -0.006830 -0.004322 -0.559576
v -0.046383 0.004930 -0.529563
v -0.020859 -0.004305 -0.557187
v -0.036425 -0.001341 -0.553114
v -0.006591 -0.003295 -0.555400
v -0.031638 -0.003676 -0.553885
v -0.041573 0.001693 -0.548812
v -0.049241 0.003542 -0.538913
v -0.018088 -0.003737 -0.554386
v -0.050030 0.000697 -0.539137
v -0.022560 -0.002118 -0.550734
v -0.049512 -0.002147 -0.538500
v -0.058513 -0.002176 -0.408778
v -0.057683 0.004171 -0.408778
v -0.051211 -0.003984 -0.408778
v -0.048802 0.000870 -0.408778
v -0.051740 0.005642 -0.408778
vn 0.1725 0.5801 0.7961
vn 0.4080 -0.2263 0.8845
vn 0.4762 -0.1427 0.8677
vn 0.1457 -0.9834 0.1078
vn -0.5235 -0.8238 -0.2174
vn -0.9815 -0.0520 -0.1840
vn 0.0388 0.9835 0.1765
vn 0.4053 0.5506 0.7297
vn 0.6529 -0.4005 0.6429
vn 0.6608 -0.3868 0.6432
vn -0.4901 -0.8498 -0.1939
vn 0.4937 0.4804 0.7249
vn 0.1836 -0.9803 0.0728
vn -0.0900 0.5579 -0.8250
vn -0.0054 0.9954 0.0953
vn 0.0852 0.9887 0.1237
vn 0.3632 0.6133 0.7014
vn 0.3732 0.8280 0.4184
vn 0.6111 -0.7344 0.2951
vn -0.0202 0.6430 -0.7656
vn 0.7237 0.1038 0.6822
vn 0.8258 -0.4851 0.2876
vn 0.1433 -0.9885 0.0477
vn -0.2513 0.5449 -0.8000
vn -0.2825 0.5746 -0.7681
vn 0.4041 0.8316 0.3809
vn 0.8440 0.2722 0.4621
vn 0.8241 -0.1939 0.5321
vn -0.2003 -0.2209 -0.9545
vn -0.2353 0.8744 -0.4244
vn -0.0612 0.9952 -0.0763
vn 0.1479 -0.9735 0.1746
vn 0.9515 -0.1918 0.2405
vn 0.7761 -0.5769 0.2544
vn -0.0206 -0.7244 -0.6891
vn -0.2473 -0.2085 -0.9462
vn 0.1499 0.9807 0.1253
vn 0.6871 0.5436 0.4821
vn 0.6530 0.6191 0.4362
vn -0.0874 -0.8575 -0.5071
vn -0.5067 0.0714 -0.8592
vn 0.8413 0.4917 0.2245
vn 0.9387 0.1609 0.3050
vn -0.2282 -0.7678 -0.5987
vn -0.3521 -0.5048 -0.7881
vn -0.3657 -0.4880 -0.7925
vn -0.5730 0.1657 -0.8026
vn -0.5418 0.5266 -0.6551
vn -0.5903 0.5766 -0.5649
vn -0.3818 0.8779 -0.2890
vn 0.1635 0.9851 0.0541
vn 0.6347 0.7415 0.2175
vn 0.0391 -0.9708 0.2366
vn 0.0512 -0.9874 0.1495
vn -0.7077 -0.2825 -0.6476
vn -0.7410 0.2545 -0.6215
vn -0.6978 0.6554 -0.2890
vn 0.1937 -0.3337 0.9226
vn 0.0952 -0.4923 0.8652
vn 0.3396 -0.6324 0.6962
vn -0.7088 -0.2745 -0.6499
vn 0.4514 -0.4675 0.7601
vn 0.0537 -0.9877 0.1470
vn -0.4495 -0.7744 -0.4452
vn -0.8683 0.2735 -0.4137
vn -0.7291 0.6165 -0.2973
vn 0.3211 -0.8556 0.4061
vn -0.0935 -0.9887 -0.1170
vn -0.4000 -0.8332 -0.3819
vn -0.8881 -0.2482 -0.3868
vn 0.2282 -0.0934 0.9691
vn -0.8769 -0.3159 -0.3623
vn -0.8931 0.4190 -0.1636
vn 0.0527 0.5753 0.8163
vn 0.3026 0.2344 0.9238
vn -0.9471 -0.3208 -0.0095
vn -0.9915 0.1297 0.0069
vn -0.5995 -0.8003 -0.0060
vn -0.2404 -0.9706 0.0102
vn 0.1675 -0.9859 -0.0026
vn 0.8065 -0.5912 0.0006
vn 0.8958 -0.4445 0.0076
vn 0.9949 0.1010 0.0007
vn 0.7444 0.6676 0.0132
vn 0.8515 0.5243 0.0062
vn 0.9119 0.4103 0.0075
vn -0.1513 0.9885 -0.0008
vn -0.2404 0.9707 0.0029
vn -0.7858 0.6184 -0.0072
vn -0.0000 -0.0000 1.0000
vn 0.9984 0.0010 -0.0574
vn 0.9986 0.0114 -0.0508
vn 0.9983 -0.0006 -0.0584
vn 0.9983 -0.0003 -0.0579
s 0
f 10//1 11//1 12//1
f 12//2 13//2 44//2
f 44//3 13//3 14//3
f 14//4 15//4 16//4
f 45//5 16//5 1//5
f 17//6 1//6 2//6
f 10//7 9//7 11//7
f 12//8 11//8 13//8
f 14//9 13//9 18//9
f 14//10 18//10 15//10
f 16//11 8//11 1//11
f 13//12 22//12 18//12
f 16//13 15//13 8//13
f 9//14 23//14 21//14
f 9//15 21//15 11//15
f 11//16 21//16 24//16
f 11//17 24//17 13//17
f 13//18 24//18 22//18
f 15//19 18//19 25//19
f 23//20 26//20 21//20
f 22//21 27//21 18//21
f 15//22 25//22 7//22
f 15//23 7//23 8//23
f 26//24 28//24 21//24
f 21//25 28//25 29//25
f 22//26 24//26 27//26
f 18//27 27//27 30//27
f 18//28 30//28 25//28
f 23//29 31//29 26//29
f 21//30 29//30 32//30
f 21//31 32//31 33//31
f 21//32 33//32 24//32
f 25//33 30//33 6//33
f 25//34 6//34 7//34
f 23//35 34//35 31//35
f 26//36 31//36 28//36
f 24//37 33//37 35//37
f 24//38 35//38 27//38
f 27//39 35//39 30//39
f 34//40 36//40 31//40
f 28//41 37//41 29//41
f 30//42 35//42 5//42
f 30//43 5//43 6//43
f 31//44 36//44 39//44
f 31//45 39//45 28//45
f 28//46 39//46 37//46
f 29//47 37//47 40//47
f 29//48 40//48 32//48
f 32//49 40//49 41//49
f 32//50 41//50 33//50
f 35//51 33//51 4//51
f 35//52 4//52 5//52
f 34//53 38//53 36//53
f 38//54 42//54 36//54
f 40//55 37//55 43//55
f 40//56 43//56 41//56
f 33//57 41//57 3//57
f 38//58 19//58 20//58
f 38//59 20//59 42//59
f 42//60 20//60 44//60
f 37//61 45//61 43//61
f 42//62 44//62 14//62
f 42//63 14//63 36//63
f 37//64 39//64 45//64
f 41//65 43//65 17//65
f 41//66 17//66 3//66
f 36//67 14//67 16//67
f 36//68 16//68 39//68
f 39//69 16//69 45//69
f 43//70 45//70 17//70
f 20//71 12//71 44//71
f 45//72 1//72 17//72
f 17//73 2//73 3//73
f 20//74 19//74 10//74
f 12//75 20//75 10//75
f 1//76 46//76 2//76
f 2//77 46//77 47//77
f 46//78 1//78 8//78
f 46//79 8//79 48//79
f 48//80 8//80 7//80
f 48//81 7//81 6//81
f 48//82 6//82 49//82
f 49//83 6//83 5//83
f 49//84 5//84 4//84
f 49//85 4//85 50//85
f 50//86 4//86 33//86
f 50//87 33//87 3//87
f 50//88 3//88 47//88
f 47//89 3//89 2//89
f 46//90 49//90 47//90
f 47//90 49//90 50//90
f 49//90 46//90 48//90
f 34//91 23//91 38//91
f 19//92 9//92 10//92
f 19//93 38//93 9//93
f 38//94 23//94 9//94
o handlerigth
v 0.051326 0.000949 -0.408778
v 0.050315 -0.002008 -0.513182
v 0.050755 0.002726 -0.513701
v 0.049321 -0.003245 -0.408778
v 0.046702 -0.004296 -0.517418
v 0.044948 -0.004372 -0.408778
v 0.042851 -0.003511 -0.515271
v 0.041064 -0.000506 -0.408778
v 0.040899 0.000140 -0.512631
v 0.043466 0.005379 -0.408778
v 0.041670 0.003696 -0.515355
v 0.045201 0.005725 -0.513518
v 0.049045 0.004847 -0.408778
v 0.047655 0.005300 -0.517973
v 0.038421 0.001691 -0.524681
v 0.040051 -0.002128 -0.521908
v 0.036843 -0.003049 -0.531132
v 0.031782 -0.004298 -0.545967
v 0.033827 -0.002201 -0.547959
v 0.026532 0.000697 -0.555006
v 0.012612 -0.000100 -0.561494
v 0.014921 0.003535 -0.559740
v -0.000666 0.003397 -0.563246
v 0.012758 0.005715 -0.557256
v -0.001000 0.005881 -0.558006
v 0.027757 -0.003908 -0.545491
v 0.015432 -0.003655 -0.558126
v 0.031457 -0.001184 -0.536885
v 0.032888 0.003523 -0.536169
v 0.025099 0.001689 -0.543320
v 0.014145 -0.000278 -0.550179
v 0.016685 0.003523 -0.549754
v 0.006641 0.002703 -0.552777
v -0.001253 0.001870 -0.553757
v 0.023668 -0.002120 -0.545581
v -0.000657 -0.001916 -0.563332
v 0.012241 -0.003535 -0.553198
v -0.000877 -0.004278 -0.560219
v -0.001143 -0.002964 -0.555168
v 0.045859 -0.003455 -0.527560
v 0.041847 -0.002201 -0.538209
v 0.048256 -0.000100 -0.527036
v 0.033847 0.003219 -0.548413
v 0.048228 0.003535 -0.524136
v 0.041881 0.002736 -0.539307
v 0.040257 0.005699 -0.534942
v 0.024663 0.005559 -0.552319
v 0.038712 0.004939 -0.529492
v 0.028232 0.004930 -0.543542
v 0.017310 0.005302 -0.552361
vn 0.9956 -0.0934 -0.0070
vn 0.9022 -0.4313 0.0035
vn 0.5392 -0.8422 -0.0048
vn 0.2495 -0.9684 0.0034
vn -0.2019 -0.9794 -0.0039
vn -0.7055 -0.7087 0.0082
vn -0.8823 -0.4706 -0.0015
vn -0.9258 0.3779 0.0038
vn -0.9751 0.2213 0.0129
vn -0.4961 0.8682 -0.0053
vn 0.0948 0.9955 0.0049
vn 0.1739 0.9848 0.0019
vn 0.6429 0.7659 -0.0050
vn 0.8631 0.5050 0.0039
vn -0.9444 -0.2889 0.1570
vn 0.4079 0.1734 -0.8964
vn 0.1257 0.7974 -0.5902
vn 0.0342 0.9039 -0.4264
vn -0.9289 -0.1508 0.3381
vn -0.0827 -0.9903 0.1116
vn 0.3374 -0.8001 -0.4960
vn 0.4248 -0.5933 -0.6838
vn 0.3994 -0.4434 -0.8024
vn 0.2055 0.3163 -0.9261
vn -0.8982 0.3730 0.2328
vn -0.8708 0.1962 0.4507
vn -0.6855 0.0987 0.7214
vn -0.5452 0.2759 0.7916
vn -0.2938 0.0900 0.9516
vn -0.6923 -0.5469 0.4708
vn -0.7159 -0.4674 0.5186
vn -0.3711 -0.8275 0.4215
vn 0.1895 -0.5919 -0.7834
vn 0.1350 0.0163 -0.9907
vn -0.7327 -0.1221 0.6695
vn -0.3255 -0.7132 0.6208
vn -0.0820 -0.9897 0.1172
vn -0.2141 -0.8453 0.4895
vn 0.0538 -0.9907 -0.1248
vn 0.1069 -0.7958 -0.5961
vn -0.4614 -0.3182 0.8282
vn -0.4577 -0.4456 0.7694
vn -0.0776 -0.9659 0.2472
vn -0.1395 -0.6280 0.7656
vn -0.3153 0.0331 0.9484
vn -0.0890 -0.2809 0.9556
vn -0.7892 -0.5760 0.2130
vn -0.9143 -0.2202 0.3399
vn -0.1787 -0.9831 0.0391
vn -0.4107 -0.8862 0.2147
vn 0.1848 -0.9780 -0.0965
vn 0.6251 -0.7719 -0.1160
vn 0.3764 -0.8929 -0.2470
vn 0.4583 -0.8049 -0.3769
vn 0.8120 -0.5496 -0.1963
vn 0.7858 -0.5059 -0.3557
vn 0.9810 -0.1089 -0.1608
vn 0.8709 -0.1125 -0.4784
vn 0.7641 -0.1451 -0.6285
vn 0.7471 -0.0582 -0.6622
vn 0.6802 -0.0637 -0.7303
vn 0.9589 0.1813 -0.2182
vn 0.8710 0.3104 -0.3808
vn 0.4411 0.5581 -0.7028
vn 0.4266 0.5576 -0.7121
vn 0.7299 0.6721 -0.1246
vn 0.4957 0.8460 -0.1962
vn 0.5946 0.7505 -0.2883
vn 0.4682 0.8022 -0.3705
vn 0.3634 0.8701 -0.3331
vn 0.2275 0.8216 -0.5227
vn 0.1195 0.9924 -0.0288
vn -0.2635 0.9628 0.0596
vn -0.1342 0.9859 0.0995
vn -0.1588 0.9781 0.1346
vn -0.0352 0.9957 0.0856
vn -0.0353 0.9926 0.1164
vn 0.0079 0.9970 0.0766
vn -0.5611 0.8060 0.1883
vn -0.7231 0.4317 0.5392
vn -0.3510 0.8105 0.4689
vn -0.2221 0.8293 0.5127
vn -0.1945 0.6860 0.7012
vn -0.8862 0.4072 0.2212
vn -0.6291 0.6614 0.4084
vn -0.6052 0.6191 0.5004
vn -0.4580 0.4932 0.7396
vn -0.1598 0.7225 0.6726
vn -0.0000 -0.0000 1.0000
vn -0.9982 0.0179 -0.0572
vn -0.9980 -0.0044 -0.0624
vn -0.9982 -0.0008 -0.0596
vn -0.9981 -0.0031 -0.0622
s 0
f 51//95 52//95 53//95
f 51//96 54//96 52//96
f 52//97 54//97 55//97
f 55//98 54//98 56//98
f 55//99 56//99 57//99
f 57//100 56//100 58//100
f 57//101 58//101 59//101
f 59//102 58//102 60//102
f 59//103 60//103 61//103
f 61//104 60//104 62//104
f 62//105 60//105 63//105
f 62//106 63//106 64//106
f 64//107 63//107 53//107
f 53//108 63//108 51//108
f 59//109 65//109 66//109
f 70//110 71//110 72//110
f 72//111 73//111 74//111
f 74//112 73//112 75//112
f 66//113 65//113 67//113
f 67//114 76//114 68//114
f 69//115 68//115 77//115
f 69//116 77//116 70//116
f 70//117 77//117 71//117
f 72//118 71//118 73//118
f 59//119 61//119 65//119
f 78//120 65//120 79//120
f 78//121 79//121 80//121
f 81//122 80//122 82//122
f 81//123 82//123 83//123
f 67//124 78//124 76//124
f 65//125 78//125 67//125
f 78//126 85//126 76//126
f 71//127 77//127 86//127
f 71//128 86//128 73//128
f 78//129 80//129 85//129
f 76//130 85//130 87//130
f 76//131 87//131 68//131
f 68//132 87//132 88//132
f 68//133 88//133 77//133
f 86//134 77//134 88//134
f 80//135 81//135 85//135
f 85//136 81//136 87//136
f 87//137 89//137 88//137
f 87//138 81//138 89//138
f 81//139 83//139 89//139
f 83//140 84//140 89//140
f 57//141 59//141 66//141
f 57//142 66//142 67//142
f 55//143 57//143 67//143
f 55//144 67//144 68//144
f 90//145 55//145 68//145
f 52//146 55//146 90//146
f 91//147 90//147 68//147
f 91//148 68//148 69//148
f 92//149 52//149 90//149
f 92//150 90//150 91//150
f 53//151 52//151 92//151
f 92//152 91//152 95//152
f 95//153 91//153 69//153
f 95//154 69//154 93//154
f 93//155 69//155 70//155
f 94//156 53//156 92//156
f 94//157 92//157 95//157
f 93//158 70//158 97//158
f 97//159 70//159 72//159
f 64//160 53//160 94//160
f 64//161 94//161 96//161
f 96//162 94//162 95//162
f 96//163 95//163 93//163
f 96//164 93//164 97//164
f 97//165 72//165 74//165
f 62//166 64//166 96//166
f 62//167 96//167 98//167
f 98//168 96//168 99//168
f 99//169 96//169 97//169
f 99//170 97//170 100//170
f 100//171 97//171 74//171
f 100//172 74//172 75//172
f 61//173 62//173 98//173
f 79//174 98//174 99//174
f 99//175 100//175 82//175
f 82//176 100//176 83//176
f 83//177 100//177 75//177
f 65//178 61//178 98//178
f 79//179 65//179 98//179
f 80//180 79//180 99//180
f 82//181 80//181 99//181
f 84//182 83//182 75//182
f 51//183 58//183 56//183
f 58//183 51//183 60//183
f 60//183 51//183 63//183
f 51//183 56//183 54//183
f 89//184 86//184 88//184
f 89//185 84//185 73//185
f 86//186 89//186 73//186
f 73//187 84//187 75//187
o Sphere
v 0.000000 -0.027812 -0.434858
v 0.000000 -0.052901 -0.403794
v 0.000000 -0.072812 -0.355410
v 0.000000 -0.085595 -0.294444
v 0.000000 -0.090000 -0.226862
v 0.000000 -0.085595 -0.159279
v 0.000000 -0.072812 -0.098313
v 0.000000 -0.052901 -0.049930
v 0.000000 -0.027812 -0.018865
v 0.021744 -0.017340 -0.434858
v 0.041359 -0.032983 -0.403794
v 0.056926 -0.045397 -0.355410
v 0.066921 -0.053368 -0.294444
v 0.070365 -0.056114 -0.226862
v 0.066921 -0.053368 -0.159279
v 0.056926 -0.045397 -0.098313
v 0.041359 -0.032983 -0.049930
v 0.021744 -0.017340 -0.018865
v 0.027114 0.006189 -0.434858
v 0.051574 0.011772 -0.403794
v 0.070986 0.016202 -0.355410
v 0.083449 0.019047 -0.294444
v 0.087744 0.020027 -0.226862
v 0.083449 0.019047 -0.159279
v 0.070986 0.016202 -0.098313
v 0.051574 0.011772 -0.049930
v 0.027114 0.006189 -0.018865
v 0.012067 0.025057 -0.434858
v 0.022953 0.047662 -0.403794
v 0.031592 0.065601 -0.355410
v 0.037138 0.077119 -0.294444
v 0.039050 0.081087 -0.226862
v 0.037138 0.077119 -0.159279
v 0.031592 0.065601 -0.098313
v 0.022953 0.047662 -0.049930
v 0.012067 0.025057 -0.018865
v -0.012067 0.025057 -0.434858
v -0.022953 0.047662 -0.403794
v -0.031592 0.065601 -0.355410
v -0.037138 0.077119 -0.294444
v -0.039050 0.081087 -0.226862
v -0.037138 0.077119 -0.159279
v -0.031592 0.065601 -0.098313
v -0.022953 0.047662 -0.049930
v -0.012067 0.025057 -0.018865
v -0.027114 0.006189 -0.434858
v -0.051574 0.011772 -0.403794
v -0.070986 0.016202 -0.355410
v -0.083449 0.019047 -0.294444
v -0.087744 0.020027 -0.226862
v -0.083449 0.019047 -0.159279
v -0.070986 0.016202 -0.098313
v -0.051574 0.011772 -0.049930
v -0.027114 0.006189 -0.018865
v -0.021744 -0.017340 -0.434858
v -0.041359 -0.032983 -0.403794
v -0.056926 -0.045397 -0.355410
v -0.066921 -0.053368 -0.294444
v -0.070365 -0.056114 -0.226862
v -0.066921 -0.053368 -0.159279
v -0.056926 -0.045397 -0.098313
v -0.041359 -0.032983 -0.049930
v -0.021744 -0.017340 -0.018865
v 0.000000 0.000000 -0.008162
v 0.000000 0.000000 -0.445561
vn 0.4331 -0.8994 0.0586
vn 0.4068 -0.8448 -0.3476
vn 0.1704 -0.3539 0.9196
vn 0.4263 -0.8853 0.1856
vn 0.4263 -0.8853 -0.1856
vn 0.1704 -0.3539 -0.9196
vn 0.4068 -0.8448 0.3476
vn 0.4331 -0.8994 -0.0586
vn 0.3508 -0.7285 -0.5884
vn 0.3508 -0.7285 0.5884
vn 0.9141 -0.2086 -0.3476
vn 0.3830 -0.0874 0.9196
vn 0.9580 -0.2187 0.1856
vn 0.9580 -0.2187 -0.1856
vn 0.3830 -0.0874 -0.9196
vn 0.9141 -0.2086 0.3476
vn 0.9733 -0.2221 -0.0586
vn 0.7883 -0.1799 -0.5884
vn 0.7883 -0.1799 0.5884
vn 0.9733 -0.2221 0.0586
vn 0.6322 0.5041 0.5884
vn 0.7805 0.6224 0.0586
vn 0.7331 0.5846 -0.3476
vn 0.3071 0.2449 0.9196
vn 0.7682 0.6127 0.1856
vn 0.7682 0.6127 -0.1856
vn 0.3071 0.2449 -0.9196
vn 0.7331 0.5846 0.3476
vn 0.7805 0.6224 -0.0586
vn 0.6322 0.5041 -0.5884
vn -0.0000 0.9983 -0.0586
vn -0.0000 0.8086 -0.5884
vn -0.0000 0.8086 0.5884
vn -0.0000 0.9983 0.0586
vn -0.0000 0.9376 -0.3476
vn -0.0000 0.3928 0.9196
vn -0.0000 0.9826 0.1856
vn -0.0000 0.9826 -0.1856
vn -0.0000 0.3928 -0.9196
vn -0.0000 0.9376 0.3476
vn -0.3071 0.2449 -0.9196
vn -0.7331 0.5846 0.3476
vn -0.7805 0.6224 -0.0586
vn -0.6322 0.5041 -0.5884
vn -0.6322 0.5041 0.5884
vn -0.7805 0.6224 0.0586
vn -0.7331 0.5846 -0.3476
vn -0.3071 0.2449 0.9196
vn -0.7682 0.6127 0.1856
vn -0.7682 0.6127 -0.1856
vn -0.9580 -0.2187 -0.1856
vn -0.3830 -0.0874 -0.9196
vn -0.9141 -0.2086 0.3476
vn -0.9733 -0.2221 -0.0586
vn -0.7883 -0.1799 -0.5884
vn -0.7883 -0.1799 0.5884
vn -0.9733 -0.2221 0.0586
vn -0.9141 -0.2086 -0.3476
vn -0.3830 -0.0874 0.9196
vn -0.9580 -0.2187 0.1856
vn -0.1704 -0.3539 0.9196
vn -0.4263 -0.8853 0.1856
vn -0.4263 -0.8853 -0.1856
vn -0.1704 -0.3539 -0.9196
vn -0.4068 -0.8448 0.3476
vn -0.4331 -0.8994 -0.0586
vn -0.3508 -0.7285 -0.5884
vn -0.3508 -0.7285 0.5884
vn -0.4331 -0.8994 0.0586
vn -0.4068 -0.8448 -0.3476
vt 0.714286 0.400000
vt 0.714286 0.500000
vt 0.571429 0.500000
vt 0.571429 0.400000
vt 0.714286 0.700000
vt 0.714286 0.800000
vt 0.571429 0.800000
vt 0.571429 0.700000
vt 0.642857 0.000000
vt 0.714286 0.100000
vt 0.571429 0.100000
vt 0.714286 0.300000
vt 0.571429 0.300000
vt 0.714286 0.600000
vt 0.571429 0.600000
vt 0.714286 0.900000
vt 0.642857 1.000000
vt 0.571429 0.900000
vt 0.714286 0.200000
vt 0.571429 0.200000
vt 0.428571 0.800000
vt 0.428571 0.700000
vt 0.500000 0.000000
vt 0.428571 0.100000
vt 0.428571 0.400000
vt 0.428571 0.300000
vt 0.428571 0.600000
vt 0.500000 1.000000
vt 0.428571 0.900000
vt 0.428571 0.200000
vt 0.428571 0.500000
vt 0.285714 0.200000
vt 0.285714 0.100000
vt 0.285714 0.500000
vt 0.285714 0.400000
vt 0.285714 0.800000
vt 0.285714 0.700000
vt 0.357143 0.000000
vt 0.285714 0.300000
vt 0.285714 0.600000
vt 0.357143 1.000000
vt 0.285714 0.900000
vt 0.142857 0.600000
vt 0.142857 0.500000
vt 0.142857 0.900000
vt 0.142857 0.800000
vt 0.142857 0.200000
vt 0.142857 0.100000
vt 0.142857 0.400000
vt 0.142857 0.700000
vt 0.214286 0.000000
vt 0.142857 0.300000
vt 0.214286 1.000000
vt 0.071429 1.000000
vt 0.000000 0.900000
vt 0.000000 0.300000
vt 0.000000 0.200000
vt 0.000000 0.600000
vt 0.000000 0.500000
vt 0.000000 0.800000
vt 0.000000 0.100000
vt 0.000000 0.400000
vt 0.000000 0.700000
vt 0.071429 0.000000
vt 1.000000 0.600000
vt 1.000000 0.700000
vt 0.857143 0.700000
vt 0.857143 0.600000
vt 1.000000 0.900000
vt 0.928571 1.000000
vt 0.857143 0.900000
vt 1.000000 0.200000
vt 1.000000 0.300000
vt 0.857143 0.300000
vt 0.857143 0.200000
vt 1.000000 0.500000
vt 0.857143 0.500000
vt 1.000000 0.800000
vt 0.857143 0.800000
vt 1.000000 0.100000
vt 0.857143 0.100000
vt 1.000000 0.400000
vt 0.857143 0.400000
vt 0.928571 0.000000
vt 0.785714 0.000000
vt 0.785714 1.000000
s 0
f 106/1/188 105/2/188 114/3/188 115/4/188
f 103/5/189 102/6/189 111/7/189 112/8/189
f 164/9/190 109/10/190 118/11/190
f 107/12/191 106/1/191 115/4/191 116/13/191
f 104/14/192 103/5/192 112/8/192 113/15/192
f 101/16/193 165/17/193 110/18/193
f 108/19/194 107/12/194 116/13/194 117/20/194
f 105/2/195 104/14/195 113/15/195 114/3/195
f 102/6/196 101/16/196 110/18/196 111/7/196
f 109/10/197 108/19/197 117/20/197 118/11/197
f 112/8/198 111/7/198 120/21/198 121/22/198
f 164/23/199 118/11/199 127/24/199
f 116/13/200 115/4/200 124/25/200 125/26/200
f 113/15/201 112/8/201 121/22/201 122/27/201
f 110/18/202 165/28/202 119/29/202
f 117/20/203 116/13/203 125/26/203 126/30/203
f 114/3/204 113/15/204 122/27/204 123/31/204
f 111/7/205 110/18/205 119/29/205 120/21/205
f 118/11/206 117/20/206 126/30/206 127/24/206
f 115/4/207 114/3/207 123/31/207 124/25/207
f 127/24/208 126/30/208 135/32/208 136/33/208
f 124/25/209 123/31/209 132/34/209 133/35/209
f 121/22/210 120/21/210 129/36/210 130/37/210
f 164/38/211 127/24/211 136/33/211
f 125/26/212 124/25/212 133/35/212 134/39/212
f 122/27/213 121/22/213 130/37/213 131/40/213
f 119/29/214 165/41/214 128/42/214
f 126/30/215 125/26/215 134/39/215 135/32/215
f 123/31/216 122/27/216 131/40/216 132/34/216
f 120/21/217 119/29/217 128/42/217 129/36/217
f 132/34/218 131/40/218 140/43/218 141/44/218
f 129/36/219 128/42/219 137/45/219 138/46/219
f 136/33/220 135/32/220 144/47/220 145/48/220
f 133/35/221 132/34/221 141/44/221 142/49/221
f 130/37/222 129/36/222 138/46/222 139/50/222
f 164/51/223 136/33/223 145/48/223
f 134/39/224 133/35/224 142/49/224 143/52/224
f 131/40/225 130/37/225 139/50/225 140/43/225
f 128/42/226 165/53/226 137/45/226
f 135/32/227 134/39/227 143/52/227 144/47/227
f 137/45/228 165/54/228 146/55/228
f 144/47/229 143/52/229 152/56/229 153/57/229
f 141/44/230 140/43/230 149/58/230 150/59/230
f 138/46/231 137/45/231 146/55/231 147/60/231
f 145/48/232 144/47/232 153/57/232 154/61/232
f 142/49/233 141/44/233 150/59/233 151/62/233
f 139/50/234 138/46/234 147/60/234 148/63/234
f 164/64/235 145/48/235 154/61/235
f 143/52/236 142/49/236 151/62/236 152/56/236
f 140/43/237 139/50/237 148/63/237 149/58/237
f 149/65/238 148/66/238 157/67/238 158/68/238
f 146/69/239 165/70/239 155/71/239
f 153/72/240 152/73/240 161/74/240 162/75/240
f 150/76/241 149/65/241 158/68/241 159/77/241
f 147/78/242 146/69/242 155/71/242 156/79/242
f 154/80/243 153/72/243 162/75/243 163/81/243
f 151/82/244 150/76/244 159/77/244 160/83/244
f 148/66/245 147/78/245 156/79/245 157/67/245
f 164/84/246 154/80/246 163/81/246
f 152/73/247 151/82/247 160/83/247 161/74/247
f 164/85/248 163/81/248 109/10/248
f 161/74/249 160/83/249 106/1/249 107/12/249
f 158/68/250 157/67/250 103/5/250 104/14/250
f 155/71/251 165/86/251 101/16/251
f 162/75/252 161/74/252 107/12/252 108/19/252
f 159/77/253 158/68/253 104/14/253 105/2/253
f 156/79/254 155/71/254 101/16/254 102/6/254
f 163/81/255 162/75/255 108/19/255 109/10/255
f 160/83/256 159/77/256 105/2/256 106/1/256
f 157/67/257 156/79/257 102/6/257 103/5/257
o Sphere.001
v -0.130000 0.120000 0.002472
v -0.130000 0.120000 -0.206893
v -0.130000 -0.120000 0.002472
v -0.130000 -0.120000 -0.206893
v 0.130000 0.120000 0.002472
v 0.130000 0.120000 -0.206893
v 0.130000 -0.120000 0.002472
v 0.130000 -0.120000 -0.206893
vn -1.0000 -0.0000 -0.0000
vn -0.0000 -1.0000 -0.0000
vn 1.0000 -0.0000 -0.0000
vn -0.0000 1.0000 -0.0000
vn -0.0000 -0.0000 1.0000
vn -0.0000 -0.0000 -1.0000
vt 0.375000 0.000000
vt 0.625000 0.000000
vt 0.625000 0.250000
vt 0.375000 0.250000
vt 0.625000 0.500000
vt 0.375000 0.500000
vt 0.625000 0.750000
vt 0.375000 0.750000
vt 0.625000 1.000000
vt 0.375000 1.000000
vt 0.125000 0.500000
vt 0.125000 0.750000
vt 0.875000 0.500000
vt 0.875000 0.750000
s 0
f 166/87/258 167/88/258 169/89/258 168/90/258
f 168/90/259 169/89/259 173/91/259 172/92/259
f 172/92/260 173/91/260 171/93/260 170/94/260
f 170/94/261 171/93/261 167/95/261 166/96/261
f 168/97/262 172/92/262 170/94/262 166/98/262
f 173/91/263 169/99/263 167/100/263 171/93/263
