# Blender 4.0.2
# www.blender.org
o Sphere
v 0.000000 0.027812 -0.434858
v 0.000000 0.052901 -0.403794
v 0.000000 0.072812 -0.355410
v 0.000000 0.085595 -0.294444
v 0.000000 0.090000 -0.226862
v 0.000000 0.085595 -0.159279
v 0.000000 0.072812 -0.098313
v 0.000000 0.052901 -0.049930
v 0.000000 0.027812 -0.018865
v -0.021744 0.017340 -0.434858
v -0.041359 0.032983 -0.403794
v -0.056926 0.045397 -0.355410
v -0.066921 0.053368 -0.294444
v -0.070365 0.056114 -0.226862
v -0.066921 0.053368 -0.159279
v -0.056926 0.045397 -0.098313
v -0.041359 0.032983 -0.049930
v -0.021744 0.017340 -0.018865
v -0.027114 -0.006189 -0.434858
v -0.051574 -0.011772 -0.403794
v -0.070986 -0.016202 -0.355410
v -0.083449 -0.019047 -0.294444
v -0.087744 -0.020027 -0.226862
v -0.083449 -0.019047 -0.159279
v -0.070986 -0.016202 -0.098313
v -0.051574 -0.011772 -0.049930
v -0.027114 -0.006189 -0.018865
v -0.012067 -0.025057 -0.434858
v -0.022953 -0.047662 -0.403794
v -0.031592 -0.065601 -0.355410
v -0.037138 -0.077119 -0.294444
v -0.039050 -0.081087 -0.226862
v -0.037138 -0.077119 -0.159279
v -0.031592 -0.065601 -0.098313
v -0.022953 -0.047662 -0.049930
v -0.012067 -0.025057 -0.018865
v 0.012067 -0.025057 -0.434858
v 0.022953 -0.047662 -0.403794
v 0.031592 -0.065601 -0.355410
v 0.037138 -0.077119 -0.294444
v 0.039050 -0.081087 -0.226862
v 0.037138 -0.077119 -0.159279
v 0.031592 -0.065601 -0.098313
v 0.022953 -0.047662 -0.049930
v 0.012067 -0.025057 -0.018865
v 0.027114 -0.006189 -0.434858
v 0.051574 -0.011772 -0.403794
v 0.070986 -0.016202 -0.355410
v 0.083449 -0.019047 -0.294444
v 0.087744 -0.020027 -0.226862
v 0.083449 -0.019047 -0.159279
v 0.070986 -0.016202 -0.098313
v 0.051574 -0.011772 -0.049930
v 0.027114 -0.006189 -0.018865
v 0.021744 0.017340 -0.434858
v 0.041359 0.032983 -0.403794
v 0.056926 0.045397 -0.355410
v 0.066921 0.053368 -0.294444
v 0.070365 0.056114 -0.226862
v 0.066921 0.053368 -0.159279
v 0.056926 0.045397 -0.098313
v 0.041359 0.032983 -0.049930
v 0.021744 0.017340 -0.018865
v 0.000000 -0.000000 -0.008162
v 0.000000 -0.000000 -0.445561
vn -0.4331 0.8994 0.0586
vn -0.4068 0.8448 -0.3476
vn -0.1704 0.3539 0.9196
vn -0.4264 0.8853 0.1856
vn -0.4263 0.8853 -0.1856
vn -0.1704 0.3539 -0.9196
vn -0.4068 0.8448 0.3476
vn -0.4331 0.8994 -0.0586
vn -0.3508 0.7285 -0.5884
vn -0.3509 0.7285 0.5884
vn -0.9141 0.2086 -0.3476
vn -0.3830 0.0874 0.9196
vn -0.9580 0.2187 0.1856
vn -0.9580 0.2186 -0.1856
vn -0.3830 0.0874 -0.9196
vn -0.9141 0.2086 0.3477
vn -0.9732 0.2221 -0.0586
vn -0.7883 0.1799 -0.5884
vn -0.7883 0.1799 0.5884
vn -0.9733 0.2221 0.0586
vn -0.6322 -0.5042 0.5884
vn -0.7805 -0.6224 0.0586
vn -0.7331 -0.5846 -0.3476
vn -0.3071 -0.2449 0.9196
vn -0.7682 -0.6126 0.1856
vn -0.7682 -0.6127 -0.1856
vn -0.3071 -0.2449 -0.9196
vn -0.7331 -0.5846 0.3476
vn -0.7805 -0.6224 -0.0586
vn -0.6322 -0.5041 -0.5884
vn -0.0000 -0.9983 -0.0586
vn -0.0000 -0.8086 -0.5884
vn -0.0000 -0.8086 0.5884
vn -0.0000 -0.9983 0.0586
vn -0.0000 -0.9376 -0.3476
vn -0.0000 -0.3928 0.9196
vn -0.0000 -0.9826 0.1856
vn -0.0000 -0.9826 -0.1856
vn -0.0000 -0.3928 -0.9196
vn -0.0000 -0.9376 0.3476
vn 0.3071 -0.2449 -0.9196
vn 0.7331 -0.5846 0.3476
vn 0.7805 -0.6224 -0.0586
vn 0.6322 -0.5041 -0.5884
vn 0.6322 -0.5042 0.5884
vn 0.7805 -0.6224 0.0586
vn 0.7331 -0.5846 -0.3476
vn 0.3071 -0.2449 0.9196
vn 0.7682 -0.6126 0.1856
vn 0.7682 -0.6127 -0.1856
vn 0.9580 0.2186 -0.1856
vn 0.3830 0.0874 -0.9196
vn 0.9141 0.2086 0.3477
vn 0.9732 0.2221 -0.0586
vn 0.7883 0.1799 -0.5884
vn 0.7883 0.1799 0.5884
vn 0.9733 0.2221 0.0586
vn 0.9141 0.2086 -0.3476
vn 0.3830 0.0874 0.9196
vn 0.9580 0.2187 0.1856
vn 0.1704 0.3539 0.9196
vn 0.4264 0.8853 0.1856
vn 0.4263 0.8853 -0.1856
vn 0.1704 0.3539 -0.9196
vn 0.4068 0.8448 0.3476
vn 0.4331 0.8994 -0.0586
vn 0.3508 0.7285 -0.5884
vn 0.3509 0.7285 0.5884
vn 0.4331 0.8994 0.0586
vn 0.4068 0.8448 -0.3476
vn -0.4263 0.8853 0.1856
vn -0.4264 0.8853 -0.1856
vn -0.3508 0.7285 0.5884
vn -0.9580 0.2186 0.1856
vn -0.9580 0.2187 -0.1856
vn -0.9141 0.2086 0.3476
vn -0.9733 0.2221 -0.0586
vn -0.6322 -0.5041 0.5884
vn -0.7682 -0.6127 0.1856
vn -0.7682 -0.6126 -0.1856
vn 0.6322 -0.5041 0.5884
vn 0.7682 -0.6127 0.1856
vn 0.7682 -0.6126 -0.1856
vn 0.9580 0.2187 -0.1856
vn 0.9141 0.2086 0.3476
vn 0.9733 0.2221 -0.0586
vn 0.9732 0.2221 0.0586
vn 0.9580 0.2186 0.1856
vn 0.4263 0.8853 0.1856
vn 0.4264 0.8853 -0.1856
vn 0.3508 0.7285 0.5884
vt 0.714286 0.500000
vt 0.571429 0.400000
vt 0.714286 0.400000
vt 0.714286 0.800000
vt 0.571429 0.700000
vt 0.714286 0.700000
vt 0.642857 0.000000
vt 0.714286 0.100000
vt 0.571429 0.100000
vt 0.571429 0.300000
vt 0.714286 0.300000
vt 0.714286 0.600000
vt 0.571429 0.600000
vt 0.714286 0.900000
vt 0.642857 1.000000
vt 0.571429 0.900000
vt 0.714286 0.200000
vt 0.571429 0.200000
vt 0.571429 0.500000
vt 0.571429 0.800000
vt 0.428571 0.700000
vt 0.500000 0.000000
vt 0.428571 0.100000
vt 0.428571 0.400000
vt 0.428571 0.300000
vt 0.428571 0.600000
vt 0.500000 1.000000
vt 0.428571 0.900000
vt 0.428571 0.200000
vt 0.428571 0.500000
vt 0.428571 0.800000
vt 0.285714 0.100000
vt 0.285714 0.500000
vt 0.285714 0.400000
vt 0.285714 0.700000
vt 0.357143 0.000000
vt 0.285714 0.300000
vt 0.285714 0.600000
vt 0.357143 1.000000
vt 0.285714 0.900000
vt 0.285714 0.200000
vt 0.285714 0.800000
vt 0.142857 0.500000
vt 0.142857 0.900000
vt 0.142857 0.800000
vt 0.142857 0.100000
vt 0.142857 0.400000
vt 0.142857 0.700000
vt 0.214286 0.000000
vt 0.142857 0.300000
vt 0.142857 0.600000
vt 0.214286 1.000000
vt 0.142857 0.200000
vt 0.071429 1.000000
vt 0.000000 0.900000
vt 0.000000 0.200000
vt 0.000000 0.600000
vt 0.000000 0.500000
vt 0.000000 0.800000
vt 0.000000 0.100000
vt 0.000000 0.400000
vt 0.000000 0.700000
vt 0.071429 0.000000
vt 0.000000 0.300000
vt 1.000000 0.600000
vt 0.857143 0.700000
vt 0.857143 0.600000
vt 1.000000 0.900000
vt 0.928571 1.000000
vt 0.857143 0.900000
vt 1.000000 0.300000
vt 0.857143 0.200000
vt 1.000000 0.200000
vt 0.857143 0.500000
vt 1.000000 0.500000
vt 1.000000 0.800000
vt 0.857143 0.800000
vt 0.857143 0.100000
vt 1.000000 0.100000
vt 1.000000 0.400000
vt 0.857143 0.400000
vt 1.000000 0.700000
vt 0.928571 0.000000
vt 0.857143 0.300000
vt 0.785714 0.000000
vt 0.785714 1.000000
s 0
f 5/1/1 15/2/1 6/3/1
f 2/4/2 12/5/2 3/6/2
f 64/7/3 9/8/3 18/9/3
f 6/3/4 16/10/4 7/11/4
f 4/12/5 12/5/5 13/13/5
f 1/14/6 65/15/6 10/16/6
f 8/17/7 16/10/7 17/18/7
f 5/1/8 13/13/8 14/19/8
f 1/14/9 11/20/9 2/4/9
f 9/8/10 17/18/10 18/9/10
f 11/20/11 21/21/11 12/5/11
f 64/22/12 18/9/12 27/23/12
f 16/10/13 24/24/13 25/25/13
f 12/5/14 22/26/14 13/13/14
f 10/16/15 65/27/15 19/28/15
f 17/18/16 25/25/16 26/29/16
f 14/19/17 22/26/17 23/30/17
f 10/16/18 20/31/18 11/20/18
f 18/9/19 26/29/19 27/23/19
f 14/19/20 24/24/20 15/2/20
f 26/29/21 36/32/21 27/23/21
f 24/24/22 32/33/22 33/34/22
f 20/31/23 30/35/23 21/21/23
f 64/36/24 27/23/24 36/32/24
f 24/24/25 34/37/25 25/25/25
f 22/26/26 30/35/26 31/38/26
f 19/28/27 65/39/27 28/40/27
f 26/29/28 34/37/28 35/41/28
f 22/26/29 32/33/29 23/30/29
f 20/31/30 28/40/30 29/42/30
f 31/38/31 41/43/31 32/33/31
f 29/42/32 37/44/32 38/45/32
f 35/41/33 45/46/33 36/32/33
f 33/34/34 41/43/34 42/47/34
f 29/42/35 39/48/35 30/35/35
f 64/49/36 36/32/36 45/46/36
f 33/34/37 43/50/37 34/37/37
f 31/38/38 39/48/38 40/51/38
f 28/40/39 65/52/39 37/44/39
f 34/37/40 44/53/40 35/41/40
f 37/44/41 65/54/41 46/55/41
f 43/50/42 53/56/42 44/53/42
f 41/43/43 49/57/43 50/58/43
f 37/44/44 47/59/44 38/45/44
f 45/46/45 53/56/45 54/60/45
f 41/43/46 51/61/46 42/47/46
f 39/48/47 47/59/47 48/62/47
f 64/63/48 45/46/48 54/60/48
f 43/50/49 51/61/49 52/64/49
f 39/48/50 49/57/50 40/51/50
f 49/65/51 57/66/51 58/67/51
f 46/68/52 65/69/52 55/70/52
f 52/71/53 62/72/53 53/73/53
f 49/65/54 59/74/54 50/75/54
f 47/76/55 55/70/55 56/77/55
f 53/73/56 63/78/56 54/79/56
f 51/80/57 59/74/57 60/81/57
f 48/82/58 56/77/58 57/66/58
f 64/83/59 54/79/59 63/78/59
f 51/80/60 61/84/60 52/71/60
f 64/85/61 63/78/61 9/8/61
f 61/84/62 6/3/62 7/11/62
f 57/66/63 4/12/63 58/67/63
f 55/70/64 65/86/64 1/14/64
f 61/84/65 8/17/65 62/72/65
f 58/67/66 5/1/66 59/74/66
f 56/77/67 1/14/67 2/4/67
f 62/72/68 9/8/68 63/78/68
f 60/81/69 5/1/69 6/3/69
f 57/66/70 2/4/70 3/6/70
f 5/1/1 14/19/1 15/2/1
f 2/4/2 11/20/2 12/5/2
f 6/3/71 15/2/71 16/10/71
f 4/12/72 3/6/72 12/5/72
f 8/17/7 7/11/7 16/10/7
f 5/1/8 4/12/8 13/13/8
f 1/14/9 10/16/9 11/20/9
f 9/8/73 8/17/73 17/18/73
f 11/20/11 20/31/11 21/21/11
f 16/10/74 15/2/74 24/24/74
f 12/5/75 21/21/75 22/26/75
f 17/18/76 16/10/76 25/25/76
f 14/19/77 13/13/77 22/26/77
f 10/16/18 19/28/18 20/31/18
f 18/9/19 17/18/19 26/29/19
f 14/19/20 23/30/20 24/24/20
f 26/29/78 35/41/78 36/32/78
f 24/24/22 23/30/22 32/33/22
f 20/31/23 29/42/23 30/35/23
f 24/24/79 33/34/79 34/37/79
f 22/26/80 21/21/80 30/35/80
f 26/29/28 25/25/28 34/37/28
f 22/26/29 31/38/29 32/33/29
f 20/31/30 19/28/30 28/40/30
f 31/38/31 40/51/31 41/43/31
f 29/42/32 28/40/32 37/44/32
f 35/41/33 44/53/33 45/46/33
f 33/34/34 32/33/34 41/43/34
f 29/42/35 38/45/35 39/48/35
f 33/34/37 42/47/37 43/50/37
f 31/38/38 30/35/38 39/48/38
f 34/37/40 43/50/40 44/53/40
f 43/50/42 52/64/42 53/56/42
f 41/43/43 40/51/43 49/57/43
f 37/44/44 46/55/44 47/59/44
f 45/46/81 44/53/81 53/56/81
f 41/43/46 50/58/46 51/61/46
f 39/48/47 38/45/47 47/59/47
f 43/50/82 42/47/82 51/61/82
f 39/48/83 48/62/83 49/57/83
f 49/65/84 48/82/84 57/66/84
f 52/71/85 61/84/85 62/72/85
f 49/65/86 58/67/86 59/74/86
f 47/76/55 46/68/55 55/70/55
f 53/73/56 62/72/56 63/78/56
f 51/80/87 50/75/87 59/74/87
f 48/82/58 47/76/58 56/77/58
f 51/80/88 60/81/88 61/84/88
f 61/84/89 60/81/89 6/3/89
f 57/66/90 3/6/90 4/12/90
f 61/84/65 7/11/65 8/17/65
f 58/67/66 4/12/66 5/1/66
f 56/77/67 55/70/67 1/14/67
f 62/72/91 8/17/91 9/8/91
f 60/81/69 59/74/69 5/1/69
f 57/66/70 56/77/70 2/4/70
o Sphere.002
v 0.130000 -0.120000 0.002472
v 0.130000 -0.120000 -0.206893
v 0.130000 0.120000 0.002472
v 0.130000 0.120000 -0.206893
v -0.130000 -0.120000 0.002472
v -0.130000 -0.120000 -0.206893
v -0.130000 0.120000 0.002472
v -0.130000 0.120000 -0.206893
vn 1.0000 -0.0000 -0.0000
vn -0.0000 1.0000 -0.0000
vn -1.0000 -0.0000 -0.0000
vn -0.0000 -1.0000 -0.0000
vn -0.0000 -0.0000 1.0000
vn -0.0000 -0.0000 -1.0000
vt 0.625000 0.000000
vt 0.375000 0.250000
vt 0.375000 0.000000
vt 0.625000 0.250000
vt 0.375000 0.500000
vt 0.625000 0.500000
vt 0.375000 0.750000
vt 0.625000 0.750000
vt 0.375000 1.000000
vt 0.125000 0.750000
vt 0.125000 0.500000
vt 0.875000 0.500000
vt 0.625000 1.000000
vt 0.875000 0.750000
s 0
f 67/87/92 68/88/92 66/89/92
f 69/90/93 72/91/93 68/88/93
f 73/92/94 70/93/94 72/91/94
f 71/94/95 66/95/95 70/93/95
f 72/91/96 66/96/96 68/97/96
f 69/98/97 71/94/97 73/92/97
f 67/87/92 69/90/92 68/88/92
f 69/90/93 73/92/93 72/91/93
f 73/92/94 71/94/94 70/93/94
f 71/94/95 67/99/95 66/95/95
f 72/91/96 70/93/96 66/96/96
f 69/98/97 67/100/97 71/94/97
