# Blender 4.0.0
# www.blender.org
o handle.001
v 0.050790 -0.001109 -0.508778
v 0.051128 0.000697 -0.508778
v 0.050790 0.002504 -0.508778
v 0.049823 0.004066 -0.508778
v 0.049823 -0.002671 -0.508778
v 0.048356 -0.003779 -0.508778
v 0.046589 -0.004281 -0.508778
v 0.044759 -0.004112 -0.508778
v 0.043114 -0.003293 -0.508778
v 0.041877 -0.001935 -0.508778
v 0.041213 -0.000221 -0.508778
v 0.041213 0.001616 -0.508778
v 0.041877 0.003329 -0.508778
v 0.043114 0.004687 -0.508778
v 0.044759 0.005506 -0.508778
v 0.046589 0.005676 -0.508778
v 0.048356 0.005173 -0.508778
v 0.050756 0.000697 -0.515163
v 0.050378 -0.001216 -0.515119
v 0.049301 -0.002838 -0.514993
v 0.047690 -0.003922 -0.514805
v 0.045790 -0.004303 -0.514583
v 0.043889 -0.003922 -0.514360
v 0.042278 -0.002838 -0.514172
v 0.041201 -0.001216 -0.514046
v 0.040823 0.000697 -0.514002
v 0.041201 0.002611 -0.514046
v 0.042278 0.004233 -0.514172
v 0.043889 0.005317 -0.514360
v 0.045790 0.005697 -0.514583
v 0.047690 0.005317 -0.514805
v 0.049301 0.004233 -0.514993
v 0.050378 0.002611 -0.515119
v -0.058535 -0.001109 -0.508778
v -0.058500 0.000697 -0.515163
v -0.058122 0.002611 -0.515119
v -0.057046 0.004233 -0.514993
v -0.055435 0.005317 -0.514805
v -0.053534 0.005697 -0.514583
v -0.051634 0.005317 -0.514360
v -0.050023 0.004233 -0.514172
v -0.048946 0.002611 -0.514046
v -0.048568 0.000697 -0.514002
v -0.048946 -0.001216 -0.514046
v -0.050023 -0.002838 -0.514172
v -0.051634 -0.003922 -0.514360
v -0.053534 -0.004303 -0.514583
v -0.055435 -0.003922 -0.514805
v -0.057046 -0.002838 -0.514993
v -0.058122 -0.001216 -0.515119
v 0.039915 0.000697 -0.519156
v 0.040285 -0.001216 -0.519243
v 0.038771 -0.001216 -0.524299
v 0.039790 -0.002838 -0.524670
v 0.037650 -0.002838 -0.529631
v 0.039099 -0.003922 -0.530359
v 0.036303 -0.003922 -0.535202
v 0.037902 -0.004303 -0.536253
v 0.034430 -0.004303 -0.540917
v 0.035896 -0.003922 -0.542147
v 0.031753 -0.003922 -0.546538
v 0.032866 -0.002838 -0.547718
v 0.028097 -0.002838 -0.551720
v 0.028744 -0.001216 -0.552589
v 0.023437 -0.001216 -0.556080
v 0.023628 0.000697 -0.556409
v 0.017912 0.000697 -0.559280
v 0.017761 0.002611 -0.558930
v 0.011793 0.002611 -0.561103
v 0.011482 0.004233 -0.560064
v 0.005424 0.004233 -0.561500
v 0.005142 0.005317 -0.559903
v -0.000854 0.005317 -0.560604
v -0.000965 0.005697 -0.558693
v -0.006780 0.005697 -0.558693
v -0.006668 0.005317 -0.556783
v -0.012223 0.005317 -0.556134
v -0.011941 0.004233 -0.554537
v -0.017199 0.004233 -0.553290
v -0.016888 0.002611 -0.552252
v -0.021847 0.002611 -0.550447
v -0.021696 0.000697 -0.550098
v -0.026372 0.000697 -0.547749
v -0.026563 -0.001216 -0.548079
v -0.030972 -0.001216 -0.545179
v -0.031619 -0.002838 -0.546048
v -0.035758 -0.002838 -0.542575
v -0.036871 -0.003922 -0.543755
v -0.040709 -0.003922 -0.539687
v -0.042175 -0.004303 -0.540917
v -0.045647 -0.004303 -0.536253
v -0.047245 -0.003922 -0.537305
v -0.050264 -0.003922 -0.532077
v -0.051713 -0.002838 -0.532805
v -0.054179 -0.002838 -0.527088
v -0.055198 -0.001216 -0.527459
v -0.057019 -0.001216 -0.521374
v -0.057390 0.000697 -0.521462
v 0.038414 0.000697 -0.524169
v 0.036681 -0.001216 -0.529145
v 0.034948 -0.002838 -0.534311
v 0.032964 -0.003922 -0.539687
v 0.030440 -0.004303 -0.545147
v 0.027128 -0.003922 -0.550419
v 0.022895 -0.002838 -0.555141
v 0.017761 -0.001216 -0.558930
v 0.011902 0.000697 -0.561467
v 0.005612 0.002611 -0.562568
v -0.000760 0.004233 -0.562223
v -0.006891 0.005317 -0.560604
v -0.012555 0.005697 -0.558018
v -0.017664 0.005317 -0.554844
v -0.022276 0.004233 -0.551442
v -0.026563 0.002611 -0.548079
v -0.030744 0.000697 -0.544874
v -0.035014 -0.001216 -0.541787
v -0.039466 -0.002838 -0.538645
v -0.044048 -0.003922 -0.535202
v -0.048554 -0.004303 -0.531218
v -0.052655 -0.003922 -0.526533
v -0.055965 -0.002838 -0.521124
v 0.040285 0.002611 -0.519243
v 0.038771 0.002611 -0.524299
v 0.036341 0.000697 -0.528974
v 0.036681 0.002611 -0.529145
v 0.033725 0.000697 -0.533506
v 0.034043 0.002611 -0.533715
v 0.030600 0.000697 -0.537703
v 0.030891 0.002611 -0.537948
v 0.027009 0.000697 -0.541510
v 0.027270 0.002611 -0.541787
v 0.023000 0.000697 -0.544874
v 0.023227 0.002611 -0.545179
v 0.018628 0.000697 -0.547749
v 0.018818 0.002611 -0.548079
v 0.013951 0.000697 -0.550098
v 0.014102 0.002611 -0.550447
v 0.009034 0.000697 -0.551888
v 0.009143 0.002611 -0.552252
v 0.003942 0.000697 -0.553094
v 0.004008 0.002611 -0.553469
v -0.001256 0.000697 -0.553702
v -0.001234 0.002611 -0.554082
v -0.006489 0.000697 -0.553702
v -0.006511 0.002611 -0.554082
v -0.011687 0.000697 -0.553094
v -0.011753 0.002611 -0.553469
v -0.016779 0.000697 -0.551888
v 0.034043 -0.001216 -0.533715
v 0.031721 -0.002838 -0.538645
v 0.029127 -0.003922 -0.543755
v 0.025986 -0.004303 -0.548884
v 0.022084 -0.003922 -0.553736
v 0.017332 -0.002838 -0.557935
v 0.011793 -0.001216 -0.561103
v 0.005678 0.000697 -0.562942
v -0.000697 0.002611 -0.563305
v -0.006985 0.004233 -0.562223
v -0.012887 0.005317 -0.559903
v -0.018213 0.005697 -0.556677
v -0.022918 0.005317 -0.552932
v -0.027105 0.004233 -0.549017
v -0.030972 0.002611 -0.545179
v -0.034753 0.000697 -0.541510
v -0.038636 -0.001216 -0.537948
v -0.042693 -0.002838 -0.534311
v -0.046844 -0.003922 -0.530359
v -0.050857 -0.004303 -0.525879
v -0.054386 -0.003922 -0.520750
v 0.030891 -0.001216 -0.537948
v 0.028013 -0.002838 -0.542575
v 0.024843 -0.003922 -0.547349
v 0.021128 -0.004303 -0.552079
v 0.016689 -0.003922 -0.556446
v 0.011482 -0.002838 -0.560064
v 0.005612 -0.001216 -0.562568
v -0.000674 0.000697 -0.563685
v -0.007048 0.002611 -0.563305
v -0.013169 0.004233 -0.561500
v -0.018761 0.005317 -0.558511
v -0.023676 0.005697 -0.554689
v -0.027916 0.005317 -0.550422
v -0.031619 0.004233 -0.546048
v -0.035014 0.002611 -0.541787
v -0.038344 0.000697 -0.537703
v -0.041787 -0.001216 -0.533715
v -0.045395 -0.002838 -0.529631
v -0.049059 -0.003922 -0.525225
v -0.052525 -0.004303 -0.520309
v 0.027270 -0.001216 -0.541787
v 0.023874 -0.002838 -0.546048
v 0.020171 -0.003922 -0.550422
v 0.015932 -0.004303 -0.554689
v 0.011017 -0.003922 -0.558511
v 0.005424 -0.002838 -0.561500
v -0.000697 -0.001216 -0.563305
v -0.007070 0.000697 -0.563685
v -0.013357 0.002611 -0.562568
v -0.019227 0.004233 -0.560064
v -0.024434 0.005317 -0.556446
v -0.028872 0.005697 -0.552079
v -0.032588 0.005317 -0.547349
v -0.035758 0.004233 -0.542575
v -0.038636 0.002611 -0.537948
v -0.041469 0.000697 -0.533506
v -0.044426 -0.001216 -0.529145
v -0.047535 -0.002838 -0.524670
v -0.050663 -0.003922 -0.519868
v 0.023227 -0.001216 -0.545179
v 0.019360 -0.002838 -0.549017
v 0.015174 -0.003922 -0.552932
v 0.010468 -0.004303 -0.556677
v 0.005142 -0.003922 -0.559903
v -0.000760 -0.002838 -0.562223
v -0.007048 -0.001216 -0.563305
v -0.013423 0.000697 -0.562942
v -0.019537 0.002611 -0.561103
v -0.025077 0.004233 -0.557935
v -0.029829 0.005317 -0.553736
v -0.033730 0.005697 -0.548884
v -0.036871 0.005317 -0.543755
v -0.039466 0.004233 -0.538645
v -0.041787 0.002611 -0.533715
v -0.044086 0.000697 -0.528974
v -0.046516 -0.001216 -0.524299
v -0.049084 -0.002838 -0.519493
v 0.018818 -0.001216 -0.548079
v 0.014531 -0.002838 -0.551442
v 0.009919 -0.003922 -0.554844
v 0.004810 -0.004303 -0.558018
v -0.000854 -0.003922 -0.560604
v -0.006985 -0.002838 -0.562223
v -0.013357 -0.001216 -0.562568
v -0.019647 0.000697 -0.561467
v -0.025506 0.002611 -0.558930
v -0.030640 0.004233 -0.555141
v -0.034873 0.005317 -0.550419
v -0.038184 0.005697 -0.545147
v -0.040709 0.005317 -0.539687
v -0.042693 0.004233 -0.534311
v -0.044426 0.002611 -0.529145
v -0.046159 0.000697 -0.524169
v -0.048030 -0.001216 -0.519243
v 0.014102 -0.001216 -0.550447
v 0.009454 -0.002838 -0.553290
v 0.004478 -0.003922 -0.556134
v -0.000965 -0.004303 -0.558693
v -0.006891 -0.003922 -0.560604
v -0.013169 -0.002838 -0.561500
v -0.019537 -0.001216 -0.561103
v -0.025657 0.000697 -0.559280
v -0.031182 0.002611 -0.556080
v -0.035842 0.004233 -0.551720
v -0.039498 0.005317 -0.546538
v -0.042175 0.005697 -0.540917
v -0.044048 0.005317 -0.535202
v -0.045395 0.004233 -0.529631
v -0.046516 0.002611 -0.524299
v -0.047659 0.000697 -0.519156
v 0.009143 -0.001216 -0.552252
v 0.004196 -0.002838 -0.554537
v -0.001076 -0.003922 -0.556783
v -0.006780 -0.004303 -0.558693
v -0.012887 -0.003922 -0.559903
v -0.019227 -0.002838 -0.560064
v -0.025506 -0.001216 -0.558930
v -0.031372 0.000697 -0.556409
v -0.036489 0.002611 -0.552589
v -0.040611 0.004233 -0.547718
v -0.043640 0.005317 -0.542147
v -0.045647 0.005697 -0.536253
v -0.046844 0.005317 -0.530359
v -0.047535 0.004233 -0.524670
v -0.048030 0.002611 -0.519243
v 0.004008 -0.001216 -0.553469
v -0.001171 -0.002838 -0.555164
v -0.006668 -0.003922 -0.556783
v -0.012555 -0.004303 -0.558018
v -0.018761 -0.003922 -0.558511
v -0.025077 -0.002838 -0.557935
v -0.031182 -0.001216 -0.556080
v -0.036716 0.000697 -0.552895
v -0.041354 0.002611 -0.548507
v -0.044883 0.004233 -0.543190
v -0.047245 0.005317 -0.537305
v -0.048554 0.005697 -0.531218
v -0.049059 0.005317 -0.525225
v -0.049084 0.004233 -0.519493
v -0.001234 -0.001216 -0.554082
v -0.006574 -0.002838 -0.555164
v -0.012223 -0.003922 -0.556134
v -0.018213 -0.004303 -0.556677
v -0.024434 -0.003922 -0.556446
v -0.030640 -0.002838 -0.555141
v -0.036489 -0.001216 -0.552589
v -0.041616 0.000697 -0.548784
v -0.045713 0.002611 -0.543887
v -0.048601 0.004233 -0.538196
v -0.050264 0.005317 -0.532077
v -0.050857 0.005697 -0.525879
v -0.050663 0.005317 -0.519868
v -0.006511 -0.001216 -0.554082
v -0.011941 -0.002838 -0.554537
v -0.017664 -0.003922 -0.554844
v -0.023676 -0.004303 -0.554689
v -0.029829 -0.003922 -0.553736
v -0.035842 -0.002838 -0.551720
v -0.041354 -0.001216 -0.548507
v -0.046005 0.000697 -0.544131
v -0.049506 0.002611 -0.538792
v -0.051713 0.004233 -0.532805
v -0.052655 0.005317 -0.526533
v -0.052525 0.005697 -0.520309
v -0.011753 -0.001216 -0.553469
v -0.017199 -0.002838 -0.553290
v -0.022918 -0.003922 -0.552932
v -0.028872 -0.004303 -0.552079
v -0.034873 -0.003922 -0.550419
v -0.040611 -0.002838 -0.547718
v -0.045713 -0.001216 -0.543887
v -0.049824 0.000697 -0.539001
v -0.052682 0.002611 -0.533291
v -0.054179 0.004233 -0.527088
v -0.054386 0.005317 -0.520750
v -0.016888 -0.001216 -0.552252
v -0.022276 -0.002838 -0.551442
v -0.027916 -0.003922 -0.550422
v -0.033730 -0.004303 -0.548884
v -0.039498 -0.003922 -0.546538
v -0.044883 -0.002838 -0.543190
v -0.049506 -0.001216 -0.538792
v -0.053022 0.000697 -0.533462
v -0.055198 0.002611 -0.527459
v -0.055965 0.004233 -0.521124
v -0.021847 -0.001216 -0.550447
v -0.027105 -0.002838 -0.549017
v -0.032588 -0.003922 -0.547349
v -0.038184 -0.004303 -0.545147
v -0.043640 -0.003922 -0.542147
v -0.048601 -0.002838 -0.538196
v -0.052682 -0.001216 -0.533291
v -0.055555 0.000697 -0.527589
v -0.057019 0.002611 -0.521374
v 0.041340 -0.002838 -0.519493
v 0.042918 -0.003922 -0.519868
v 0.041314 -0.003922 -0.525225
v 0.044780 -0.004303 -0.520309
v 0.043112 -0.004303 -0.525879
v 0.040809 -0.004303 -0.531218
v 0.046642 -0.003922 -0.520750
v 0.044910 -0.003922 -0.526533
v 0.042519 -0.003922 -0.532077
v 0.039501 -0.003922 -0.537305
v 0.048220 -0.002838 -0.521124
v 0.046435 -0.002838 -0.527088
v 0.043969 -0.002838 -0.532805
v 0.040856 -0.002838 -0.538196
v 0.037138 -0.002838 -0.543190
v 0.049275 -0.001216 -0.521374
v 0.047453 -0.001216 -0.527459
v 0.044937 -0.001216 -0.533291
v 0.041761 -0.001216 -0.538792
v 0.037969 -0.001216 -0.543887
v 0.033610 -0.001216 -0.548507
v 0.049645 0.000697 -0.521462
v 0.047811 0.000697 -0.527589
v 0.045277 0.000697 -0.533462
v 0.042079 0.000697 -0.539001
v 0.038260 0.000697 -0.544131
v 0.033871 0.000697 -0.548784
v 0.028971 0.000697 -0.552895
v 0.049275 0.002611 -0.521374
v 0.047453 0.002611 -0.527459
v 0.044937 0.002611 -0.533291
v 0.041761 0.002611 -0.538792
v 0.037969 0.002611 -0.543887
v 0.033610 0.002611 -0.548507
v 0.028744 0.002611 -0.552589
v 0.023437 0.002611 -0.556080
v 0.048220 0.004233 -0.521124
v 0.046435 0.004233 -0.527088
v 0.043969 0.004233 -0.532805
v 0.040856 0.004233 -0.538196
v 0.037138 0.004233 -0.543190
v 0.032866 0.004233 -0.547718
v 0.028097 0.004233 -0.551720
v 0.022895 0.004233 -0.555141
v 0.017332 0.004233 -0.557935
v 0.046642 0.005317 -0.520750
v 0.044910 0.005317 -0.526533
v 0.042519 0.005317 -0.532077
v 0.039501 0.005317 -0.537305
v 0.035896 0.005317 -0.542147
v 0.031753 0.005317 -0.546538
v 0.027128 0.005317 -0.550419
v 0.022084 0.005317 -0.553736
v 0.016689 0.005317 -0.556446
v 0.011017 0.005317 -0.558511
v 0.044780 0.005697 -0.520309
v 0.043112 0.005697 -0.525879
v 0.040809 0.005697 -0.531218
v 0.037902 0.005697 -0.536253
v 0.034430 0.005697 -0.540917
v 0.030440 0.005697 -0.545147
v 0.025986 0.005697 -0.548884
v 0.021128 0.005697 -0.552079
v 0.015932 0.005697 -0.554689
v 0.010468 0.005697 -0.556677
v 0.004810 0.005697 -0.558018
v 0.042918 0.005317 -0.519868
v 0.041314 0.005317 -0.525225
v 0.039099 0.005317 -0.530359
v 0.036303 0.005317 -0.535202
v 0.032964 0.005317 -0.539687
v 0.029127 0.005317 -0.543755
v 0.024843 0.005317 -0.547349
v 0.020171 0.005317 -0.550422
v 0.015174 0.005317 -0.552932
v 0.009919 0.005317 -0.554844
v 0.004478 0.005317 -0.556134
v -0.001076 0.005317 -0.556783
v 0.041340 0.004233 -0.519493
v 0.039790 0.004233 -0.524670
v 0.037650 0.004233 -0.529631
v 0.034948 0.004233 -0.534311
v 0.031721 0.004233 -0.538645
v 0.028013 0.004233 -0.542575
v 0.023874 0.004233 -0.546048
v 0.019360 0.004233 -0.549017
v 0.014531 0.004233 -0.551442
v 0.009454 0.004233 -0.553290
v 0.004196 0.004233 -0.554537
v -0.001171 0.004233 -0.555164
v -0.006574 0.004233 -0.555164
v -0.052504 -0.004112 -0.508778
v -0.054334 -0.004281 -0.508778
v -0.048957 0.001616 -0.508778
v -0.048957 -0.000221 -0.508778
v -0.054334 0.005676 -0.508778
v -0.052504 0.005506 -0.508778
v -0.058872 0.000697 -0.508778
v -0.058535 0.002504 -0.508778
v -0.056101 -0.003779 -0.508778
v -0.049621 -0.001935 -0.508778
v -0.050859 0.004687 -0.508778
v -0.057567 0.004066 -0.508778
v -0.057567 -0.002671 -0.508778
v -0.050859 -0.003293 -0.508778
v -0.049621 0.003329 -0.508778
v -0.056101 0.005173 -0.508778
vn 0.9814 0.1834 -0.0572
vn 0.9814 -0.1834 -0.0572
vn 0.9790 -0.1948 -0.0604
vn 0.8493 -0.5259 -0.0463
vn 0.8300 -0.5551 -0.0547
vn 0.6024 -0.7977 -0.0291
vn 0.5544 -0.8312 -0.0415
vn 0.2737 -0.9618 -0.0073
vn 0.1937 -0.9808 -0.0231
vn -0.0923 -0.9956 0.0164
vn -0.1967 -0.9805 -0.0027
vn -0.4454 -0.8945 0.0390
vn -0.5568 -0.8305 0.0164
vn -0.7378 -0.6726 0.0577
vn -0.8317 -0.5544 0.0310
vn -0.9302 -0.3603 0.0700
vn -0.9801 -0.1945 0.0388
vn -0.9972 -0.0000 0.0743
vn -0.9801 0.1945 0.0388
vn -0.9302 0.3603 0.0700
vn -0.8317 0.5544 0.0310
vn -0.7378 0.6726 0.0577
vn -0.5568 0.8305 0.0164
vn -0.4454 0.8945 0.0390
vn -0.1967 0.9805 -0.0027
vn -0.0923 0.9956 0.0164
vn 0.1937 0.9808 -0.0231
vn 0.2737 0.9618 -0.0073
vn 0.5544 0.8312 -0.0415
vn 0.6024 0.7977 -0.0291
vn 0.8300 0.5551 -0.0547
vn 0.8493 0.5259 -0.0463
vn 0.9790 0.1948 -0.0604
vn -0.9814 -0.1834 -0.0572
vn -0.9814 0.1834 -0.0572
vn -0.9790 0.1948 -0.0604
vn -0.8493 0.5259 -0.0463
vn -0.8300 0.5551 -0.0547
vn -0.6024 0.7977 -0.0291
vn -0.5544 0.8312 -0.0415
vn -0.2737 0.9618 -0.0073
vn -0.1937 0.9808 -0.0231
vn 0.0923 0.9956 0.0164
vn 0.1967 0.9805 -0.0027
vn 0.4454 0.8945 0.0390
vn 0.5568 0.8305 0.0164
vn 0.7378 0.6726 0.0577
vn 0.8317 0.5544 0.0310
vn 0.9302 0.3604 0.0700
vn 0.9801 0.1945 0.0388
vn 0.9972 -0.0000 0.0743
vn 0.9801 -0.1945 0.0388
vn 0.9302 -0.3604 0.0700
vn 0.8317 -0.5544 0.0310
vn 0.7378 -0.6726 0.0577
vn 0.5568 -0.8305 0.0164
vn 0.4454 -0.8945 0.0390
vn 0.1967 -0.9805 -0.0027
vn 0.0923 -0.9956 0.0164
vn -0.1937 -0.9808 -0.0231
vn -0.2737 -0.9618 -0.0073
vn -0.5544 -0.8312 -0.0415
vn -0.6024 -0.7977 -0.0291
vn -0.8300 -0.5551 -0.0547
vn -0.8493 -0.5259 -0.0463
vn -0.9790 -0.1948 -0.0604
vn -0.9659 -0.1948 0.1703
vn -0.9396 -0.1948 0.2813
vn -0.7970 -0.5549 0.2386
vn -0.7639 -0.5549 0.3295
vn -0.5107 -0.8310 0.2203
vn -0.4817 -0.8310 0.2781
vn -0.1692 -0.9807 0.0977
vn -0.1567 -0.9807 0.1167
vn 0.1567 -0.9807 -0.1167
vn 0.1421 -0.9807 -0.1341
vn 0.4046 -0.8310 -0.3817
vn 0.3575 -0.8310 -0.4261
vn 0.5347 -0.5549 -0.6373
vn 0.4571 -0.5549 -0.6950
vn 0.5390 -0.1947 -0.8195
vn 0.4402 -0.1948 -0.8765
vn 0.4402 0.1948 -0.8765
vn 0.3355 0.1948 -0.9217
vn 0.2845 0.5549 -0.7817
vn 0.1919 0.5549 -0.8095
vn 0.1283 0.8310 -0.5413
vn 0.0646 0.8310 -0.5524
vn 0.0227 0.9807 -0.1941
vn -0.0000 0.9807 -0.1954
vn -0.0000 0.9807 0.1954
vn 0.0227 0.9807 0.1941
vn 0.0646 0.8310 0.5525
vn 0.1283 0.8310 0.5412
vn 0.1918 0.5549 0.8095
vn 0.2845 0.5550 0.7817
vn 0.3355 0.1948 0.9217
vn 0.4402 0.1948 0.8765
vn 0.4402 -0.1947 0.8765
vn 0.5390 -0.1949 0.8195
vn 0.4572 -0.5549 0.6951
vn 0.5347 -0.5550 0.6372
vn 0.3575 -0.8310 0.4261
vn 0.4046 -0.8310 0.3817
vn 0.1421 -0.9807 0.1341
vn 0.1567 -0.9807 0.1167
vn -0.1567 -0.9807 -0.1167
vn -0.1692 -0.9807 -0.0977
vn -0.4817 -0.8310 -0.2781
vn -0.5108 -0.8310 -0.2203
vn -0.7639 -0.5549 -0.3295
vn -0.7970 -0.5549 -0.2386
vn -0.9396 -0.1948 -0.2813
vn -0.9659 -0.1948 -0.1703
vn -0.9659 0.1948 -0.1703
vn -0.9006 -0.1948 0.3885
vn -0.7204 -0.5549 0.4160
vn -0.4462 -0.8310 0.3322
vn -0.1421 -0.9807 0.1341
vn 0.1256 -0.9807 -0.1497
vn 0.3057 -0.8310 -0.4647
vn 0.4571 -0.5549 -0.6951
vn 0.3734 -0.5549 -0.7434
vn 0.3355 -0.1948 -0.9217
vn 0.2262 0.1948 -0.9544
vn 0.1918 0.5549 -0.8095
vn 0.0966 0.5549 -0.8263
vn 0.0646 0.8310 -0.5525
vn -0.0000 0.8310 -0.5562
vn -0.0227 0.9807 -0.1941
vn 0.0451 0.9807 0.1901
vn 0.1902 0.8310 0.5227
vn 0.2845 0.5549 0.7818
vn 0.3734 0.5549 0.7434
vn 0.5390 0.1947 0.8195
vn 0.5390 -0.1947 0.8195
vn 0.6305 -0.1949 0.7514
vn 0.5348 -0.5549 0.6373
vn 0.6051 -0.5549 0.5709
vn 0.4462 -0.8310 0.3322
vn 0.1692 -0.9807 0.0977
vn -0.1794 -0.9807 -0.0774
vn -0.5107 -0.8310 -0.2203
vn -0.5328 -0.8310 -0.1595
vn -0.7969 -0.5549 -0.2386
vn -0.8192 -0.5549 -0.1445
vn -0.9659 0.1948 0.1703
vn -0.9396 0.1948 0.2813
vn -0.9006 0.1948 0.3885
vn -0.8494 0.1948 0.4904
vn -0.7868 0.1948 0.5857
vn -0.7134 0.1948 0.6731
vn -0.6305 0.1948 0.7514
vn -0.5390 0.1947 0.8195
vn -0.5390 0.1949 0.8195
vn -0.4402 0.1948 0.8765
vn -0.3355 0.1948 0.9217
vn -0.2262 0.1947 0.9544
vn -0.2262 0.1948 0.9544
vn -0.1139 0.1947 0.9742
vn -0.0000 0.1948 0.9808
vn 0.1139 0.1947 0.9742
vn 0.1139 0.1948 0.9742
vn 0.2262 0.1948 0.9544
vn 0.2262 0.1947 0.9544
vn -0.8494 -0.1948 0.4904
vn -0.7205 -0.5549 0.4160
vn -0.6673 -0.5549 0.4968
vn -0.4462 -0.8310 0.3321
vn -0.4046 -0.8310 0.3817
vn -0.1256 -0.9807 0.1497
vn 0.1074 -0.9807 -0.1633
vn 0.3056 -0.8310 -0.4647
vn 0.2496 -0.8310 -0.4971
vn 0.2845 -0.5549 -0.7817
vn 0.3355 -0.1947 -0.9217
vn 0.2262 -0.1948 -0.9544
vn 0.1139 0.1947 -0.9742
vn -0.0000 0.5549 -0.8319
vn -0.0646 0.8310 -0.5525
vn -0.0451 0.9807 -0.1901
vn 0.0451 0.9807 0.1902
vn 0.0668 0.9807 0.1836
vn 0.2496 0.8310 0.4971
vn 0.3733 0.5549 0.7434
vn 0.4571 0.5549 0.6951
vn 0.5390 0.1948 0.8195
vn 0.6305 0.1948 0.7514
vn 0.6305 -0.1947 0.7514
vn 0.7134 -0.1948 0.6731
vn 0.6673 -0.5549 0.4968
vn 0.4461 -0.8310 0.3321
vn 0.4817 -0.8310 0.2781
vn 0.1794 -0.9807 0.0774
vn -0.1872 -0.9807 -0.0560
vn -0.5329 -0.8310 -0.1595
vn -0.5478 -0.8310 -0.0966
vn -0.8193 -0.5549 -0.1445
vn -0.8494 -0.1947 0.4904
vn -0.7868 -0.1947 0.5857
vn -0.6051 -0.5549 0.5709
vn -0.3575 -0.8310 0.4261
vn -0.1074 -0.9807 0.1633
vn 0.0877 -0.9807 -0.1746
vn 0.1902 -0.8310 -0.5227
vn 0.1918 -0.5549 -0.8095
vn 0.1139 -0.1947 -0.9742
vn -0.0000 0.1947 -0.9809
vn -0.0966 0.5549 -0.8263
vn -0.1283 0.8310 -0.5412
vn -0.0668 0.9807 -0.1836
vn 0.0877 0.9807 0.1746
vn 0.3056 0.8310 0.4647
vn 0.4572 0.5549 0.6951
vn 0.5347 0.5549 0.6373
vn 0.7134 0.1948 0.6731
vn 0.7868 -0.1948 0.5857
vn 0.7204 -0.5549 0.4159
vn 0.5107 -0.8310 0.2203
vn 0.1872 -0.9807 0.0560
vn -0.1924 -0.9807 -0.0339
vn -0.7868 -0.1948 0.5857
vn -0.7134 -0.1948 0.6731
vn -0.5347 -0.5549 0.6373
vn -0.3057 -0.8310 0.4647
vn -0.0877 -0.9807 0.1746
vn 0.0668 -0.9807 -0.1836
vn 0.1283 -0.8310 -0.5412
vn 0.1919 -0.5549 -0.8095
vn 0.0966 -0.5549 -0.8263
vn -0.0000 -0.1948 -0.9808
vn -0.0000 0.1948 -0.9808
vn -0.1139 0.1947 -0.9742
vn -0.1919 0.5549 -0.8095
vn -0.1902 0.8310 -0.5227
vn -0.0877 0.9807 -0.1746
vn 0.1074 0.9807 0.1633
vn 0.3057 0.8310 0.4647
vn 0.3575 0.8310 0.4261
vn 0.6051 0.5549 0.5709
vn 0.7867 0.1948 0.5857
vn 0.8494 -0.1948 0.4904
vn 0.7205 -0.5549 0.4160
vn 0.7639 -0.5549 0.3295
vn 0.5328 -0.8310 0.1595
vn 0.1924 -0.9807 0.0339
vn -0.6305 -0.1948 0.7514
vn -0.4572 -0.5549 0.6951
vn -0.3056 -0.8310 0.4647
vn -0.2496 -0.8310 0.4971
vn -0.0668 -0.9807 0.1836
vn 0.0451 -0.9807 -0.1902
vn 0.0646 -0.8310 -0.5525
vn -0.0000 -0.5549 -0.8319
vn -0.0000 -0.1947 -0.9809
vn -0.1139 -0.1947 -0.9742
vn -0.1139 0.1948 -0.9742
vn -0.2262 0.1947 -0.9544
vn -0.2845 0.5549 -0.7817
vn -0.2496 0.8310 -0.4971
vn -0.1074 0.9807 -0.1633
vn 0.1256 0.9807 0.1497
vn 0.4046 0.8310 0.3817
vn 0.6673 0.5549 0.4968
vn 0.7868 0.1948 0.5857
vn 0.8494 0.1948 0.4904
vn 0.9006 -0.1948 0.3885
vn 0.7970 -0.5549 0.2386
vn 0.5329 -0.8310 0.1595
vn 0.5478 -0.8310 0.0966
vn -0.5390 -0.1948 0.8195
vn -0.3733 -0.5549 0.7434
vn -0.1902 -0.8311 0.5226
vn -0.0451 -0.9807 0.1902
vn 0.0451 -0.9807 -0.1901
vn 0.0227 -0.9807 -0.1941
vn -0.0000 -0.8310 -0.5562
vn -0.0966 -0.5549 -0.8263
vn -0.1139 -0.1948 -0.9742
vn -0.2262 -0.1947 -0.9544
vn -0.2262 0.1948 -0.9544
vn -0.3355 0.1947 -0.9217
vn -0.3734 0.5549 -0.7434
vn -0.3056 0.8310 -0.4647
vn -0.1256 0.9807 -0.1497
vn 0.1421 0.9807 0.1341
vn 0.4462 0.8310 0.3321
vn 0.7204 0.5549 0.4160
vn 0.9006 0.1948 0.3885
vn 0.9396 -0.1948 0.2813
vn 0.8193 -0.5549 0.1445
vn -0.5390 -0.1947 0.8195
vn -0.4402 -0.1948 0.8765
vn -0.3734 -0.5549 0.7434
vn -0.2845 -0.5549 0.7818
vn -0.1903 -0.8310 0.5227
vn -0.1283 -0.8310 0.5412
vn -0.0451 -0.9807 0.1901
vn -0.0227 -0.9807 0.1941
vn -0.0000 -0.9807 -0.1954
vn -0.0646 -0.8310 -0.5525
vn -0.1918 -0.5549 -0.8095
vn -0.2262 -0.1948 -0.9544
vn -0.3355 -0.1947 -0.9217
vn -0.3355 0.1948 -0.9217
vn -0.4402 0.1948 -0.8765
vn -0.4571 0.5549 -0.6950
vn -0.3057 0.8310 -0.4647
vn -0.3575 0.8310 -0.4261
vn -0.1421 0.9807 -0.1341
vn 0.1567 0.9807 0.1167
vn 0.4462 0.8310 0.3322
vn 0.4817 0.8310 0.2781
vn 0.7204 0.5549 0.4159
vn 0.7639 0.5549 0.3295
vn 0.9396 0.1948 0.2813
vn 0.9659 -0.1948 0.1703
vn -0.3355 -0.1948 0.9217
vn -0.2845 -0.5550 0.7817
vn -0.1918 -0.5549 0.8095
vn -0.0646 -0.8310 0.5525
vn -0.0000 -0.9807 0.1954
vn -0.0227 -0.9807 -0.1941
vn -0.0646 -0.8311 -0.5524
vn -0.1283 -0.8310 -0.5412
vn -0.1919 -0.5549 -0.8095
vn -0.2845 -0.5549 -0.7817
vn -0.3355 -0.1948 -0.9217
vn -0.4402 -0.1948 -0.8765
vn -0.5390 0.1947 -0.8195
vn -0.4571 0.5550 -0.6950
vn -0.5347 0.5549 -0.6373
vn -0.4046 0.8310 -0.3817
vn -0.1567 0.9807 -0.1167
vn 0.1692 0.9807 0.0977
vn 0.5107 0.8310 0.2203
vn 0.7970 0.5549 0.2386
vn 0.9659 0.1948 0.1703
vn -0.2262 -0.1947 0.9544
vn -0.1919 -0.5549 0.8095
vn -0.0966 -0.5549 0.8263
vn -0.0000 -0.8310 0.5562
vn 0.0227 -0.9807 0.1941
vn -0.0451 -0.9807 -0.1902
vn -0.1903 -0.8310 -0.5227
vn -0.3734 -0.5549 -0.7434
vn -0.5390 -0.1948 -0.8195
vn -0.5390 0.1948 -0.8195
vn -0.6305 0.1948 -0.7514
vn -0.6051 0.5549 -0.5709
vn -0.4462 0.8310 -0.3321
vn -0.1692 0.9807 -0.0977
vn 0.1794 0.9807 0.0774
vn 0.5329 0.8310 0.1595
vn 0.8193 0.5549 0.1445
vn -0.2262 -0.1948 0.9544
vn -0.1139 -0.1948 0.9742
vn -0.0000 -0.5549 0.8319
vn 0.0646 -0.8310 0.5525
vn 0.0451 -0.9807 0.1902
vn -0.0451 -0.9807 -0.1901
vn -0.0668 -0.9807 -0.1836
vn -0.1902 -0.8310 -0.5227
vn -0.2496 -0.8310 -0.4971
vn -0.4571 -0.5549 -0.6950
vn -0.5390 -0.1947 -0.8195
vn -0.6305 -0.1948 -0.7514
vn -0.7134 0.1947 -0.6731
vn -0.6673 0.5549 -0.4968
vn -0.4461 0.8310 -0.3321
vn -0.4817 0.8310 -0.2781
vn -0.1794 0.9807 -0.0774
vn 0.1872 0.9807 0.0560
vn 0.5478 0.8310 0.0966
vn -0.1139 -0.1947 0.9742
vn -0.0000 -0.1948 0.9808
vn 0.0966 -0.5549 0.8263
vn 0.1283 -0.8310 0.5412
vn 0.0451 -0.9807 0.1901
vn 0.0668 -0.9807 0.1836
vn -0.0877 -0.9807 -0.1746
vn -0.3056 -0.8310 -0.4647
vn -0.4571 -0.5550 -0.6950
vn -0.5347 -0.5549 -0.6373
vn -0.7134 -0.1948 -0.6731
vn -0.7134 0.1948 -0.6731
vn -0.7868 0.1948 -0.5857
vn -0.7205 0.5549 -0.4160
vn -0.5107 0.8310 -0.2203
vn -0.1872 0.9807 -0.0560
vn 0.1924 0.9807 0.0339
vn -0.0000 -0.1948 0.9809
vn 0.1139 -0.1947 0.9742
vn 0.1918 -0.5549 0.8095
vn 0.1283 -0.8310 0.5413
vn 0.1902 -0.8310 0.5227
vn 0.0877 -0.9807 0.1746
vn -0.1074 -0.9807 -0.1633
vn -0.3057 -0.8310 -0.4647
vn -0.3575 -0.8310 -0.4261
vn -0.6051 -0.5549 -0.5709
vn -0.7868 -0.1948 -0.5857
vn -0.8494 0.1948 -0.4904
vn -0.7639 0.5549 -0.3295
vn -0.5328 0.8310 -0.1595
vn -0.1924 0.9807 -0.0339
vn 0.1139 -0.1948 0.9742
vn 0.2262 -0.1948 0.9544
vn 0.1919 -0.5549 0.8095
vn 0.2845 -0.5550 0.7817
vn 0.2496 -0.8310 0.4971
vn 0.1074 -0.9807 0.1633
vn -0.1074 -0.9807 -0.1632
vn -0.1256 -0.9807 -0.1497
vn -0.4046 -0.8310 -0.3817
vn -0.6673 -0.5549 -0.4968
vn -0.7868 -0.1947 -0.5857
vn -0.8494 -0.1948 -0.4904
vn -0.9006 0.1948 -0.3885
vn -0.7970 0.5549 -0.2386
vn -0.5329 0.8310 -0.1595
vn -0.5478 0.8310 -0.0966
vn 0.3355 -0.1948 0.9217
vn 0.2845 -0.5549 0.7818
vn 0.3734 -0.5549 0.7434
vn 0.3057 -0.8310 0.4647
vn 0.1256 -0.9807 0.1497
vn -0.1421 -0.9807 -0.1341
vn -0.4461 -0.8311 -0.3321
vn -0.7205 -0.5549 -0.4160
vn -0.8494 -0.1947 -0.4904
vn -0.9006 -0.1948 -0.3885
vn -0.9396 0.1948 -0.2813
vn -0.8193 0.5549 -0.1445
vn 0.4402 -0.1948 0.8765
vn 0.4571 -0.5549 0.6951
vn 0.3056 -0.8310 0.4647
vn -0.4462 -0.8310 -0.3322
vn -0.8193 -0.5549 0.1445
vn -0.5478 -0.8310 0.0966
vn -0.5329 -0.8310 0.1595
vn -0.1924 -0.9807 0.0339
vn -0.1872 -0.9807 0.0560
vn -0.1794 -0.9807 0.0774
vn 0.1924 -0.9807 -0.0339
vn 0.1872 -0.9807 -0.0560
vn 0.1794 -0.9807 -0.0774
vn 0.1692 -0.9807 -0.0977
vn 0.5478 -0.8310 -0.0966
vn 0.5329 -0.8310 -0.1595
vn 0.5107 -0.8310 -0.2203
vn 0.4817 -0.8310 -0.2781
vn 0.4461 -0.8310 -0.3321
vn 0.4462 -0.8310 -0.3321
vn 0.8193 -0.5549 -0.1445
vn 0.7970 -0.5549 -0.2386
vn 0.7639 -0.5549 -0.3295
vn 0.7205 -0.5549 -0.4160
vn 0.6673 -0.5549 -0.4968
vn 0.6051 -0.5549 -0.5709
vn 0.9659 -0.1948 -0.1703
vn 0.9396 -0.1948 -0.2813
vn 0.9006 -0.1948 -0.3885
vn 0.8494 -0.1948 -0.4904
vn 0.7868 -0.1948 -0.5857
vn 0.7134 -0.1948 -0.6731
vn 0.7134 -0.1947 -0.6731
vn 0.6305 -0.1947 -0.7514
vn 0.6305 -0.1948 -0.7514
vn 0.5390 -0.1948 -0.8195
vn 0.9660 0.1948 -0.1703
vn 0.9659 0.1948 -0.1703
vn 0.9396 0.1948 -0.2813
vn 0.9006 0.1948 -0.3885
vn 0.8494 0.1947 -0.4904
vn 0.8494 0.1948 -0.4904
vn 0.7868 0.1947 -0.5857
vn 0.7868 0.1948 -0.5857
vn 0.7134 0.1947 -0.6731
vn 0.7134 0.1948 -0.6731
vn 0.6305 0.1947 -0.7514
vn 0.6305 0.1948 -0.7514
vn 0.5390 0.1947 -0.8195
vn 0.5390 0.1948 -0.8195
vn 0.8193 0.5549 -0.1445
vn 0.7969 0.5549 -0.2386
vn 0.7970 0.5549 -0.2386
vn 0.7639 0.5549 -0.3295
vn 0.7205 0.5549 -0.4160
vn 0.6673 0.5549 -0.4968
vn 0.6051 0.5549 -0.5709
vn 0.5347 0.5549 -0.6373
vn 0.4571 0.5549 -0.6950
vn 0.3734 0.5549 -0.7434
vn 0.5478 0.8310 -0.0966
vn 0.5329 0.8310 -0.1595
vn 0.5328 0.8310 -0.1595
vn 0.5107 0.8310 -0.2203
vn 0.4817 0.8310 -0.2781
vn 0.4462 0.8310 -0.3322
vn 0.4461 0.8311 -0.3321
vn 0.4046 0.8310 -0.3817
vn 0.3575 0.8310 -0.4261
vn 0.3057 0.8310 -0.4647
vn 0.3056 0.8310 -0.4647
vn 0.2496 0.8310 -0.4971
vn 0.1902 0.8310 -0.5227
vn 0.1283 0.8310 -0.5412
vn 0.1924 0.9807 -0.0339
vn 0.1872 0.9807 -0.0560
vn 0.1794 0.9807 -0.0774
vn 0.1692 0.9807 -0.0977
vn 0.1567 0.9807 -0.1167
vn 0.1421 0.9807 -0.1341
vn 0.1256 0.9807 -0.1497
vn 0.1074 0.9807 -0.1632
vn 0.1074 0.9807 -0.1633
vn 0.0877 0.9807 -0.1746
vn 0.0668 0.9807 -0.1836
vn 0.0451 0.9807 -0.1901
vn 0.0451 0.9807 -0.1902
vn -0.1924 0.9807 0.0339
vn -0.1872 0.9807 0.0560
vn -0.1794 0.9807 0.0774
vn -0.1692 0.9807 0.0977
vn -0.1567 0.9807 0.1167
vn -0.1421 0.9807 0.1341
vn -0.1256 0.9807 0.1497
vn -0.1074 0.9807 0.1633
vn -0.0877 0.9807 0.1746
vn -0.0668 0.9807 0.1836
vn -0.0451 0.9807 0.1901
vn -0.0227 0.9807 0.1941
vn -0.8193 0.5549 0.1445
vn -0.5478 0.8310 0.0966
vn -0.5329 0.8310 0.1595
vn -0.5107 0.8310 0.2203
vn -0.4817 0.8310 0.2781
vn -0.4462 0.8310 0.3321
vn -0.4462 0.8310 0.3322
vn -0.4046 0.8311 0.3817
vn -0.4046 0.8310 0.3817
vn -0.3575 0.8310 0.4261
vn -0.3056 0.8310 0.4647
vn -0.3057 0.8310 0.4647
vn -0.2496 0.8310 0.4971
vn -0.1902 0.8311 0.5226
vn -0.1902 0.8310 0.5227
vn -0.1283 0.8310 0.5413
vn -0.1283 0.8311 0.5412
vn -0.0646 0.8310 0.5525
vn -0.0000 0.8310 0.5562
vn -0.7970 0.5549 0.2386
vn -0.7969 0.5549 0.2386
vn -0.7639 0.5549 0.3295
vn -0.7205 0.5549 0.4160
vn -0.7204 0.5549 0.4159
vn -0.6673 0.5549 0.4968
vn -0.6051 0.5549 0.5709
vn -0.5348 0.5549 0.6373
vn -0.5347 0.5550 0.6372
vn -0.4572 0.5549 0.6951
vn -0.4571 0.5549 0.6951
vn -0.3734 0.5549 0.7434
vn -0.3733 0.5549 0.7434
vn -0.2845 0.5549 0.7818
vn -0.2845 0.5550 0.7817
vn -0.1919 0.5549 0.8095
vn -0.1918 0.5549 0.8095
vn -0.0966 0.5549 0.8263
vn -0.0000 0.5549 0.8319
vn 0.0966 0.5549 0.8263
vn 0.1919 0.5549 0.8095
vn -0.0000 -0.0000 1.0000
vn -0.0000 -0.0001 1.0000
vn -0.0000 0.0001 1.0000
s 0
f 3//1 2//1 18//1
f 18//2 2//2 1//2
f 18//3 1//3 19//3
f 19//4 1//4 5//4
f 19//5 5//5 20//5
f 20//6 5//6 6//6
f 20//7 6//7 21//7
f 21//8 6//8 7//8
f 21//9 7//9 22//9
f 22//10 7//10 8//10
f 22//11 8//11 23//11
f 23//12 8//12 9//12
f 23//13 9//13 24//13
f 24//14 9//14 10//14
f 24//15 10//15 25//15
f 25//16 10//16 11//16
f 25//17 11//17 26//17
f 26//18 11//18 12//18
f 26//19 12//19 27//19
f 27//20 12//20 13//20
f 27//21 13//21 28//21
f 28//22 13//22 14//22
f 28//23 14//23 29//23
f 29//24 14//24 15//24
f 29//25 15//25 30//25
f 30//26 15//26 16//26
f 30//27 16//27 31//27
f 31//28 16//28 17//28
f 31//29 17//29 32//29
f 32//30 17//30 4//30
f 32//31 4//31 33//31
f 33//32 4//32 3//32
f 33//33 3//33 18//33
f 34//34 441//34 35//34
f 35//35 441//35 442//35
f 35//36 442//36 36//36
f 36//37 442//37 446//37
f 36//38 446//38 37//38
f 37//39 446//39 450//39
f 37//40 450//40 38//40
f 38//41 450//41 439//41
f 38//42 439//42 39//42
f 39//43 439//43 440//43
f 39//44 440//44 40//44
f 40//45 440//45 445//45
f 40//46 445//46 41//46
f 41//47 445//47 449//47
f 41//48 449//48 42//48
f 42//49 449//49 437//49
f 42//50 437//50 43//50
f 43//51 437//51 438//51
f 43//52 438//52 44//52
f 44//53 438//53 444//53
f 44//54 444//54 45//54
f 45//55 444//55 448//55
f 45//56 448//56 46//56
f 46//57 448//57 435//57
f 46//58 435//58 47//58
f 47//59 435//59 436//59
f 47//60 436//60 48//60
f 48//61 436//61 443//61
f 48//62 443//62 49//62
f 49//63 443//63 447//63
f 49//64 447//64 50//64
f 50//65 447//65 34//65
f 50//66 34//66 35//66
f 26//67 51//67 52//67
f 52//68 51//68 53//68
f 52//69 53//69 54//69
f 54//70 53//70 55//70
f 54//71 55//71 56//71
f 56//72 55//72 57//72
f 56//73 57//73 58//73
f 58//74 57//74 59//74
f 58//75 59//75 60//75
f 60//76 59//76 61//76
f 60//77 61//77 62//77
f 62//78 61//78 63//78
f 62//79 63//79 64//79
f 64//80 63//80 65//80
f 64//81 65//81 66//81
f 66//82 65//82 67//82
f 66//83 67//83 68//83
f 68//84 67//84 69//84
f 68//85 69//85 70//85
f 70//86 69//86 71//86
f 70//87 71//87 72//87
f 72//88 71//88 73//88
f 72//89 73//89 74//89
f 74//90 73//90 75//90
f 74//91 75//91 76//91
f 76//92 75//92 77//92
f 76//93 77//93 78//93
f 78//94 77//94 79//94
f 78//95 79//95 80//95
f 80//96 79//96 81//96
f 80//97 81//97 82//97
f 82//98 81//98 83//98
f 82//99 83//99 84//99
f 84//100 83//100 85//100
f 84//101 85//101 86//101
f 86//102 85//102 87//102
f 86//103 87//103 88//103
f 88//104 87//104 89//104
f 88//105 89//105 90//105
f 90//106 89//106 91//106
f 90//107 91//107 92//107
f 92//108 91//108 93//108
f 92//109 93//109 94//109
f 94//110 93//110 95//110
f 94//111 95//111 96//111
f 96//112 95//112 97//112
f 96//113 97//113 98//113
f 98//114 97//114 35//114
f 98//115 35//115 36//115
f 51//68 99//68 53//68
f 53//116 99//116 100//116
f 53//70 100//70 55//70
f 55//117 100//117 101//117
f 55//72 101//72 57//72
f 57//118 101//118 102//118
f 57//74 102//74 59//74
f 59//119 102//119 103//119
f 59//76 103//76 61//76
f 61//120 103//120 104//120
f 61//78 104//78 63//78
f 63//121 104//121 105//121
f 63//122 105//122 65//122
f 65//123 105//123 106//123
f 65//82 106//82 67//82
f 67//124 106//124 107//124
f 67//84 107//84 69//84
f 69//125 107//125 108//125
f 69//126 108//126 71//126
f 71//127 108//127 109//127
f 71//128 109//128 73//128
f 73//129 109//129 110//129
f 73//90 110//90 75//90
f 75//130 110//130 111//130
f 75//92 111//92 77//92
f 77//131 111//131 112//131
f 77//94 112//94 79//94
f 79//132 112//132 113//132
f 79//133 113//133 81//133
f 81//134 113//134 114//134
f 81//98 114//98 83//98
f 83//135 114//135 115//135
f 83//136 115//136 85//136
f 85//137 115//137 116//137
f 85//138 116//138 87//138
f 87//139 116//139 117//139
f 87//104 117//104 89//104
f 89//140 117//140 118//140
f 89//106 118//106 91//106
f 91//141 118//141 119//141
f 91//108 119//108 93//108
f 93//142 119//142 120//142
f 93//143 120//143 95//143
f 95//144 120//144 121//144
f 95//145 121//145 97//145
f 97//146 121//146 50//146
f 97//114 50//114 35//114
f 26//147 27//147 51//147
f 51//147 27//147 122//147
f 51//148 122//148 99//148
f 99//148 122//148 123//148
f 99//149 123//149 124//149
f 124//149 123//149 125//149
f 124//150 125//150 126//150
f 126//150 125//150 127//150
f 126//151 127//151 128//151
f 128//151 127//151 129//151
f 128//152 129//152 130//152
f 130//152 129//152 131//152
f 130//153 131//153 132//153
f 132//153 131//153 133//153
f 132//154 133//154 134//154
f 134//155 133//155 135//155
f 134//156 135//156 136//156
f 136//156 135//156 137//156
f 136//157 137//157 138//157
f 138//157 137//157 139//157
f 138//158 139//158 140//158
f 140//159 139//159 141//159
f 140//160 141//160 142//160
f 142//160 141//160 143//160
f 142//161 143//161 144//161
f 144//161 143//161 145//161
f 144//162 145//162 146//162
f 146//163 145//163 147//163
f 146//164 147//164 148//164
f 148//165 147//165 80//165
f 148//97 80//97 82//97
f 99//116 124//116 100//116
f 100//166 124//166 149//166
f 100//167 149//167 101//167
f 101//168 149//168 150//168
f 101//169 150//169 102//169
f 102//170 150//170 151//170
f 102//119 151//119 103//119
f 103//171 151//171 152//171
f 103//120 152//120 104//120
f 104//172 152//172 153//172
f 104//173 153//173 105//173
f 105//174 153//174 154//174
f 105//123 154//123 106//123
f 106//175 154//175 155//175
f 106//176 155//176 107//176
f 107//177 155//177 156//177
f 107//125 156//125 108//125
f 108//178 156//178 157//178
f 108//127 157//127 109//127
f 109//179 157//179 158//179
f 109//129 158//129 110//129
f 110//180 158//180 159//180
f 110//130 159//130 111//130
f 111//181 159//181 160//181
f 111//182 160//182 112//182
f 112//183 160//183 161//183
f 112//132 161//132 113//132
f 113//184 161//184 162//184
f 113//185 162//185 114//185
f 114//186 162//186 163//186
f 114//187 163//187 115//187
f 115//188 163//188 164//188
f 115//189 164//189 116//189
f 116//190 164//190 165//190
f 116//139 165//139 117//139
f 117//191 165//191 166//191
f 117//192 166//192 118//192
f 118//193 166//193 167//193
f 118//141 167//141 119//141
f 119//194 167//194 168//194
f 119//142 168//142 120//142
f 120//195 168//195 169//195
f 120//196 169//196 121//196
f 121//197 169//197 49//197
f 121//198 49//198 50//198
f 124//199 126//199 149//199
f 149//200 126//200 170//200
f 149//168 170//168 150//168
f 150//201 170//201 171//201
f 150//170 171//170 151//170
f 151//202 171//202 172//202
f 151//171 172//171 152//171
f 152//203 172//203 173//203
f 152//172 173//172 153//172
f 153//204 173//204 174//204
f 153//174 174//174 154//174
f 154//205 174//205 175//205
f 154//175 175//175 155//175
f 155//206 175//206 176//206
f 155//177 176//177 156//177
f 156//207 176//207 177//207
f 156//178 177//178 157//178
f 157//208 177//208 178//208
f 157//179 178//179 158//179
f 158//209 178//209 179//209
f 158//180 179//180 159//180
f 159//210 179//210 180//210
f 159//181 180//181 160//181
f 160//211 180//211 181//211
f 160//183 181//183 161//183
f 161//212 181//212 182//212
f 161//184 182//184 162//184
f 162//213 182//213 183//213
f 162//214 183//214 163//214
f 163//215 183//215 184//215
f 163//188 184//188 164//188
f 164//216 184//216 185//216
f 164//190 185//190 165//190
f 165//217 185//217 186//217
f 165//191 186//191 166//191
f 166//218 186//218 187//218
f 166//193 187//193 167//193
f 167//219 187//219 188//219
f 167//194 188//194 168//194
f 168//220 188//220 189//220
f 168//195 189//195 169//195
f 169//221 189//221 48//221
f 169//197 48//197 49//197
f 126//222 128//222 170//222
f 170//223 128//223 190//223
f 170//201 190//201 171//201
f 171//224 190//224 191//224
f 171//202 191//202 172//202
f 172//225 191//225 192//225
f 172//203 192//203 173//203
f 173//226 192//226 193//226
f 173//204 193//204 174//204
f 174//227 193//227 194//227
f 174//205 194//205 175//205
f 175//228 194//228 195//228
f 175//229 195//229 176//229
f 176//230 195//230 196//230
f 176//207 196//207 177//207
f 177//231 196//231 197//231
f 177//232 197//232 178//232
f 178//233 197//233 198//233
f 178//209 198//209 179//209
f 179//234 198//234 199//234
f 179//210 199//210 180//210
f 180//235 199//235 200//235
f 180//211 200//211 181//211
f 181//236 200//236 201//236
f 181//212 201//212 182//212
f 182//237 201//237 202//237
f 182//238 202//238 183//238
f 183//239 202//239 203//239
f 183//215 203//215 184//215
f 184//240 203//240 204//240
f 184//216 204//216 185//216
f 185//241 204//241 205//241
f 185//217 205//217 186//217
f 186//242 205//242 206//242
f 186//243 206//243 187//243
f 187//244 206//244 207//244
f 187//219 207//219 188//219
f 188//245 207//245 208//245
f 188//220 208//220 189//220
f 189//246 208//246 47//246
f 189//221 47//221 48//221
f 128//223 130//223 190//223
f 190//247 130//247 209//247
f 190//224 209//224 191//224
f 191//248 209//248 210//248
f 191//249 210//249 192//249
f 192//250 210//250 211//250
f 192//226 211//226 193//226
f 193//251 211//251 212//251
f 193//227 212//227 194//227
f 194//252 212//252 213//252
f 194//228 213//228 195//228
f 195//253 213//253 214//253
f 195//230 214//230 196//230
f 196//254 214//254 215//254
f 196//255 215//255 197//255
f 197//256 215//256 216//256
f 197//257 216//257 198//257
f 198//258 216//258 217//258
f 198//234 217//234 199//234
f 199//259 217//259 218//259
f 199//235 218//235 200//235
f 200//260 218//260 219//260
f 200//236 219//236 201//236
f 201//261 219//261 220//261
f 201//237 220//237 202//237
f 202//262 220//262 221//262
f 202//239 221//239 203//239
f 203//263 221//263 222//263
f 203//240 222//240 204//240
f 204//264 222//264 223//264
f 204//265 223//265 205//265
f 205//266 223//266 224//266
f 205//242 224//242 206//242
f 206//267 224//267 225//267
f 206//244 225//244 207//244
f 207//268 225//268 226//268
f 207//269 226//269 208//269
f 208//270 226//270 46//270
f 208//246 46//246 47//246
f 130//247 132//247 209//247
f 209//271 132//271 227//271
f 209//248 227//248 210//248
f 210//272 227//272 228//272
f 210//250 228//250 211//250
f 211//273 228//273 229//273
f 211//251 229//251 212//251
f 212//274 229//274 230//274
f 212//275 230//275 213//275
f 213//276 230//276 231//276
f 213//253 231//253 214//253
f 214//277 231//277 232//277
f 214//254 232//254 215//254
f 215//278 232//278 233//278
f 215//279 233//279 216//279
f 216//280 233//280 234//280
f 216//281 234//281 217//281
f 217//282 234//282 235//282
f 217//259 235//259 218//259
f 218//283 235//283 236//283
f 218//260 236//260 219//260
f 219//284 236//284 237//284
f 219//261 237//261 220//261
f 220//285 237//285 238//285
f 220//262 238//262 221//262
f 221//286 238//286 239//286
f 221//263 239//263 222//263
f 222//287 239//287 240//287
f 222//264 240//264 223//264
f 223//288 240//288 241//288
f 223//266 241//266 224//266
f 224//289 241//289 242//289
f 224//267 242//267 225//267
f 225//290 242//290 243//290
f 225//268 243//268 226//268
f 226//291 243//291 45//291
f 226//270 45//270 46//270
f 132//292 134//292 227//292
f 227//293 134//293 244//293
f 227//294 244//294 228//294
f 228//295 244//295 245//295
f 228//296 245//296 229//296
f 229//297 245//297 246//297
f 229//298 246//298 230//298
f 230//299 246//299 247//299
f 230//276 247//276 231//276
f 231//300 247//300 248//300
f 231//277 248//277 232//277
f 232//301 248//301 249//301
f 232//278 249//278 233//278
f 233//302 249//302 250//302
f 233//303 250//303 234//303
f 234//304 250//304 251//304
f 234//305 251//305 235//305
f 235//306 251//306 252//306
f 235//283 252//283 236//283
f 236//307 252//307 253//307
f 236//308 253//308 237//308
f 237//309 253//309 254//309
f 237//285 254//285 238//285
f 238//310 254//310 255//310
f 238//286 255//286 239//286
f 239//311 255//311 256//311
f 239//312 256//312 240//312
f 240//313 256//313 257//313
f 240//314 257//314 241//314
f 241//315 257//315 258//315
f 241//289 258//289 242//289
f 242//316 258//316 259//316
f 242//290 259//290 243//290
f 243//317 259//317 44//317
f 243//291 44//291 45//291
f 134//293 136//293 244//293
f 244//318 136//318 260//318
f 244//319 260//319 245//319
f 245//320 260//320 261//320
f 245//297 261//297 246//297
f 246//321 261//321 262//321
f 246//299 262//299 247//299
f 247//322 262//322 263//322
f 247//300 263//300 248//300
f 248//323 263//323 264//323
f 248//324 264//324 249//324
f 249//325 264//325 265//325
f 249//326 265//326 250//326
f 250//327 265//327 266//327
f 250//328 266//328 251//328
f 251//329 266//329 267//329
f 251//306 267//306 252//306
f 252//330 267//330 268//330
f 252//331 268//331 253//331
f 253//332 268//332 269//332
f 253//309 269//309 254//309
f 254//333 269//333 270//333
f 254//310 270//310 255//310
f 255//334 270//334 271//334
f 255//311 271//311 256//311
f 256//335 271//335 272//335
f 256//313 272//313 257//313
f 257//336 272//336 273//336
f 257//315 273//315 258//315
f 258//337 273//337 274//337
f 258//316 274//316 259//316
f 259//338 274//338 43//338
f 259//317 43//317 44//317
f 136//318 138//318 260//318
f 260//339 138//339 275//339
f 260//340 275//340 261//340
f 261//341 275//341 276//341
f 261//321 276//321 262//321
f 262//342 276//342 277//342
f 262//322 277//322 263//322
f 263//343 277//343 278//343
f 263//323 278//323 264//323
f 264//344 278//344 279//344
f 264//325 279//325 265//325
f 265//345 279//345 280//345
f 265//327 280//327 266//327
f 266//346 280//346 281//346
f 266//329 281//329 267//329
f 267//347 281//347 282//347
f 267//348 282//348 268//348
f 268//349 282//349 283//349
f 268//332 283//332 269//332
f 269//350 283//350 284//350
f 269//333 284//333 270//333
f 270//351 284//351 285//351
f 270//334 285//334 271//334
f 271//352 285//352 286//352
f 271//335 286//335 272//335
f 272//353 286//353 287//353
f 272//336 287//336 273//336
f 273//354 287//354 288//354
f 273//337 288//337 274//337
f 274//355 288//355 42//355
f 274//338 42//338 43//338
f 138//356 140//356 275//356
f 275//357 140//357 289//357
f 275//341 289//341 276//341
f 276//358 289//358 290//358
f 276//342 290//342 277//342
f 277//359 290//359 291//359
f 277//343 291//343 278//343
f 278//360 291//360 292//360
f 278//361 292//361 279//361
f 279//362 292//362 293//362
f 279//363 293//363 280//363
f 280//364 293//364 294//364
f 280//346 294//346 281//346
f 281//365 294//365 295//365
f 281//366 295//366 282//366
f 282//367 295//367 296//367
f 282//349 296//349 283//349
f 283//368 296//368 297//368
f 283//350 297//350 284//350
f 284//369 297//369 298//369
f 284//370 298//370 285//370
f 285//371 298//371 299//371
f 285//352 299//352 286//352
f 286//372 299//372 300//372
f 286//353 300//353 287//353
f 287//373 300//373 301//373
f 287//354 301//354 288//354
f 288//374 301//374 41//374
f 288//355 41//355 42//355
f 140//375 142//375 289//375
f 289//376 142//376 302//376
f 289//358 302//358 290//358
f 290//377 302//377 303//377
f 290//359 303//359 291//359
f 291//378 303//378 304//378
f 291//379 304//379 292//379
f 292//380 304//380 305//380
f 292//362 305//362 293//362
f 293//381 305//381 306//381
f 293//364 306//364 294//364
f 294//382 306//382 307//382
f 294//383 307//383 295//383
f 295//384 307//384 308//384
f 295//367 308//367 296//367
f 296//385 308//385 309//385
f 296//386 309//386 297//386
f 297//387 309//387 310//387
f 297//369 310//369 298//369
f 298//388 310//388 311//388
f 298//371 311//371 299//371
f 299//389 311//389 312//389
f 299//372 312//372 300//372
f 300//390 312//390 313//390
f 300//373 313//373 301//373
f 301//391 313//391 40//391
f 301//374 40//374 41//374
f 142//392 144//392 302//392
f 302//393 144//393 314//393
f 302//377 314//377 303//377
f 303//394 314//394 315//394
f 303//395 315//395 304//395
f 304//396 315//396 316//396
f 304//380 316//380 305//380
f 305//397 316//397 317//397
f 305//381 317//381 306//381
f 306//398 317//398 318//398
f 306//399 318//399 307//399
f 307//400 318//400 319//400
f 307//384 319//384 308//384
f 308//401 319//401 320//401
f 308//385 320//385 309//385
f 309//402 320//402 321//402
f 309//387 321//387 310//387
f 310//403 321//403 322//403
f 310//388 322//388 311//388
f 311//404 322//404 323//404
f 311//389 323//389 312//389
f 312//405 323//405 324//405
f 312//390 324//390 313//390
f 313//406 324//406 39//406
f 313//391 39//391 40//391
f 144//407 146//407 314//407
f 314//408 146//408 325//408
f 314//409 325//409 315//409
f 315//410 325//410 326//410
f 315//396 326//396 316//396
f 316//411 326//411 327//411
f 316//397 327//397 317//397
f 317//412 327//412 328//412
f 317//413 328//413 318//413
f 318//414 328//414 329//414
f 318//400 329//400 319//400
f 319//415 329//415 330//415
f 319//401 330//401 320//401
f 320//416 330//416 331//416
f 320//417 331//417 321//417
f 321//418 331//418 332//418
f 321//403 332//403 322//403
f 322//419 332//419 333//419
f 322//404 333//404 323//404
f 323//420 333//420 334//420
f 323//421 334//421 324//421
f 324//422 334//422 38//422
f 324//406 38//406 39//406
f 146//408 148//408 325//408
f 325//423 148//423 335//423
f 325//424 335//424 326//424
f 326//425 335//425 336//425
f 326//411 336//411 327//411
f 327//426 336//426 337//426
f 327//412 337//412 328//412
f 328//427 337//427 338//427
f 328//414 338//414 329//414
f 329//428 338//428 339//428
f 329//415 339//415 330//415
f 330//429 339//429 340//429
f 330//416 340//416 331//416
f 331//430 340//430 341//430
f 331//431 341//431 332//431
f 332//432 341//432 342//432
f 332//419 342//419 333//419
f 333//433 342//433 343//433
f 333//420 343//420 334//420
f 334//434 343//434 37//434
f 334//422 37//422 38//422
f 148//423 82//423 335//423
f 335//435 82//435 84//435
f 335//425 84//425 336//425
f 336//436 84//436 86//436
f 336//437 86//437 337//437
f 337//103 86//103 88//103
f 337//427 88//427 338//427
f 338//105 88//105 90//105
f 338//428 90//428 339//428
f 339//107 90//107 92//107
f 339//438 92//438 340//438
f 340//109 92//109 94//109
f 340//430 94//430 341//430
f 341//111 94//111 96//111
f 341//432 96//432 342//432
f 342//113 96//113 98//113
f 342//433 98//433 343//433
f 343//115 98//115 36//115
f 343//434 36//434 37//434
f 25//67 26//67 52//67
f 24//439 25//439 344//439
f 344//439 25//439 52//439
f 344//69 52//69 54//69
f 23//440 24//440 345//440
f 345//440 24//440 344//440
f 345//441 344//441 346//441
f 346//441 344//441 54//441
f 346//71 54//71 56//71
f 22//442 23//442 347//442
f 347//442 23//442 345//442
f 347//443 345//443 348//443
f 348//443 345//443 346//443
f 348//444 346//444 349//444
f 349//444 346//444 56//444
f 349//73 56//73 58//73
f 21//445 22//445 350//445
f 350//445 22//445 347//445
f 350//446 347//446 351//446
f 351//446 347//446 348//446
f 351//447 348//447 352//447
f 352//447 348//447 349//447
f 352//448 349//448 353//448
f 353//448 349//448 58//448
f 353//75 58//75 60//75
f 20//449 21//449 354//449
f 354//449 21//449 350//449
f 354//450 350//450 355//450
f 355//450 350//450 351//450
f 355//451 351//451 356//451
f 356//451 351//451 352//451
f 356//452 352//452 357//452
f 357//452 352//452 353//452
f 357//453 353//453 358//453
f 358//454 353//454 60//454
f 358//77 60//77 62//77
f 19//455 20//455 359//455
f 359//455 20//455 354//455
f 359//456 354//456 360//456
f 360//456 354//456 355//456
f 360//457 355//457 361//457
f 361//457 355//457 356//457
f 361//458 356//458 362//458
f 362//458 356//458 357//458
f 362//459 357//459 363//459
f 363//459 357//459 358//459
f 363//460 358//460 364//460
f 364//460 358//460 62//460
f 364//79 62//79 64//79
f 18//461 19//461 365//461
f 365//461 19//461 359//461
f 365//462 359//462 366//462
f 366//462 359//462 360//462
f 366//463 360//463 367//463
f 367//463 360//463 361//463
f 367//464 361//464 368//464
f 368//464 361//464 362//464
f 368//465 362//465 369//465
f 369//465 362//465 363//465
f 369//466 363//466 370//466
f 370//467 363//467 364//467
f 370//468 364//468 371//468
f 371//469 364//469 64//469
f 371//470 64//470 66//470
f 33//471 18//471 372//471
f 372//472 18//472 365//472
f 372//473 365//473 373//473
f 373//473 365//473 366//473
f 373//474 366//474 374//474
f 374//474 366//474 367//474
f 374//475 367//475 375//475
f 375//476 367//476 368//476
f 375//477 368//477 376//477
f 376//478 368//478 369//478
f 376//479 369//479 377//479
f 377//480 369//480 370//480
f 377//481 370//481 378//481
f 378//482 370//482 371//482
f 378//483 371//483 379//483
f 379//484 371//484 66//484
f 379//83 66//83 68//83
f 32//485 33//485 380//485
f 380//485 33//485 372//485
f 380//486 372//486 381//486
f 381//487 372//487 373//487
f 381//488 373//488 382//488
f 382//488 373//488 374//488
f 382//489 374//489 383//489
f 383//489 374//489 375//489
f 383//490 375//490 384//490
f 384//490 375//490 376//490
f 384//491 376//491 385//491
f 385//491 376//491 377//491
f 385//492 377//492 386//492
f 386//492 377//492 378//492
f 386//493 378//493 387//493
f 387//493 378//493 379//493
f 387//494 379//494 388//494
f 388//494 379//494 68//494
f 388//85 68//85 70//85
f 31//495 32//495 389//495
f 389//495 32//495 380//495
f 389//496 380//496 390//496
f 390//497 380//497 381//497
f 390//498 381//498 391//498
f 391//498 381//498 382//498
f 391//499 382//499 392//499
f 392//499 382//499 383//499
f 392//500 383//500 393//500
f 393//501 383//501 384//501
f 393//502 384//502 394//502
f 394//502 384//502 385//502
f 394//503 385//503 395//503
f 395//503 385//503 386//503
f 395//504 386//504 396//504
f 396//505 386//505 387//505
f 396//506 387//506 397//506
f 397//506 387//506 388//506
f 397//507 388//507 398//507
f 398//507 388//507 70//507
f 398//508 70//508 72//508
f 30//509 31//509 399//509
f 399//509 31//509 389//509
f 399//510 389//510 400//510
f 400//510 389//510 390//510
f 400//511 390//511 401//511
f 401//511 390//511 391//511
f 401//512 391//512 402//512
f 402//512 391//512 392//512
f 402//513 392//513 403//513
f 403//513 392//513 393//513
f 403//514 393//514 404//514
f 404//514 393//514 394//514
f 404//515 394//515 405//515
f 405//515 394//515 395//515
f 405//516 395//516 406//516
f 406//517 395//517 396//517
f 406//518 396//518 407//518
f 407//518 396//518 397//518
f 407//519 397//519 408//519
f 408//519 397//519 398//519
f 408//520 398//520 409//520
f 409//521 398//521 72//521
f 409//89 72//89 74//89
f 29//522 30//522 410//522
f 410//522 30//522 399//522
f 410//523 399//523 411//523
f 411//523 399//523 400//523
f 411//524 400//524 412//524
f 412//524 400//524 401//524
f 412//525 401//525 413//525
f 413//525 401//525 402//525
f 413//526 402//526 414//526
f 414//526 402//526 403//526
f 414//527 403//527 415//527
f 415//527 403//527 404//527
f 415//528 404//528 416//528
f 416//528 404//528 405//528
f 416//529 405//529 417//529
f 417//529 405//529 406//529
f 417//530 406//530 418//530
f 418//530 406//530 407//530
f 418//531 407//531 419//531
f 419//531 407//531 408//531
f 419//532 408//532 420//532
f 420//532 408//532 409//532
f 420//533 409//533 421//533
f 421//533 409//533 74//533
f 421//91 74//91 76//91
f 122//534 27//534 28//534
f 28//535 29//535 422//535
f 422//535 29//535 410//535
f 422//536 410//536 423//536
f 423//536 410//536 411//536
f 423//537 411//537 424//537
f 424//537 411//537 412//537
f 424//538 412//538 425//538
f 425//538 412//538 413//538
f 425//539 413//539 426//539
f 426//540 413//540 414//540
f 426//541 414//541 427//541
f 427//542 414//542 415//542
f 427//543 415//543 428//543
f 428//543 415//543 416//543
f 428//544 416//544 429//544
f 429//545 416//545 417//545
f 429//546 417//546 430//546
f 430//546 417//546 418//546
f 430//547 418//547 431//547
f 431//548 418//548 419//548
f 431//549 419//549 432//549
f 432//550 419//550 420//550
f 432//551 420//551 433//551
f 433//551 420//551 421//551
f 433//552 421//552 434//552
f 434//552 421//552 76//552
f 434//93 76//93 78//93
f 123//553 122//553 422//553
f 422//534 122//534 28//534
f 123//554 422//554 423//554
f 125//555 123//555 423//555
f 125//555 423//555 424//555
f 127//556 125//556 424//556
f 127//557 424//557 425//557
f 129//558 127//558 425//558
f 129//558 425//558 426//558
f 131//559 129//559 426//559
f 131//559 426//559 427//559
f 133//560 131//560 427//560
f 133//561 427//561 428//561
f 135//562 133//562 428//562
f 135//563 428//563 429//563
f 137//564 135//564 429//564
f 137//565 429//565 430//565
f 139//566 137//566 430//566
f 139//567 430//567 431//567
f 141//568 139//568 431//568
f 141//569 431//569 432//569
f 143//570 141//570 432//570
f 143//570 432//570 433//570
f 145//571 143//571 433//571
f 145//571 433//571 434//571
f 147//572 145//572 434//572
f 147//572 434//572 78//572
f 80//573 147//573 78//573
f 8//574 7//574 6//574
f 9//574 8//574 6//574
f 9//574 6//574 5//574
f 10//574 9//574 5//574
f 10//574 5//574 1//574
f 11//574 10//574 1//574
f 11//574 1//574 2//574
f 12//574 11//574 2//574
f 12//574 2//574 3//574
f 13//574 12//574 3//574
f 13//574 3//574 4//574
f 14//574 13//574 4//574
f 14//574 4//574 17//574
f 15//574 14//574 17//574
f 15//574 17//574 16//574
f 443//574 436//574 435//574
f 443//574 435//574 448//574
f 447//574 443//574 448//574
f 447//574 448//574 444//574
f 34//575 447//575 444//575
f 34//574 444//574 438//574
f 441//574 34//574 438//574
f 441//574 438//574 437//574
f 442//574 441//574 437//574
f 442//574 437//574 449//574
f 446//576 442//576 449//576
f 446//574 449//574 445//574
f 450//574 446//574 445//574
f 450//574 445//574 440//574
f 439//574 450//574 440//574
