# Blender 4.0.0
# www.blender.org
o handle.007
v 0.000198 0.002484 -0.563761
v 0.000142 0.005688 -0.559842
v -0.018968 0.004794 -0.553700
v -0.015642 0.002846 -0.552885
v -0.021224 0.005675 -0.557239
v -0.011782 -0.000275 -0.553238
v -0.015720 0.003344 -0.562233
v -0.001652 -0.004300 -0.559987
v -0.013573 -0.002147 -0.562372
v -0.020535 -0.000002 -0.561493
v -0.031520 0.003595 -0.555597
v -0.020859 -0.004305 -0.557187
v -0.010718 -0.003533 -0.555913
v -0.031638 -0.003676 -0.553885
v -0.021974 -0.002120 -0.551030
v 0.000406 0.002190 -0.554111
v 0.000406 0.002331 -0.554109
v 0.000360 0.005688 -0.559776
v 0.000361 0.005656 -0.559656
v 0.000360 0.005652 -0.559840
v 0.000410 -0.000293 -0.553532
v 0.000397 -0.003524 -0.555133
v 0.000367 -0.004146 -0.558919
v 0.000401 0.004413 -0.554710
v 0.000337 -0.002141 -0.562709
v 0.000329 0.002182 -0.563695
v 0.000399 0.004887 -0.554959
v 0.000362 -0.004299 -0.559536
v 0.000347 -0.003181 -0.561421
v 0.000409 -0.000552 -0.553743
v 0.000329 0.002442 -0.563726
v 0.000329 0.002488 -0.563729
v -0.034145 -0.001149 -0.554316
v -0.033593 0.004045 -0.553521
v -0.033793 0.003430 -0.553810
v -0.032370 0.005266 -0.551760
v -0.030757 0.005686 -0.549437
v -0.029503 -0.004031 -0.547631
v -0.034120 0.000978 -0.554281
v -0.030738 0.005427 -0.549410
v -0.031099 -0.004336 -0.549930
v -0.029530 -0.002956 -0.547670
v -0.033624 -0.002708 -0.553565
v -0.029936 0.005131 -0.548254
v -0.032882 -0.003757 -0.552498
v -0.028561 -0.000733 -0.546274
v -0.033053 -0.003540 -0.552744
v -0.028800 0.004110 -0.546619
v -0.028775 -0.000316 -0.546583
v -0.028723 -0.001513 -0.546508
vn 0.1320 0.7684 -0.6263
vn 0.0269 0.9739 0.2253
vn 0.2399 -0.0676 -0.9684
vn -0.0190 0.7739 -0.6330
vn -0.0583 0.8784 -0.4744
vn 0.2249 -0.1129 -0.9678
vn 0.1138 -0.8540 -0.5077
vn -0.0235 -0.2225 -0.9746
vn -0.1133 0.0392 -0.9928
vn -0.0994 -0.0763 -0.9921
vn -0.2492 0.7428 -0.6214
vn -0.0149 -0.7782 -0.6279
vn -0.0535 -0.9691 0.2408
vn -0.3615 0.3271 -0.8731
vn -0.0671 -0.8842 -0.4623
vn -0.0631 -0.4227 0.9041
vn -0.0106 -0.9867 0.1622
vn -0.2385 -0.7311 -0.6392
vn -0.2855 -0.6309 -0.7214
vn 0.0395 -0.9623 0.2690
vn 0.0178 -0.6310 0.7756
vn 0.0238 0.2271 0.9736
vn 0.2709 -0.5564 0.7855
vn -0.4476 -0.7646 -0.4637
vn 0.1888 0.1232 0.9743
vn 0.1467 0.8615 -0.4860
vn -0.0775 0.9636 0.2559
vn 0.0058 0.9868 0.1616
vn 0.0819 0.2769 0.9574
vn 0.0754 -0.0196 0.9970
vn 0.0553 0.4640 0.8841
vn -0.4171 -0.8055 -0.4210
vn 0.2253 0.8890 0.3987
vn -0.1033 -0.9833 -0.1500
vn 0.1147 0.9787 0.1705
vn 0.4021 0.0427 0.9146
vn 0.0648 -0.9941 0.0871
vn 0.6285 0.1246 0.7678
vn -0.0927 0.9891 -0.1145
vn -0.6120 0.2272 -0.7575
vn -0.2443 0.8682 -0.4320
vn -0.5591 0.4944 -0.6655
vn -0.4677 0.0203 -0.8837
vn -0.3703 -0.5009 -0.7823
vn 0.1981 0.6463 0.7369
vn 0.5839 0.0101 0.8118
vn 0.5015 -0.3427 0.7944
vn 0.3540 -0.6984 0.6221
vn 1.0000 -0.0000 -0.0080
vn -0.8214 -0.0000 0.5704
vn -0.8214 0.0005 0.5704
vn -0.8214 -0.0001 0.5704
vn -0.8214 -0.0002 0.5704
s 0
f 32//1 1//1 2//1 20//1
f 2//2 5//2 3//2
f 32//3 31//3 1//3
f 1//4 7//4 2//4
f 2//5 7//5 5//5
f 31//6 26//6 1//6
f 28//7 8//7 29//7
f 25//8 9//8 1//8 26//8
f 1//9 9//9 10//9
f 1//10 10//10 7//10
f 7//11 11//11 5//11
f 29//12 8//12 9//12 25//12
f 28//13 23//13 8//13
f 7//14 10//14 11//14
f 8//15 12//15 9//15
f 22//16 30//16 13//16
f 22//17 13//17 8//17 23//17
f 9//18 12//18 14//18
f 9//19 14//19 10//19
f 8//20 13//20 12//20
f 21//21 6//21 13//21 30//21
f 21//22 16//22 6//22
f 13//23 6//23 15//23
f 43//24 14//24 47//24
f 6//25 4//25 15//25
f 18//26 20//26 2//26
f 19//27 18//27 2//27
f 19//28 2//28 3//28 27//28
f 17//29 24//29 4//29
f 6//30 16//30 17//30 4//30
f 4//31 24//31 27//31 3//31
f 14//32 45//32 47//32
f 3//33 44//33 48//33
f 12//34 41//34 45//34 14//34
f 3//35 5//35 40//35 44//35
f 13//36 15//36 42//36 38//36
f 13//37 38//37 41//37 12//37
f 5//38 37//38 40//38
f 5//39 36//39 37//39
f 11//40 39//40 35//40
f 5//41 11//41 34//41 36//41
f 11//42 35//42 34//42
f 10//43 33//43 39//43 11//43
f 10//44 14//44 43//44 33//44
f 4//45 3//45 49//45 46//45
f 3//46 48//46 49//46
f 4//47 46//47 50//47 15//47
f 15//48 50//48 42//48
f 29//49 23//49 28//49
f 29//49 16//49 23//49
f 16//49 21//49 30//49
f 19//49 29//49 26//49
f 20//49 19//49 26//49
f 29//49 25//49 26//49
f 16//49 30//49 23//49
f 31//49 20//49 26//49
f 19//49 27//49 24//49
f 32//49 20//49 31//49
f 19//49 16//49 29//49
f 19//49 17//49 16//49
f 19//49 24//49 17//49
f 18//49 19//49 20//49
f 30//49 22//49 23//49
f 38//50 42//50 41//50
f 49//50 36//50 39//50
f 45//51 41//51 47//51
f 47//50 41//50 39//50
f 50//50 49//50 42//50
f 39//52 43//52 47//52
f 46//50 49//50 50//50
f 49//50 39//50 42//50
f 49//50 44//50 40//50
f 36//53 34//53 35//53
f 49//50 48//50 44//50
f 33//50 43//50 39//50
f 36//50 35//50 39//50
f 36//50 49//50 40//50
f 37//50 36//50 40//50
f 41//50 42//50 39//50
