# Blender 4.0.0
# www.blender.org
o handle.003
v -0.056790 0.004847 -0.508778
v -0.051211 0.005379 -0.508778
v -0.048802 0.000525 -0.508778
v -0.051740 -0.004248 -0.508778
v -0.057066 -0.003245 -0.508778
v -0.058513 -0.002176 -0.408778
v -0.057683 0.004171 -0.408778
v -0.051211 -0.003984 -0.408778
v -0.048802 0.000870 -0.408778
v -0.051740 0.005642 -0.408778
v -0.059071 0.000949 -0.508778
vn -0.9915 0.1297 0.0096
vn -0.9022 -0.4313 -0.0084
vn -0.1851 -0.9827 0.0078
vn -0.2404 -0.9707 0.0038
vn 0.8516 -0.5243 -0.0031
vn 0.8958 -0.4445 0.0015
vn 0.8958 0.4445 -0.0015
vn 0.8516 0.5243 0.0031
vn -0.0948 0.9955 -0.0031
vn -0.2404 0.9707 0.0044
vn -0.8631 0.5050 -0.0043
vn -0.0000 -0.0000 1.0000
vn -0.0000 -0.0000 -1.0000
s 0
f 11//1 6//1 7//1
f 11//2 5//2 6//2
f 6//3 5//3 4//3
f 6//4 4//4 8//4
f 8//5 4//5 3//5
f 8//6 3//6 9//6
f 9//7 3//7 2//7
f 9//8 2//8 10//8
f 10//9 2//9 1//9
f 10//10 1//10 7//10
f 7//11 1//11 11//11
f 6//12 9//12 7//12
f 7//12 9//12 10//12
f 9//12 6//12 8//12
f 11//13 4//13 5//13
f 11//13 3//13 4//13
f 11//13 2//13 3//13
f 1//13 2//13 11//13
