# Blender 4.0.0
# www.blender.org
o handle.009
v -0.059034 0.000697 -0.508777
v -0.058267 0.001830 -0.517275
v -0.055555 0.005032 -0.519776
v -0.049058 0.003528 -0.516566
v -0.048298 -0.000279 -0.516471
v -0.056155 -0.004145 -0.508801
v -0.055917 -0.003176 -0.522552
v -0.048742 -0.002960 -0.521956
v -0.045273 0.001689 -0.526625
v -0.046383 0.004930 -0.529563
v -0.051488 0.005709 -0.521949
v -0.053655 0.003535 -0.530503
v -0.055541 -0.000100 -0.528299
v -0.051724 -0.004232 -0.508782
v -0.048833 0.002693 -0.508778
v -0.055543 0.005847 -0.508778
v -0.050946 -0.002559 -0.533568
v -0.051953 0.000913 -0.534368
v -0.051663 0.003263 -0.534138
v -0.048498 0.005705 -0.531627
v -0.046433 0.004981 -0.529988
v -0.046191 0.004899 -0.529796
v -0.044321 0.001912 -0.528312
v -0.044534 -0.001865 -0.528481
v -0.045961 -0.003382 -0.529614
v -0.046277 -0.003689 -0.529864
v -0.047095 -0.004293 -0.530513
v -0.046212 0.004936 -0.529813
v -0.044275 0.001398 -0.528276
v -0.049182 -0.003767 -0.532169
v -0.049150 0.005543 -0.532144
v -0.050478 0.004592 -0.533197
v -0.051814 -0.001055 -0.534257
vn -0.8277 0.5612 0.0001
vn -0.7795 0.6247 -0.0454
vn -0.2011 0.9769 -0.0721
vn 0.4222 0.8984 0.1206
vn 0.5747 0.8153 0.0708
vn 0.9806 0.1956 -0.0074
vn 0.9025 -0.3769 0.2084
vn 0.8748 -0.4595 0.1537
vn -0.8585 -0.5102 -0.0508
vn -0.9426 -0.3092 -0.1263
vn -0.9507 -0.2432 -0.1925
vn 0.4717 -0.8582 0.2026
vn -0.1891 -0.9793 -0.0723
vn 0.5990 -0.7576 0.2592
vn 0.5681 -0.7843 0.2495
vn -0.0191 -0.9948 -0.1004
vn 0.8591 0.1111 0.4996
vn 0.8437 -0.1000 0.5274
vn 0.8624 -0.4788 0.1641
vn 0.1188 0.9874 0.1042
vn 0.6618 0.5874 0.4658
vn 0.6425 0.6237 0.4452
vn 0.8403 0.4928 0.2261
vn 0.9294 0.1934 0.3144
vn 0.2704 0.9592 0.0831
vn 0.4054 0.8962 0.1801
vn -0.5549 0.7499 -0.3602
vn -0.4592 0.8651 -0.2021
vn -0.1954 0.9789 -0.0607
vn -0.8508 -0.0893 -0.5179
vn -0.8616 0.1536 -0.4837
vn -0.9112 0.3037 -0.2785
vn -0.8222 0.5253 -0.2189
vn -0.4147 -0.8787 -0.2364
vn -0.7265 -0.5849 -0.3607
vn -0.0045 -0.0076 1.0000
vn 0.0002 -0.0007 1.0000
vn 0.0001 -0.0000 1.0000
vn 0.6215 -0.0001 -0.7834
vn 0.6215 -0.0000 -0.7834
vn 0.6216 -0.0000 -0.7834
vn 0.6215 0.0002 -0.7834
vn 0.6216 -0.0000 -0.7833
vn 0.6217 0.0003 -0.7833
vn 0.6216 0.0001 -0.7834
s 0
f 2//1 1//1 16//1
f 2//2 16//2 3//2
f 3//3 16//3 11//3
f 11//4 16//4 15//4
f 11//5 15//5 4//5
f 4//6 15//6 5//6
f 5//7 15//7 14//7
f 5//8 14//8 8//8
f 7//9 6//9 1//9
f 7//10 1//10 2//10
f 13//11 7//11 2//11
f 27//12 26//12 6//12
f 27//13 6//13 7//13 30//13
f 25//14 24//14 8//14
f 25//15 8//15 6//15 26//15
f 6//16 8//16 14//16
f 29//17 23//17 9//17
f 29//18 9//18 8//18 24//18
f 8//19 9//19 5//19
f 28//20 21//20 10//20
f 28//21 10//21 22//21
f 22//22 10//22 9//22 23//22
f 9//23 10//23 4//23
f 9//24 4//24 5//24
f 20//25 11//25 10//25 21//25
f 10//26 11//26 4//26
f 19//27 12//27 32//27
f 32//28 12//28 3//28 31//28
f 31//29 3//29 11//29 20//29
f 18//30 33//30 13//30
f 18//31 13//31 12//31 19//31
f 12//32 13//32 2//32
f 12//33 2//33 3//33
f 17//34 30//34 7//34
f 17//35 7//35 13//35 33//35
f 1//36 6//36 14//36
f 1//37 14//37 15//37
f 16//38 1//38 15//38
f 26//39 27//39 30//39
f 30//40 17//40 18//40
f 21//40 29//40 30//40
f 25//40 30//40 29//40
f 23//41 29//41 21//41
f 29//40 24//40 25//40
f 18//40 32//40 30//40
f 19//41 32//41 18//41
f 32//40 21//40 30//40
f 25//42 26//42 30//42
f 31//40 21//40 32//40
f 28//43 22//43 21//43
f 21//44 22//44 23//44
f 20//42 21//42 31//42
f 17//45 33//45 18//45
